M48
; DRILL file KiCad 10.0.5 date 2026-09-25T22:25:15
; FORMAT={-:-/ absolute / metric / decimal}
; #@! TF.CreationDate,2026-09-25T22:25:15+05:30
; #@! TF.GenerationSoftware,Kicad,Pcbnew,10.0.5
; #@! TF.FileFunction,Plated,1,2,PTH
FMAT,2
METRIC
; #@! TA.AperFunction,Plated,PTH,ViaDrill
T1C0.300
; #@! TA.AperFunction,Plated,PTH,ComponentDrill
T2C0.800
; #@! TA.AperFunction,Plated,PTH,ComponentDrill
T3C1.000
; #@! TA.AperFunction,Plated,PTH,ComponentDrill
T4C1.500
; #@! TA.AperFunction,Plated,PTH,ComponentDrill
T5C1.524
; #@! TA.AperFunction,Plated,PTH,ComponentDrill
T6C3.048
%
G90
G05
T1
X252.412Y-242.887
X253.206Y-237.337
X265.906Y-261.938
X267.494Y-258.762
X269.875Y-262.731
X271.462Y-263.525
X272.256Y-242.887
X272.41Y-237.95
X304.006Y-278.606
X307.975Y-277.019
X309.562Y-257.175
X309.562Y-259.726
X333.375Y-323.85
X355.6Y-269.875
X357.215Y-275.431
X360.363Y-292.1
X361.156Y-272.256
X371.475Y-247.65
T2
X40.481Y-247.809
X40.481Y-255.429
X43.656Y-324.009
X43.656Y-331.629
X46.038Y-267.494
X46.038Y-275.114
X48.419Y-285.909
X48.419Y-293.529
X59.531Y-247.968
X59.531Y-255.587
X65.087Y-305.594
X65.087Y-313.214
X67.469Y-324.167
X67.469Y-331.787
X69.85Y-267.652
X69.85Y-275.272
X74.612Y-286.544
X74.612Y-294.164
X78.581Y-247.809
X78.581Y-255.429
X84.138Y-305.752
X84.138Y-313.373
X88.106Y-267.652
X88.106Y-275.272
X90.487Y-324.803
X90.487Y-332.422
X93.662Y-286.702
X93.662Y-294.322
X97.631Y-248.602
X97.631Y-256.222
X103.188Y-305.752
X103.188Y-313.373
X107.77Y-267.494
X107.77Y-275.114
X112.712Y-286.702
X112.712Y-294.322
X116.681Y-248.444
X116.681Y-256.064
X122.237Y-305.752
X122.237Y-313.373
X127.0Y-267.652
X127.0Y-275.272
X131.762Y-285.909
X131.762Y-293.529
X135.731Y-247.968
X135.731Y-255.587
X141.287Y-305.752
X141.287Y-313.373
X146.05Y-267.652
X146.05Y-275.272
X150.812Y-286.544
X150.812Y-294.164
X154.781Y-248.602
X154.781Y-256.222
X160.338Y-305.752
X160.338Y-313.373
X162.719Y-324.803
X162.719Y-332.422
X165.1Y-267.494
X165.1Y-275.114
X169.862Y-286.702
X169.862Y-294.322
X173.831Y-248.602
X173.831Y-256.222
X179.387Y-305.752
X179.387Y-313.373
X184.15Y-268.446
X184.15Y-276.066
X188.912Y-286.544
X188.912Y-294.164
X192.881Y-248.444
X192.881Y-256.064
X198.438Y-306.387
X198.438Y-314.007
X203.2Y-267.652
X203.2Y-275.272
X207.962Y-287.496
X207.962Y-295.116
X211.931Y-248.444
X211.931Y-256.064
X217.487Y-305.911
X217.487Y-313.531
X222.25Y-267.494
X222.25Y-275.114
X227.012Y-287.496
X227.012Y-295.116
X230.981Y-248.444
X230.981Y-256.064
X234.156Y-324.803
X234.156Y-332.422
X236.537Y-304.959
X236.537Y-312.579
X241.3Y-267.494
X241.3Y-275.114
X246.062Y-286.702
X246.062Y-294.322
X250.031Y-248.602
X250.031Y-256.222
X255.429Y-305.594
X255.429Y-313.214
X257.8Y-324.24
X257.8Y-331.86
X260.35Y-267.652
X260.35Y-275.272
X265.113Y-286.544
X265.113Y-294.164
X269.081Y-247.809
X269.081Y-255.429
X279.4Y-267.811
X279.4Y-275.431
X281.781Y-324.803
X281.781Y-332.422
X303.212Y-267.652
X303.212Y-275.272
X307.181Y-249.237
X307.181Y-256.858
X307.181Y-287.655
X307.181Y-295.275
X307.975Y-304.959
X307.975Y-312.579
X319.405Y-319.881
X327.025Y-319.881
X338.137Y-262.89
X338.137Y-270.51
X338.137Y-281.781
X338.137Y-289.401
X342.424Y-319.881
X343.059Y-277.019
X350.044Y-319.881
X350.679Y-277.019
X353.219Y-304.959
X353.219Y-312.579
X357.188Y-281.305
X357.188Y-288.925
X358.14Y-319.881
X365.76Y-319.881
X383.699Y-296.863
X383.699Y-315.912
X391.319Y-296.863
X391.319Y-315.912
X402.749Y-296.863
X403.384Y-315.912
X410.369Y-296.863
X411.004Y-315.912
T3
X360.4Y-240.665
X360.4Y-243.205
X360.4Y-245.745
X360.4Y-248.285
X367.506Y-238.22
X367.506Y-240.76
X367.506Y-243.3
X367.506Y-245.84
X367.506Y-248.38
X367.506Y-250.92
X367.506Y-253.46
X367.506Y-256.0
X367.506Y-258.54
X367.506Y-261.08
X367.506Y-263.62
X367.506Y-266.16
X367.506Y-268.7
X367.506Y-271.24
X367.506Y-273.78
X367.506Y-276.32
X367.506Y-278.86
X367.506Y-281.4
X367.506Y-283.94
X367.506Y-286.48
X385.286Y-238.22
X385.286Y-240.76
X385.286Y-243.3
X385.286Y-245.84
X385.286Y-248.38
X385.286Y-250.92
X385.286Y-253.46
X385.286Y-256.0
X385.286Y-258.54
X385.286Y-261.08
X385.286Y-263.62
X385.286Y-266.16
X385.286Y-268.7
X385.286Y-271.24
X385.286Y-273.78
X385.286Y-276.32
X385.286Y-278.86
X385.286Y-281.4
X385.286Y-283.94
X385.286Y-286.48
X405.487Y-266.844
X405.487Y-281.344
X405.606Y-246.856
X405.606Y-261.356
X407.987Y-281.344
X408.106Y-261.356
X410.487Y-266.844
X410.487Y-281.344
X410.606Y-246.856
X410.606Y-261.356
T5
X27.146Y-250.666
X30.162Y-327.025
X32.544Y-269.875
X33.496Y-248.126
X34.925Y-288.925
X36.512Y-324.485
X38.894Y-267.335
X39.688Y-307.975
X41.275Y-286.385
X46.038Y-305.435
X46.196Y-250.666
X52.546Y-248.126
X53.975Y-327.025
X56.356Y-269.875
X60.325Y-324.485
X61.119Y-288.925
X62.706Y-267.335
X65.246Y-250.666
X67.469Y-286.385
X70.644Y-307.975
X71.596Y-248.126
X75.406Y-269.875
X76.994Y-305.435
X77.787Y-327.025
X80.169Y-288.925
X81.756Y-267.335
X84.138Y-324.485
X84.296Y-250.666
X86.519Y-286.385
X89.694Y-307.975
X90.646Y-248.126
X94.456Y-269.875
X96.044Y-305.435
X99.219Y-288.925
X100.806Y-267.335
X103.346Y-250.666
X105.569Y-286.385
X108.744Y-307.975
X109.696Y-248.126
X113.506Y-269.875
X115.094Y-305.435
X118.269Y-288.925
X119.856Y-267.335
X122.396Y-250.666
X124.619Y-286.385
X127.794Y-307.975
X128.746Y-248.126
X132.556Y-269.875
X134.144Y-305.435
X137.319Y-288.925
X138.906Y-267.335
X141.446Y-250.666
X143.669Y-286.385
X146.844Y-307.975
X147.796Y-248.126
X149.217Y-327.025
X151.606Y-269.875
X153.194Y-305.435
X155.567Y-324.485
X156.369Y-288.925
X157.956Y-267.335
X160.496Y-250.666
X162.719Y-286.385
X165.894Y-307.975
X166.846Y-248.126
X170.656Y-269.875
X172.244Y-305.435
X175.419Y-288.925
X177.006Y-267.335
X179.546Y-250.666
X181.769Y-286.385
X184.944Y-307.975
X185.896Y-248.126
X189.706Y-269.875
X191.294Y-305.435
X194.469Y-288.925
X196.056Y-267.335
X198.596Y-250.666
X200.819Y-286.385
X203.994Y-307.975
X204.946Y-248.126
X208.756Y-269.875
X210.344Y-305.435
X213.519Y-288.925
X215.106Y-267.335
X217.646Y-250.666
X219.869Y-286.385
X220.662Y-327.025
X223.044Y-307.975
X223.996Y-248.126
X227.012Y-324.485
X227.806Y-269.875
X229.394Y-305.435
X232.569Y-288.925
X234.156Y-267.335
X236.696Y-250.666
X238.919Y-286.385
X242.094Y-307.975
X243.046Y-248.126
X244.475Y-327.025
X246.856Y-269.875
X248.444Y-305.435
X250.825Y-324.485
X251.619Y-288.925
X253.206Y-267.335
X255.74Y-250.67
X257.969Y-286.385
X262.09Y-248.13
X265.906Y-269.875
X268.287Y-327.025
X272.256Y-267.335
X274.637Y-324.485
X277.812Y-307.975
X282.575Y-288.925
X284.162Y-250.825
X284.162Y-305.435
X288.925Y-286.385
X289.719Y-269.875
X290.512Y-248.285
X296.069Y-267.335
X320.675Y-327.025
X324.644Y-264.954
X324.644Y-284.004
X327.025Y-324.485
X330.994Y-262.414
X330.994Y-281.464
X339.725Y-307.976
X339.725Y-327.025
X343.694Y-264.954
X343.694Y-284.004
X346.075Y-305.436
X346.075Y-324.485
X350.044Y-262.414
X350.044Y-281.464
X358.775Y-327.025
X365.125Y-324.485
X385.18Y-303.847
X385.219Y-323.056
X391.53Y-301.308
X391.569Y-320.516
X404.23Y-303.86
X404.269Y-323.056
X410.58Y-301.32
X410.619Y-320.516
T6
X103.029Y-322.58
X203.041Y-322.58
T4
G00X402.387Y-274.494
M15
G01X402.387Y-273.194
M16
G05
G00X402.506Y-254.506
M15
G01X402.506Y-253.206
M16
G05
G00X413.587Y-274.494
M15
G01X413.587Y-273.194
M16
G05
G00X413.706Y-254.506
M15
G01X413.706Y-253.206
M16
G05
M30
