M48
; DRILL file KiCad 10.0.5 date 2026-09-25T22:25:15
; FORMAT={-:-/ absolute / metric / decimal}
; #@! TF.CreationDate,2026-09-25T22:25:15+05:30
; #@! TF.GenerationSoftware,Kicad,Pcbnew,10.0.5
; #@! TF.FileFunction,NonPlated,1,2,NPTH
FMAT,2
METRIC
; #@! TA.AperFunction,NonPlated,NPTH,ComponentDrill
T1C1.750
; #@! TA.AperFunction,NonPlated,NPTH,ComponentDrill
T2C3.048
; #@! TA.AperFunction,NonPlated,NPTH,ComponentDrill
T3C3.200
; #@! TA.AperFunction,NonPlated,NPTH,ComponentDrill
T4C3.988
%
G90
G05
T1
X25.876Y-253.206
X28.892Y-329.565
X31.274Y-272.415
X33.655Y-291.465
X36.036Y-253.206
X38.417Y-310.515
X39.052Y-329.565
X41.434Y-272.415
X43.815Y-291.465
X44.926Y-253.206
X48.578Y-310.515
X52.705Y-329.565
X55.086Y-253.206
X55.086Y-272.415
X59.849Y-291.465
X62.865Y-329.565
X63.976Y-253.206
X65.246Y-272.415
X69.374Y-310.515
X70.009Y-291.465
X74.136Y-253.206
X74.136Y-272.415
X76.517Y-329.565
X78.899Y-291.465
X79.534Y-310.515
X83.026Y-253.206
X84.296Y-272.415
X86.677Y-329.565
X88.424Y-310.515
X89.059Y-291.465
X93.186Y-253.206
X93.186Y-272.415
X97.949Y-291.465
X98.584Y-310.515
X102.076Y-253.206
X103.346Y-272.415
X107.474Y-310.515
X108.109Y-291.465
X112.236Y-253.206
X112.236Y-272.415
X116.999Y-291.465
X117.634Y-310.515
X121.126Y-253.206
X122.396Y-272.415
X126.524Y-310.515
X127.159Y-291.465
X131.286Y-253.206
X131.286Y-272.415
X136.049Y-291.465
X136.684Y-310.515
X140.176Y-253.206
X141.446Y-272.415
X145.574Y-310.515
X146.209Y-291.465
X147.947Y-329.565
X150.336Y-253.206
X150.336Y-272.415
X155.099Y-291.465
X155.734Y-310.515
X158.107Y-329.565
X159.226Y-253.206
X160.496Y-272.415
X164.624Y-310.515
X165.259Y-291.465
X169.386Y-253.206
X169.386Y-272.415
X174.149Y-291.465
X174.784Y-310.515
X178.276Y-253.206
X179.546Y-272.415
X183.674Y-310.515
X184.309Y-291.465
X188.436Y-253.206
X188.436Y-272.415
X193.199Y-291.465
X193.834Y-310.515
X197.326Y-253.206
X198.596Y-272.415
X202.724Y-310.515
X203.359Y-291.465
X207.486Y-253.206
X207.486Y-272.415
X212.249Y-291.465
X212.884Y-310.515
X216.376Y-253.206
X217.646Y-272.415
X219.392Y-329.565
X221.774Y-310.515
X222.409Y-291.465
X226.536Y-253.206
X226.536Y-272.415
X229.552Y-329.565
X231.299Y-291.465
X231.934Y-310.515
X235.426Y-253.206
X236.696Y-272.415
X240.824Y-310.515
X241.459Y-291.465
X243.205Y-329.565
X245.586Y-253.206
X245.586Y-272.415
X250.349Y-291.465
X250.984Y-310.515
X253.365Y-329.565
X254.47Y-253.21
X255.746Y-272.415
X260.509Y-291.465
X264.63Y-253.21
X264.636Y-272.415
X267.017Y-329.565
X274.796Y-272.415
X276.542Y-310.515
X277.178Y-329.565
X281.305Y-291.465
X282.892Y-253.365
X286.702Y-310.515
X288.449Y-272.415
X291.465Y-291.465
X293.053Y-253.365
X298.609Y-272.415
X319.405Y-329.565
X323.374Y-267.494
X323.374Y-286.544
X329.565Y-329.565
X333.534Y-267.494
X333.534Y-286.544
X338.455Y-310.516
X338.455Y-329.565
X342.424Y-267.494
X342.424Y-286.544
X348.615Y-310.516
X348.615Y-329.565
X352.584Y-267.494
X352.584Y-286.544
X357.505Y-329.565
X367.665Y-329.565
X383.91Y-306.387
X383.949Y-325.596
X394.07Y-306.387
X394.109Y-325.596
X402.96Y-306.4
X402.999Y-325.596
X413.12Y-306.4
X413.159Y-325.596
T2
X31.591Y-303.53
X55.404Y-303.53
X269.71Y-303.53
X274.48Y-284.51
X276.22Y-246.23
X293.522Y-303.53
X298.292Y-284.51
X300.032Y-246.23
T3
X17.462Y-241.3
X19.05Y-342.9
X298.45Y-334.169
X315.912Y-254.794
X398.462Y-241.3
X409.575Y-342.106
T4
X30.956Y-253.206
X31.591Y-318.77
X33.972Y-329.565
X36.354Y-272.415
X38.735Y-291.465
X43.497Y-310.515
X50.006Y-253.206
X55.404Y-318.77
X57.785Y-329.565
X60.166Y-272.415
X64.929Y-291.465
X69.056Y-253.206
X74.454Y-310.515
X79.216Y-272.415
X81.597Y-329.565
X83.979Y-291.465
X88.106Y-253.206
X93.504Y-310.515
X98.266Y-272.415
X103.029Y-337.82
X103.029Y-291.465
X107.156Y-253.206
X112.554Y-310.515
X117.316Y-272.415
X122.079Y-291.465
X126.206Y-253.206
X131.604Y-310.515
X136.366Y-272.415
X141.129Y-291.465
X145.256Y-253.206
X150.654Y-310.515
X153.027Y-329.565
X155.416Y-272.415
X160.179Y-291.465
X164.306Y-253.206
X169.704Y-310.515
X174.466Y-272.415
X179.229Y-291.465
X183.356Y-253.206
X188.754Y-310.515
X193.516Y-272.415
X198.279Y-291.465
X202.406Y-253.206
X203.041Y-337.82
X207.804Y-310.515
X212.566Y-272.415
X217.329Y-291.465
X221.456Y-253.206
X224.472Y-329.565
X226.854Y-310.515
X231.616Y-272.415
X236.379Y-291.465
X240.506Y-253.206
X245.904Y-310.515
X248.285Y-329.565
X250.666Y-272.415
X255.429Y-291.465
X259.55Y-253.21
X269.71Y-318.77
X269.716Y-272.415
X272.097Y-329.565
X274.48Y-299.75
X276.22Y-261.47
X281.623Y-310.515
X286.385Y-291.465
X287.972Y-253.365
X293.522Y-318.77
X293.529Y-272.415
X298.292Y-299.75
X300.032Y-261.47
X324.485Y-329.565
X328.454Y-267.494
X328.454Y-286.544
X343.535Y-310.516
X343.535Y-329.565
X347.504Y-267.494
X347.504Y-286.544
X362.585Y-329.565
X388.99Y-306.387
X389.029Y-325.596
X408.04Y-306.4
X408.079Y-325.596
M30
