%TF.GenerationSoftware,KiCad,Pcbnew,10.0.5*%
%TF.CreationDate,2026-09-25T22:25:23+05:30*%
%TF.ProjectId,The_Keyboard,5468655f-4b65-4796-926f-6172642e6b69,rev?*%
%TF.SameCoordinates,Original*%
%TF.FileFunction,Soldermask,Bot*%
%TF.FilePolarity,Negative*%
%FSLAX46Y46*%
G04 Gerber Fmt 4.6, Leading zero omitted, Abs format (unit mm)*
G04 Created by KiCad (PCBNEW 10.0.5) date 2026-09-25 22:25:23*
%MOMM*%
%LPD*%
G01*
G04 APERTURE LIST*
G04 Aperture macros list*
%AMRoundRect*
0 Rectangle with rounded corners*
0 $1 Rounding radius*
0 $2 $3 $4 $5 $6 $7 $8 $9 X,Y pos of 4 corners*
0 Add a 4 corners polygon primitive as box body*
4,1,4,$2,$3,$4,$5,$6,$7,$8,$9,$2,$3,0*
0 Add four circle primitives for the rounded corners*
1,1,$1+$1,$2,$3*
1,1,$1+$1,$4,$5*
1,1,$1+$1,$6,$7*
1,1,$1+$1,$8,$9*
0 Add four rect primitives between the rounded corners*
20,1,$1+$1,$2,$3,$4,$5,0*
20,1,$1+$1,$4,$5,$6,$7,0*
20,1,$1+$1,$6,$7,$8,$9,0*
20,1,$1+$1,$8,$9,$2,$3,0*%
%AMFreePoly0*
4,1,37,0.000000,0.796148,0.078414,0.796148,0.232228,0.765552,0.377117,0.705537,0.507515,0.618408,0.618408,0.507515,0.705537,0.377117,0.765552,0.232228,0.796148,0.078414,0.796148,-0.078414,0.765552,-0.232228,0.705537,-0.377117,0.618408,-0.507515,0.507515,-0.618408,0.377117,-0.705537,0.232228,-0.765552,0.078414,-0.796148,0.000000,-0.796148,0.000000,-0.800000,-0.600000,-0.800000,
-0.603843,-0.796157,-0.639018,-0.796157,-0.711114,-0.766294,-0.766294,-0.711114,-0.796157,-0.639018,-0.796157,-0.603843,-0.800000,-0.600000,-0.800000,0.600000,-0.796157,0.603843,-0.796157,0.639018,-0.766294,0.711114,-0.711114,0.766294,-0.639018,0.796157,-0.603843,0.796157,-0.600000,0.800000,0.000000,0.800000,0.000000,0.796148,0.000000,0.796148,$1*%
%AMFreePoly1*
4,1,37,0.603843,0.796157,0.639018,0.796157,0.711114,0.766294,0.766294,0.711114,0.796157,0.639018,0.796157,0.603843,0.800000,0.600000,0.800000,-0.600000,0.796157,-0.603843,0.796157,-0.639018,0.766294,-0.711114,0.711114,-0.766294,0.639018,-0.796157,0.603843,-0.796157,0.600000,-0.800000,0.000000,-0.800000,0.000000,-0.796148,-0.078414,-0.796148,-0.232228,-0.765552,-0.377117,-0.705537,
-0.507515,-0.618408,-0.618408,-0.507515,-0.705537,-0.377117,-0.765552,-0.232228,-0.796148,-0.078414,-0.796148,0.078414,-0.765552,0.232228,-0.705537,0.377117,-0.618408,0.507515,-0.507515,0.618408,-0.377117,0.705537,-0.232228,0.765552,-0.078414,0.796148,0.000000,0.796148,0.000000,0.800000,0.600000,0.800000,0.603843,0.796157,0.603843,0.796157,$1*%
G04 Aperture macros list end*
%ADD10C,2.000000*%
%ADD11RoundRect,0.550000X0.550000X-1.150000X0.550000X1.150000X-0.550000X1.150000X-0.550000X-1.150000X0*%
%ADD12RoundRect,0.500000X0.500000X-0.500000X0.500000X0.500000X-0.500000X0.500000X-0.500000X-0.500000X0*%
%ADD13C,3.200000*%
%ADD14C,1.600000*%
%ADD15RoundRect,0.250000X0.550000X-0.550000X0.550000X0.550000X-0.550000X0.550000X-0.550000X-0.550000X0*%
%ADD16C,3.987800*%
%ADD17C,3.048000*%
%ADD18C,2.300000*%
%ADD19C,1.750000*%
%ADD20RoundRect,0.250000X-0.550000X-0.550000X0.550000X-0.550000X0.550000X0.550000X-0.550000X0.550000X0*%
%ADD21C,4.000000*%
%ADD22RoundRect,0.250000X-0.550000X0.550000X-0.550000X-0.550000X0.550000X-0.550000X0.550000X0.550000X0*%
%ADD23RoundRect,0.250000X0.550000X0.550000X-0.550000X0.550000X-0.550000X-0.550000X0.550000X-0.550000X0*%
%ADD24FreePoly0,0.000000*%
%ADD25FreePoly1,0.000000*%
%ADD26RoundRect,0.200000X-0.600000X-0.600000X0.600000X-0.600000X0.600000X0.600000X-0.600000X0.600000X0*%
%ADD27C,1.700000*%
%ADD28RoundRect,0.170000X-0.680000X0.680000X-0.680000X-0.680000X0.680000X-0.680000X0.680000X0.680000X0*%
G04 APERTURE END LIST*
D10*
%TO.C,SW67*%
X405487500Y-266843750D03*
X410487500Y-266843750D03*
D11*
X413587500Y-273843750D03*
X402387500Y-273843750D03*
D12*
X407987500Y-281343750D03*
D10*
X410487500Y-281343750D03*
X405487500Y-281343750D03*
%TD*%
D13*
%TO.C,H1*%
X17462500Y-241300000D03*
%TD*%
D14*
%TO.C,D6*%
X269081250Y-247808750D03*
D15*
X269081250Y-255428750D03*
%TD*%
D14*
%TO.C,D60*%
X338137500Y-262890000D03*
D15*
X338137500Y-270510000D03*
%TD*%
D16*
%TO.C,S1*%
X300032500Y-261470000D03*
D17*
X300032500Y-246230000D03*
D16*
X276220000Y-261470000D03*
D17*
X276220000Y-246230000D03*
%TD*%
D18*
%TO.C,SW69*%
X243046250Y-248126250D03*
X236696250Y-250666250D03*
D19*
X245586250Y-253206250D03*
D16*
X240506250Y-253206250D03*
D19*
X235426250Y-253206250D03*
%TD*%
D14*
%TO.C,D7*%
X59531250Y-247967500D03*
D15*
X59531250Y-255587500D03*
%TD*%
D14*
%TO.C,D56*%
X222250000Y-267493750D03*
D15*
X222250000Y-275113750D03*
%TD*%
D13*
%TO.C,H6*%
X409575000Y-342106250D03*
%TD*%
D18*
%TO.C,SW20*%
X100806250Y-267335000D03*
X94456250Y-269875000D03*
D19*
X103346250Y-272415000D03*
D16*
X98266250Y-272415000D03*
D19*
X93186250Y-272415000D03*
%TD*%
D18*
%TO.C,SW43*%
X166846250Y-248126250D03*
X160496250Y-250666250D03*
D19*
X169386250Y-253206250D03*
D16*
X164306250Y-253206250D03*
D19*
X159226250Y-253206250D03*
%TD*%
D14*
%TO.C,D30*%
X391318750Y-296862500D03*
D20*
X383698750Y-296862500D03*
%TD*%
D14*
%TO.C,D45*%
X188912500Y-286543750D03*
D15*
X188912500Y-294163750D03*
%TD*%
D18*
%TO.C,SW65*%
X296068750Y-267335000D03*
X289718750Y-269875000D03*
D19*
X298608750Y-272415000D03*
D16*
X293528750Y-272415000D03*
D19*
X288448750Y-272415000D03*
%TD*%
D14*
%TO.C,D66*%
X350678750Y-277018750D03*
D20*
X343058750Y-277018750D03*
%TD*%
D14*
%TO.C,D41*%
X281781250Y-324802500D03*
D15*
X281781250Y-332422500D03*
%TD*%
D16*
%TO.C,S4*%
X203041240Y-337820000D03*
D21*
X203041240Y-322580000D03*
D16*
X103028740Y-337820000D03*
D21*
X103028740Y-322580000D03*
%TD*%
D18*
%TO.C,SW37*%
X147796250Y-248126250D03*
X141446250Y-250666250D03*
D19*
X150336250Y-253206250D03*
D16*
X145256250Y-253206250D03*
D19*
X140176250Y-253206250D03*
%TD*%
D18*
%TO.C,SW3*%
X41275000Y-286385000D03*
X34925000Y-288925000D03*
D19*
X43815000Y-291465000D03*
D16*
X38735000Y-291465000D03*
D19*
X33655000Y-291465000D03*
%TD*%
D18*
%TO.C,SW35*%
X250825000Y-324485000D03*
X244475000Y-327025000D03*
D19*
X253365000Y-329565000D03*
D16*
X248285000Y-329565000D03*
D19*
X243205000Y-329565000D03*
%TD*%
D18*
%TO.C,SW16*%
X96043750Y-305435000D03*
X89693750Y-307975000D03*
D19*
X98583750Y-310515000D03*
D16*
X93503750Y-310515000D03*
D19*
X88423750Y-310515000D03*
%TD*%
D18*
%TO.C,SW13*%
X71596250Y-248126250D03*
X65246250Y-250666250D03*
D19*
X74136250Y-253206250D03*
D16*
X69056250Y-253206250D03*
D19*
X63976250Y-253206250D03*
%TD*%
D14*
%TO.C,D19*%
X97631250Y-248602500D03*
D15*
X97631250Y-256222500D03*
%TD*%
D14*
%TO.C,D4*%
X65087500Y-305593750D03*
D15*
X65087500Y-313213750D03*
%TD*%
D14*
%TO.C,D32*%
X146050000Y-267652500D03*
D15*
X146050000Y-275272500D03*
%TD*%
D18*
%TO.C,SW12*%
X272256250Y-267335000D03*
X265906250Y-269875000D03*
D19*
X274796250Y-272415000D03*
D16*
X269716250Y-272415000D03*
D19*
X264636250Y-272415000D03*
%TD*%
D18*
%TO.C,SW11*%
X60325000Y-324485000D03*
X53975000Y-327025000D03*
D19*
X62865000Y-329565000D03*
D16*
X57785000Y-329565000D03*
D19*
X52705000Y-329565000D03*
%TD*%
D13*
%TO.C,H3*%
X398462500Y-241300000D03*
%TD*%
D14*
%TO.C,D39*%
X169862500Y-286702500D03*
D15*
X169862500Y-294322500D03*
%TD*%
D14*
%TO.C,D62*%
X241300000Y-267493750D03*
D15*
X241300000Y-275113750D03*
%TD*%
D18*
%TO.C,SW47*%
X410618750Y-320516250D03*
X404268750Y-323056250D03*
D19*
X413158750Y-325596250D03*
D16*
X408078750Y-325596250D03*
D19*
X402998750Y-325596250D03*
%TD*%
D14*
%TO.C,D5*%
X43656250Y-324008750D03*
D15*
X43656250Y-331628750D03*
%TD*%
D14*
%TO.C,D29*%
X234156250Y-324802500D03*
D15*
X234156250Y-332422500D03*
%TD*%
D18*
%TO.C,SW17*%
X84137500Y-324485000D03*
X77787500Y-327025000D03*
D19*
X86677500Y-329565000D03*
D16*
X81597500Y-329565000D03*
D19*
X76517500Y-329565000D03*
%TD*%
D18*
%TO.C,SW10*%
X76993750Y-305435000D03*
X70643750Y-307975000D03*
D19*
X79533750Y-310515000D03*
D16*
X74453750Y-310515000D03*
D19*
X69373750Y-310515000D03*
%TD*%
D14*
%TO.C,D18*%
X391318750Y-315912500D03*
D20*
X383698750Y-315912500D03*
%TD*%
D18*
%TO.C,SW21*%
X105568750Y-286385000D03*
X99218750Y-288925000D03*
D19*
X108108750Y-291465000D03*
D16*
X103028750Y-291465000D03*
D19*
X97948750Y-291465000D03*
%TD*%
D18*
%TO.C,SW23*%
X155567210Y-324485000D03*
X149217210Y-327025000D03*
D19*
X158107210Y-329565000D03*
D16*
X153027210Y-329565000D03*
D19*
X147947210Y-329565000D03*
%TD*%
D14*
%TO.C,D42*%
X327025000Y-319881250D03*
D20*
X319405000Y-319881250D03*
%TD*%
D14*
%TO.C,D59*%
X307181250Y-287655000D03*
D15*
X307181250Y-295275000D03*
%TD*%
D18*
%TO.C,SW58*%
X229393750Y-305435000D03*
X223043750Y-307975000D03*
D19*
X231933750Y-310515000D03*
D16*
X226853750Y-310515000D03*
D19*
X221773750Y-310515000D03*
%TD*%
D14*
%TO.C,D57*%
X227012500Y-287496250D03*
D15*
X227012500Y-295116250D03*
%TD*%
D14*
%TO.C,D50*%
X203200000Y-267652500D03*
D15*
X203200000Y-275272500D03*
%TD*%
D18*
%TO.C,SW74*%
X330993750Y-281463750D03*
X324643750Y-284003750D03*
D19*
X333533750Y-286543750D03*
D16*
X328453750Y-286543750D03*
D19*
X323373750Y-286543750D03*
%TD*%
D14*
%TO.C,D9*%
X74612500Y-286543750D03*
D15*
X74612500Y-294163750D03*
%TD*%
D14*
%TO.C,D15*%
X93662500Y-286702500D03*
D15*
X93662500Y-294322500D03*
%TD*%
D18*
%TO.C,SW72*%
X410580000Y-301320000D03*
X404230000Y-303860000D03*
D19*
X413120000Y-306400000D03*
D16*
X408040000Y-306400000D03*
D19*
X402960000Y-306400000D03*
%TD*%
D14*
%TO.C,D22*%
X122237500Y-305752500D03*
D15*
X122237500Y-313372500D03*
%TD*%
D14*
%TO.C,D64*%
X255428750Y-305593750D03*
D15*
X255428750Y-313213750D03*
%TD*%
D14*
%TO.C,D12*%
X279400000Y-275431250D03*
D22*
X279400000Y-267811250D03*
%TD*%
D16*
%TO.C,S3*%
X55403750Y-318770000D03*
D17*
X55403750Y-303530000D03*
D16*
X31591250Y-318770000D03*
D17*
X31591250Y-303530000D03*
%TD*%
D14*
%TO.C,D27*%
X131762500Y-285908750D03*
D15*
X131762500Y-293528750D03*
%TD*%
D18*
%TO.C,SW52*%
X210343750Y-305435000D03*
X203993750Y-307975000D03*
D19*
X212883750Y-310515000D03*
D16*
X207803750Y-310515000D03*
D19*
X202723750Y-310515000D03*
%TD*%
D18*
%TO.C,SW9*%
X67468750Y-286385000D03*
X61118750Y-288925000D03*
D19*
X70008750Y-291465000D03*
D16*
X64928750Y-291465000D03*
D19*
X59848750Y-291465000D03*
%TD*%
D14*
%TO.C,D61*%
X230981250Y-248443750D03*
D15*
X230981250Y-256063750D03*
%TD*%
D14*
%TO.C,D54*%
X365760000Y-319881250D03*
D20*
X358140000Y-319881250D03*
%TD*%
D18*
%TO.C,SW45*%
X181768750Y-286385000D03*
X175418750Y-288925000D03*
D19*
X184308750Y-291465000D03*
D16*
X179228750Y-291465000D03*
D19*
X174148750Y-291465000D03*
%TD*%
D14*
%TO.C,D46*%
X198437500Y-306387500D03*
D15*
X198437500Y-314007500D03*
%TD*%
D14*
%TO.C,D25*%
X116681250Y-248443750D03*
D15*
X116681250Y-256063750D03*
%TD*%
D18*
%TO.C,SW8*%
X62706250Y-267335000D03*
X56356250Y-269875000D03*
D19*
X65246250Y-272415000D03*
D16*
X60166250Y-272415000D03*
D19*
X55086250Y-272415000D03*
%TD*%
D14*
%TO.C,D48*%
X342423750Y-319881250D03*
D23*
X350043750Y-319881250D03*
%TD*%
D18*
%TO.C,SW59*%
X288925000Y-286385000D03*
X282575000Y-288925000D03*
D19*
X291465000Y-291465000D03*
D16*
X286385000Y-291465000D03*
D19*
X281305000Y-291465000D03*
%TD*%
D14*
%TO.C,D38*%
X165100000Y-267493750D03*
D15*
X165100000Y-275113750D03*
%TD*%
D14*
%TO.C,D14*%
X88106250Y-267652500D03*
D15*
X88106250Y-275272500D03*
%TD*%
D18*
%TO.C,SW36*%
X346075000Y-305436250D03*
X339725000Y-307976250D03*
D19*
X348615000Y-310516250D03*
D16*
X343535000Y-310516250D03*
D19*
X338455000Y-310516250D03*
%TD*%
D14*
%TO.C,D44*%
X184150000Y-268446250D03*
D15*
X184150000Y-276066250D03*
%TD*%
D18*
%TO.C,SW48*%
X346075000Y-324485000D03*
X339725000Y-327025000D03*
D19*
X348615000Y-329565000D03*
D16*
X343535000Y-329565000D03*
D19*
X338455000Y-329565000D03*
%TD*%
D14*
%TO.C,D47*%
X411003750Y-315912500D03*
D20*
X403383750Y-315912500D03*
%TD*%
D14*
%TO.C,D3*%
X48418750Y-285908750D03*
D15*
X48418750Y-293528750D03*
%TD*%
D14*
%TO.C,D68*%
X260350000Y-267652500D03*
D15*
X260350000Y-275272500D03*
%TD*%
D18*
%TO.C,SW55*%
X204946250Y-248126250D03*
X198596250Y-250666250D03*
D19*
X207486250Y-253206250D03*
D16*
X202406250Y-253206250D03*
D19*
X197326250Y-253206250D03*
%TD*%
D18*
%TO.C,SW19*%
X90646250Y-248126250D03*
X84296250Y-250666250D03*
D19*
X93186250Y-253206250D03*
D16*
X88106250Y-253206250D03*
D19*
X83026250Y-253206250D03*
%TD*%
D18*
%TO.C,SW53*%
X284162500Y-305435000D03*
X277812500Y-307975000D03*
D19*
X286702500Y-310515000D03*
D16*
X281622500Y-310515000D03*
D19*
X276542500Y-310515000D03*
%TD*%
D14*
%TO.C,D71*%
X307181250Y-249237500D03*
D15*
X307181250Y-256857500D03*
%TD*%
D14*
%TO.C,D11*%
X67468750Y-324167500D03*
D15*
X67468750Y-331787500D03*
%TD*%
D14*
%TO.C,D72*%
X338137500Y-281781250D03*
D15*
X338137500Y-289401250D03*
%TD*%
D18*
%TO.C,SW15*%
X86518750Y-286385000D03*
X80168750Y-288925000D03*
D19*
X89058750Y-291465000D03*
D16*
X83978750Y-291465000D03*
D19*
X78898750Y-291465000D03*
%TD*%
D14*
%TO.C,D34*%
X160337500Y-305752500D03*
D15*
X160337500Y-313372500D03*
%TD*%
D18*
%TO.C,SW18*%
X391568750Y-320516250D03*
X385218750Y-323056250D03*
D19*
X394108750Y-325596250D03*
D16*
X389028750Y-325596250D03*
D19*
X383948750Y-325596250D03*
%TD*%
D16*
%TO.C,S5*%
X293522500Y-318770000D03*
D17*
X293522500Y-303530000D03*
D16*
X269710000Y-318770000D03*
D17*
X269710000Y-303530000D03*
%TD*%
D18*
%TO.C,SW32*%
X138906250Y-267335000D03*
X132556250Y-269875000D03*
D19*
X141446250Y-272415000D03*
D16*
X136366250Y-272415000D03*
D19*
X131286250Y-272415000D03*
%TD*%
D13*
%TO.C,H2*%
X298450000Y-334168750D03*
%TD*%
D18*
%TO.C,SW40*%
X172243750Y-305435000D03*
X165893750Y-307975000D03*
D19*
X174783750Y-310515000D03*
D16*
X169703750Y-310515000D03*
D19*
X164623750Y-310515000D03*
%TD*%
D18*
%TO.C,SW28*%
X134143750Y-305435000D03*
X127793750Y-307975000D03*
D19*
X136683750Y-310515000D03*
D16*
X131603750Y-310515000D03*
D19*
X126523750Y-310515000D03*
%TD*%
D18*
%TO.C,SW49*%
X185896250Y-248126250D03*
X179546250Y-250666250D03*
D19*
X188436250Y-253206250D03*
D16*
X183356250Y-253206250D03*
D19*
X178276250Y-253206250D03*
%TD*%
D14*
%TO.C,D37*%
X154781250Y-248602500D03*
D15*
X154781250Y-256222500D03*
%TD*%
D18*
%TO.C,SW5*%
X36512500Y-324485000D03*
X30162500Y-327025000D03*
D19*
X39052500Y-329565000D03*
D16*
X33972500Y-329565000D03*
D19*
X28892500Y-329565000D03*
%TD*%
D14*
%TO.C,D35*%
X257800000Y-324240000D03*
D15*
X257800000Y-331860000D03*
%TD*%
D18*
%TO.C,SW54*%
X365125000Y-324485000D03*
X358775000Y-327025000D03*
D19*
X367665000Y-329565000D03*
D16*
X362585000Y-329565000D03*
D19*
X357505000Y-329565000D03*
%TD*%
D14*
%TO.C,D53*%
X307975000Y-312578750D03*
D22*
X307975000Y-304958750D03*
%TD*%
D14*
%TO.C,D43*%
X173831250Y-248602500D03*
D15*
X173831250Y-256222500D03*
%TD*%
D18*
%TO.C,SW64*%
X248443750Y-305435000D03*
X242093750Y-307975000D03*
D19*
X250983750Y-310515000D03*
D16*
X245903750Y-310515000D03*
D19*
X240823750Y-310515000D03*
%TD*%
D18*
%TO.C,SW27*%
X124618750Y-286385000D03*
X118268750Y-288925000D03*
D19*
X127158750Y-291465000D03*
D16*
X122078750Y-291465000D03*
D19*
X116998750Y-291465000D03*
%TD*%
D14*
%TO.C,D21*%
X112712500Y-286702500D03*
D15*
X112712500Y-294322500D03*
%TD*%
D14*
%TO.C,D33*%
X150812500Y-286543750D03*
D15*
X150812500Y-294163750D03*
%TD*%
D18*
%TO.C,SW7*%
X52546250Y-248126250D03*
X46196250Y-250666250D03*
D19*
X55086250Y-253206250D03*
D16*
X50006250Y-253206250D03*
D19*
X44926250Y-253206250D03*
%TD*%
D14*
%TO.C,D28*%
X141287500Y-305752500D03*
D15*
X141287500Y-313372500D03*
%TD*%
D14*
%TO.C,D70*%
X410368750Y-296862500D03*
D20*
X402748750Y-296862500D03*
%TD*%
D14*
%TO.C,D1*%
X40481250Y-247808750D03*
D15*
X40481250Y-255428750D03*
%TD*%
D14*
%TO.C,D63*%
X246062500Y-286702500D03*
D15*
X246062500Y-294322500D03*
%TD*%
D18*
%TO.C,SW57*%
X219868750Y-286385000D03*
X213518750Y-288925000D03*
D19*
X222408750Y-291465000D03*
D16*
X217328750Y-291465000D03*
D19*
X212248750Y-291465000D03*
%TD*%
D18*
%TO.C,SW14*%
X81756250Y-267335000D03*
X75406250Y-269875000D03*
D19*
X84296250Y-272415000D03*
D16*
X79216250Y-272415000D03*
D19*
X74136250Y-272415000D03*
%TD*%
D18*
%TO.C,SW70*%
X253206250Y-267335000D03*
X246856250Y-269875000D03*
D19*
X255746250Y-272415000D03*
D16*
X250666250Y-272415000D03*
D19*
X245586250Y-272415000D03*
%TD*%
D18*
%TO.C,SW56*%
X215106250Y-267335000D03*
X208756250Y-269875000D03*
D19*
X217646250Y-272415000D03*
D16*
X212566250Y-272415000D03*
D19*
X207486250Y-272415000D03*
%TD*%
D14*
%TO.C,D55*%
X211931250Y-248443750D03*
D15*
X211931250Y-256063750D03*
%TD*%
D18*
%TO.C,SW50*%
X196056250Y-267335000D03*
X189706250Y-269875000D03*
D19*
X198596250Y-272415000D03*
D16*
X193516250Y-272415000D03*
D19*
X188436250Y-272415000D03*
%TD*%
D18*
%TO.C,SW26*%
X119856250Y-267335000D03*
X113506250Y-269875000D03*
D19*
X122396250Y-272415000D03*
D16*
X117316250Y-272415000D03*
D19*
X112236250Y-272415000D03*
%TD*%
D14*
%TO.C,D8*%
X69850000Y-267652500D03*
D15*
X69850000Y-275272500D03*
%TD*%
D18*
%TO.C,SW71*%
X257968750Y-286385000D03*
X251618750Y-288925000D03*
D19*
X260508750Y-291465000D03*
D16*
X255428750Y-291465000D03*
D19*
X250348750Y-291465000D03*
%TD*%
D14*
%TO.C,D67*%
X250031250Y-248602500D03*
D15*
X250031250Y-256222500D03*
%TD*%
D18*
%TO.C,SW34*%
X153193750Y-305435000D03*
X146843750Y-307975000D03*
D19*
X155733750Y-310515000D03*
D16*
X150653750Y-310515000D03*
D19*
X145573750Y-310515000D03*
%TD*%
D18*
%TO.C,SW4*%
X46037500Y-305435000D03*
X39687500Y-307975000D03*
D19*
X48577500Y-310515000D03*
D16*
X43497500Y-310515000D03*
D19*
X38417500Y-310515000D03*
%TD*%
D14*
%TO.C,A1*%
X385286250Y-238220000D03*
X385286250Y-240760000D03*
D24*
X385286250Y-243300000D03*
D14*
X385286250Y-245840000D03*
X385286250Y-248380000D03*
X385286250Y-250920000D03*
X385286250Y-253460000D03*
D24*
X385286250Y-256000000D03*
D14*
X385286250Y-258540000D03*
X385286250Y-261080000D03*
X385286250Y-263620000D03*
X385286250Y-266160000D03*
D24*
X385286250Y-268700000D03*
D14*
X385286250Y-271240000D03*
X385286250Y-273780000D03*
X385286250Y-276320000D03*
X385286250Y-278860000D03*
D24*
X385286250Y-281400000D03*
D14*
X385286250Y-283940000D03*
X385286250Y-286480000D03*
X367506250Y-286480000D03*
X367506250Y-283940000D03*
D25*
X367506250Y-281400000D03*
D14*
X367506250Y-278860000D03*
X367506250Y-276320000D03*
X367506250Y-273780000D03*
X367506250Y-271240000D03*
D25*
X367506250Y-268700000D03*
D14*
X367506250Y-266160000D03*
X367506250Y-263620000D03*
X367506250Y-261080000D03*
X367506250Y-258540000D03*
D25*
X367506250Y-256000000D03*
D14*
X367506250Y-253460000D03*
X367506250Y-250920000D03*
X367506250Y-248380000D03*
X367506250Y-245840000D03*
D25*
X367506250Y-243300000D03*
D14*
X367506250Y-240760000D03*
D26*
X367506250Y-238220000D03*
%TD*%
D14*
%TO.C,D16*%
X103187500Y-305752500D03*
D15*
X103187500Y-313372500D03*
%TD*%
D18*
%TO.C,SW30*%
X391530000Y-301307500D03*
X385180000Y-303847500D03*
D19*
X394070000Y-306387500D03*
D16*
X388990000Y-306387500D03*
D19*
X383910000Y-306387500D03*
%TD*%
D14*
%TO.C,D52*%
X217487500Y-305911250D03*
D15*
X217487500Y-313531250D03*
%TD*%
D18*
%TO.C,SW51*%
X200818750Y-286385000D03*
X194468750Y-288925000D03*
D19*
X203358750Y-291465000D03*
D16*
X198278750Y-291465000D03*
D19*
X193198750Y-291465000D03*
%TD*%
D18*
%TO.C,SW31*%
X128746250Y-248126250D03*
X122396250Y-250666250D03*
D19*
X131286250Y-253206250D03*
D16*
X126206250Y-253206250D03*
D19*
X121126250Y-253206250D03*
%TD*%
D16*
%TO.C,S2*%
X298292500Y-299750000D03*
D17*
X298292500Y-284510000D03*
D16*
X274480000Y-299750000D03*
D17*
X274480000Y-284510000D03*
%TD*%
D14*
%TO.C,D51*%
X207962500Y-287496250D03*
D15*
X207962500Y-295116250D03*
%TD*%
D14*
%TO.C,D10*%
X84137500Y-305752500D03*
D15*
X84137500Y-313372500D03*
%TD*%
D14*
%TO.C,D2*%
X46037500Y-267493750D03*
D15*
X46037500Y-275113750D03*
%TD*%
D18*
%TO.C,SW24*%
X350043750Y-281463750D03*
X343693750Y-284003750D03*
D19*
X352583750Y-286543750D03*
D16*
X347503750Y-286543750D03*
D19*
X342423750Y-286543750D03*
%TD*%
D14*
%TO.C,D58*%
X236537500Y-304958750D03*
D15*
X236537500Y-312578750D03*
%TD*%
D18*
%TO.C,SW60*%
X330993750Y-262413750D03*
X324643750Y-264953750D03*
D19*
X333533750Y-267493750D03*
D16*
X328453750Y-267493750D03*
D19*
X323373750Y-267493750D03*
%TD*%
D18*
%TO.C,SW25*%
X109696250Y-248126250D03*
X103346250Y-250666250D03*
D19*
X112236250Y-253206250D03*
D16*
X107156250Y-253206250D03*
D19*
X102076250Y-253206250D03*
%TD*%
D14*
%TO.C,D49*%
X192881250Y-248443750D03*
D15*
X192881250Y-256063750D03*
%TD*%
D14*
%TO.C,D31*%
X135731250Y-247967500D03*
D15*
X135731250Y-255587500D03*
%TD*%
D18*
%TO.C,SW62*%
X234156250Y-267335000D03*
X227806250Y-269875000D03*
D19*
X236696250Y-272415000D03*
D16*
X231616250Y-272415000D03*
D19*
X226536250Y-272415000D03*
%TD*%
D18*
%TO.C,SW42*%
X327025000Y-324485000D03*
X320675000Y-327025000D03*
D19*
X329565000Y-329565000D03*
D16*
X324485000Y-329565000D03*
D19*
X319405000Y-329565000D03*
%TD*%
D14*
%TO.C,D26*%
X127000000Y-267652500D03*
D15*
X127000000Y-275272500D03*
%TD*%
D18*
%TO.C,SW61*%
X223996250Y-248126250D03*
X217646250Y-250666250D03*
D19*
X226536250Y-253206250D03*
D16*
X221456250Y-253206250D03*
D19*
X216376250Y-253206250D03*
%TD*%
D18*
%TO.C,SW63*%
X238918750Y-286385000D03*
X232568750Y-288925000D03*
D19*
X241458750Y-291465000D03*
D16*
X236378750Y-291465000D03*
D19*
X231298750Y-291465000D03*
%TD*%
D18*
%TO.C,SW46*%
X191293750Y-305435000D03*
X184943750Y-307975000D03*
D19*
X193833750Y-310515000D03*
D16*
X188753750Y-310515000D03*
D19*
X183673750Y-310515000D03*
%TD*%
D14*
%TO.C,D23*%
X162718750Y-324802500D03*
D15*
X162718750Y-332422500D03*
%TD*%
D13*
%TO.C,H4*%
X19050000Y-342900000D03*
%TD*%
D18*
%TO.C,SW39*%
X162718750Y-286385000D03*
X156368750Y-288925000D03*
D19*
X165258750Y-291465000D03*
D16*
X160178750Y-291465000D03*
D19*
X155098750Y-291465000D03*
%TD*%
D14*
%TO.C,D36*%
X353218750Y-304958750D03*
D15*
X353218750Y-312578750D03*
%TD*%
D14*
%TO.C,D40*%
X179387500Y-305752500D03*
D15*
X179387500Y-313372500D03*
%TD*%
D18*
%TO.C,SW2*%
X38893750Y-267335000D03*
X32543750Y-269875000D03*
D19*
X41433750Y-272415000D03*
D16*
X36353750Y-272415000D03*
D19*
X31273750Y-272415000D03*
%TD*%
D18*
%TO.C,SW22*%
X115093750Y-305435000D03*
X108743750Y-307975000D03*
D19*
X117633750Y-310515000D03*
D16*
X112553750Y-310515000D03*
D19*
X107473750Y-310515000D03*
%TD*%
D18*
%TO.C,SW33*%
X143668750Y-286385000D03*
X137318750Y-288925000D03*
D19*
X146208750Y-291465000D03*
D16*
X141128750Y-291465000D03*
D19*
X136048750Y-291465000D03*
%TD*%
D14*
%TO.C,D24*%
X357187500Y-288925000D03*
D22*
X357187500Y-281305000D03*
%TD*%
D10*
%TO.C,SW68*%
X405606250Y-246856250D03*
X410606250Y-246856250D03*
D11*
X413706250Y-253856250D03*
X402506250Y-253856250D03*
D12*
X408106250Y-261356250D03*
D10*
X410606250Y-261356250D03*
X405606250Y-261356250D03*
%TD*%
D18*
%TO.C,SW73*%
X290512500Y-248285000D03*
X284162500Y-250825000D03*
D19*
X293052500Y-253365000D03*
D16*
X287972500Y-253365000D03*
D19*
X282892500Y-253365000D03*
%TD*%
D18*
%TO.C,SW44*%
X177006250Y-267335000D03*
X170656250Y-269875000D03*
D19*
X179546250Y-272415000D03*
D16*
X174466250Y-272415000D03*
D19*
X169386250Y-272415000D03*
%TD*%
D18*
%TO.C,SW41*%
X274637500Y-324485000D03*
X268287500Y-327025000D03*
D19*
X277177500Y-329565000D03*
D16*
X272097500Y-329565000D03*
D19*
X267017500Y-329565000D03*
%TD*%
D13*
%TO.C,H5*%
X315912500Y-254793750D03*
%TD*%
D18*
%TO.C,SW38*%
X157956250Y-267335000D03*
X151606250Y-269875000D03*
D19*
X160496250Y-272415000D03*
D16*
X155416250Y-272415000D03*
D19*
X150336250Y-272415000D03*
%TD*%
D14*
%TO.C,D17*%
X90487500Y-324802500D03*
D15*
X90487500Y-332422500D03*
%TD*%
D18*
%TO.C,SW1*%
X33496250Y-248126250D03*
X27146250Y-250666250D03*
D19*
X36036250Y-253206250D03*
D16*
X30956250Y-253206250D03*
D19*
X25876250Y-253206250D03*
%TD*%
D14*
%TO.C,D65*%
X303212500Y-267652500D03*
D15*
X303212500Y-275272500D03*
%TD*%
D18*
%TO.C,SW6*%
X262090000Y-248130000D03*
X255740000Y-250670000D03*
D19*
X264630000Y-253210000D03*
D16*
X259550000Y-253210000D03*
D19*
X254470000Y-253210000D03*
%TD*%
D27*
%TO.C,U1*%
X360400000Y-248285000D03*
X360400000Y-245745000D03*
X360400000Y-243205000D03*
D28*
X360400000Y-240665000D03*
%TD*%
D14*
%TO.C,D13*%
X78581250Y-247808750D03*
D15*
X78581250Y-255428750D03*
%TD*%
D18*
%TO.C,SW66*%
X350043750Y-262413750D03*
X343693750Y-264953750D03*
D19*
X352583750Y-267493750D03*
D16*
X347503750Y-267493750D03*
D19*
X342423750Y-267493750D03*
%TD*%
D14*
%TO.C,D69*%
X265112500Y-286543750D03*
D15*
X265112500Y-294163750D03*
%TD*%
D18*
%TO.C,SW29*%
X227012500Y-324485000D03*
X220662500Y-327025000D03*
D19*
X229552500Y-329565000D03*
D16*
X224472500Y-329565000D03*
D19*
X219392500Y-329565000D03*
%TD*%
D14*
%TO.C,D20*%
X107770000Y-267493750D03*
D15*
X107770000Y-275113750D03*
%TD*%
M02*
