%TF.GenerationSoftware,KiCad,Pcbnew,10.0.5*%
%TF.CreationDate,2026-09-25T22:25:23+05:30*%
%TF.ProjectId,The_Keyboard,5468655f-4b65-4796-926f-6172642e6b69,rev?*%
%TF.SameCoordinates,Original*%
%TF.FileFunction,Soldermask,Top*%
%TF.FilePolarity,Negative*%
%FSLAX46Y46*%
G04 Gerber Fmt 4.6, Leading zero omitted, Abs format (unit mm)*
G04 Created by KiCad (PCBNEW 10.0.5) date 2026-09-25 22:25:23*
%MOMM*%
%LPD*%
G01*
G04 APERTURE LIST*
G04 Aperture macros list*
%AMRoundRect*
0 Rectangle with rounded corners*
0 $1 Rounding radius*
0 $2 $3 $4 $5 $6 $7 $8 $9 X,Y pos of 4 corners*
0 Add a 4 corners polygon primitive as box body*
4,1,4,$2,$3,$4,$5,$6,$7,$8,$9,$2,$3,0*
0 Add four circle primitives for the rounded corners*
1,1,$1+$1,$2,$3*
1,1,$1+$1,$4,$5*
1,1,$1+$1,$6,$7*
1,1,$1+$1,$8,$9*
0 Add four rect primitives between the rounded corners*
20,1,$1+$1,$2,$3,$4,$5,0*
20,1,$1+$1,$4,$5,$6,$7,0*
20,1,$1+$1,$6,$7,$8,$9,0*
20,1,$1+$1,$8,$9,$2,$3,0*%
%AMFreePoly0*
4,1,37,0.000000,0.796148,0.078414,0.796148,0.232228,0.765552,0.377117,0.705537,0.507515,0.618408,0.618408,0.507515,0.705537,0.377117,0.765552,0.232228,0.796148,0.078414,0.796148,-0.078414,0.765552,-0.232228,0.705537,-0.377117,0.618408,-0.507515,0.507515,-0.618408,0.377117,-0.705537,0.232228,-0.765552,0.078414,-0.796148,0.000000,-0.796148,0.000000,-0.800000,-0.600000,-0.800000,
-0.603843,-0.796157,-0.639018,-0.796157,-0.711114,-0.766294,-0.766294,-0.711114,-0.796157,-0.639018,-0.796157,-0.603843,-0.800000,-0.600000,-0.800000,0.600000,-0.796157,0.603843,-0.796157,0.639018,-0.766294,0.711114,-0.711114,0.766294,-0.639018,0.796157,-0.603843,0.796157,-0.600000,0.800000,0.000000,0.800000,0.000000,0.796148,0.000000,0.796148,$1*%
%AMFreePoly1*
4,1,37,0.603843,0.796157,0.639018,0.796157,0.711114,0.766294,0.766294,0.711114,0.796157,0.639018,0.796157,0.603843,0.800000,0.600000,0.800000,-0.600000,0.796157,-0.603843,0.796157,-0.639018,0.766294,-0.711114,0.711114,-0.766294,0.639018,-0.796157,0.603843,-0.796157,0.600000,-0.800000,0.000000,-0.800000,0.000000,-0.796148,-0.078414,-0.796148,-0.232228,-0.765552,-0.377117,-0.705537,
-0.507515,-0.618408,-0.618408,-0.507515,-0.705537,-0.377117,-0.765552,-0.232228,-0.796148,-0.078414,-0.796148,0.078414,-0.765552,0.232228,-0.705537,0.377117,-0.618408,0.507515,-0.507515,0.618408,-0.377117,0.705537,-0.232228,0.765552,-0.078414,0.796148,0.000000,0.796148,0.000000,0.800000,0.600000,0.800000,0.603843,0.796157,0.603843,0.796157,$1*%
G04 Aperture macros list end*
%ADD10C,3.200000*%
%ADD11C,1.600000*%
%ADD12RoundRect,0.250000X0.550000X-0.550000X0.550000X0.550000X-0.550000X0.550000X-0.550000X-0.550000X0*%
%ADD13C,3.987800*%
%ADD14C,3.048000*%
%ADD15C,1.750000*%
%ADD16RoundRect,0.250000X-0.550000X-0.550000X0.550000X-0.550000X0.550000X0.550000X-0.550000X0.550000X0*%
%ADD17RoundRect,0.250000X-0.550000X0.550000X-0.550000X-0.550000X0.550000X-0.550000X0.550000X0.550000X0*%
%ADD18RoundRect,0.250000X0.550000X0.550000X-0.550000X0.550000X-0.550000X-0.550000X0.550000X-0.550000X0*%
%ADD19FreePoly0,0.000000*%
%ADD20FreePoly1,0.000000*%
%ADD21RoundRect,0.200000X-0.600000X-0.600000X0.600000X-0.600000X0.600000X0.600000X-0.600000X0.600000X0*%
%ADD22C,1.700000*%
%ADD23RoundRect,0.170000X-0.680000X0.680000X-0.680000X-0.680000X0.680000X-0.680000X0.680000X0.680000X0*%
G04 APERTURE END LIST*
D10*
%TO.C,H1*%
X17462500Y-241300000D03*
%TD*%
D11*
%TO.C,D6*%
X269081250Y-247808750D03*
D12*
X269081250Y-255428750D03*
%TD*%
D11*
%TO.C,D60*%
X338137500Y-262890000D03*
D12*
X338137500Y-270510000D03*
%TD*%
D13*
%TO.C,S1*%
X300032500Y-261470000D03*
D14*
X300032500Y-246230000D03*
D13*
X276220000Y-261470000D03*
D14*
X276220000Y-246230000D03*
%TD*%
D15*
%TO.C,SW69*%
X245586250Y-253206250D03*
D13*
X240506250Y-253206250D03*
D15*
X235426250Y-253206250D03*
%TD*%
D11*
%TO.C,D7*%
X59531250Y-247967500D03*
D12*
X59531250Y-255587500D03*
%TD*%
D11*
%TO.C,D56*%
X222250000Y-267493750D03*
D12*
X222250000Y-275113750D03*
%TD*%
D10*
%TO.C,H6*%
X409575000Y-342106250D03*
%TD*%
D15*
%TO.C,SW20*%
X103346250Y-272415000D03*
D13*
X98266250Y-272415000D03*
D15*
X93186250Y-272415000D03*
%TD*%
%TO.C,SW43*%
X169386250Y-253206250D03*
D13*
X164306250Y-253206250D03*
D15*
X159226250Y-253206250D03*
%TD*%
D11*
%TO.C,D30*%
X391318750Y-296862500D03*
D16*
X383698750Y-296862500D03*
%TD*%
D11*
%TO.C,D45*%
X188912500Y-286543750D03*
D12*
X188912500Y-294163750D03*
%TD*%
D15*
%TO.C,SW65*%
X298608750Y-272415000D03*
D13*
X293528750Y-272415000D03*
D15*
X288448750Y-272415000D03*
%TD*%
D11*
%TO.C,D66*%
X350678750Y-277018750D03*
D16*
X343058750Y-277018750D03*
%TD*%
D11*
%TO.C,D41*%
X281781250Y-324802500D03*
D12*
X281781250Y-332422500D03*
%TD*%
D13*
%TO.C,S4*%
X203041240Y-337820000D03*
X103028740Y-337820000D03*
%TD*%
D15*
%TO.C,SW37*%
X150336250Y-253206250D03*
D13*
X145256250Y-253206250D03*
D15*
X140176250Y-253206250D03*
%TD*%
%TO.C,SW3*%
X43815000Y-291465000D03*
D13*
X38735000Y-291465000D03*
D15*
X33655000Y-291465000D03*
%TD*%
%TO.C,SW35*%
X253365000Y-329565000D03*
D13*
X248285000Y-329565000D03*
D15*
X243205000Y-329565000D03*
%TD*%
%TO.C,SW16*%
X98583750Y-310515000D03*
D13*
X93503750Y-310515000D03*
D15*
X88423750Y-310515000D03*
%TD*%
%TO.C,SW13*%
X74136250Y-253206250D03*
D13*
X69056250Y-253206250D03*
D15*
X63976250Y-253206250D03*
%TD*%
D11*
%TO.C,D19*%
X97631250Y-248602500D03*
D12*
X97631250Y-256222500D03*
%TD*%
D11*
%TO.C,D4*%
X65087500Y-305593750D03*
D12*
X65087500Y-313213750D03*
%TD*%
D11*
%TO.C,D32*%
X146050000Y-267652500D03*
D12*
X146050000Y-275272500D03*
%TD*%
D15*
%TO.C,SW12*%
X274796250Y-272415000D03*
D13*
X269716250Y-272415000D03*
D15*
X264636250Y-272415000D03*
%TD*%
%TO.C,SW11*%
X62865000Y-329565000D03*
D13*
X57785000Y-329565000D03*
D15*
X52705000Y-329565000D03*
%TD*%
D10*
%TO.C,H3*%
X398462500Y-241300000D03*
%TD*%
D11*
%TO.C,D39*%
X169862500Y-286702500D03*
D12*
X169862500Y-294322500D03*
%TD*%
D11*
%TO.C,D62*%
X241300000Y-267493750D03*
D12*
X241300000Y-275113750D03*
%TD*%
D15*
%TO.C,SW47*%
X413158750Y-325596250D03*
D13*
X408078750Y-325596250D03*
D15*
X402998750Y-325596250D03*
%TD*%
D11*
%TO.C,D5*%
X43656250Y-324008750D03*
D12*
X43656250Y-331628750D03*
%TD*%
D11*
%TO.C,D29*%
X234156250Y-324802500D03*
D12*
X234156250Y-332422500D03*
%TD*%
D15*
%TO.C,SW17*%
X86677500Y-329565000D03*
D13*
X81597500Y-329565000D03*
D15*
X76517500Y-329565000D03*
%TD*%
%TO.C,SW10*%
X79533750Y-310515000D03*
D13*
X74453750Y-310515000D03*
D15*
X69373750Y-310515000D03*
%TD*%
D11*
%TO.C,D18*%
X391318750Y-315912500D03*
D16*
X383698750Y-315912500D03*
%TD*%
D15*
%TO.C,SW21*%
X108108750Y-291465000D03*
D13*
X103028750Y-291465000D03*
D15*
X97948750Y-291465000D03*
%TD*%
%TO.C,SW23*%
X158107210Y-329565000D03*
D13*
X153027210Y-329565000D03*
D15*
X147947210Y-329565000D03*
%TD*%
D11*
%TO.C,D42*%
X327025000Y-319881250D03*
D16*
X319405000Y-319881250D03*
%TD*%
D11*
%TO.C,D59*%
X307181250Y-287655000D03*
D12*
X307181250Y-295275000D03*
%TD*%
D15*
%TO.C,SW58*%
X231933750Y-310515000D03*
D13*
X226853750Y-310515000D03*
D15*
X221773750Y-310515000D03*
%TD*%
D11*
%TO.C,D57*%
X227012500Y-287496250D03*
D12*
X227012500Y-295116250D03*
%TD*%
D11*
%TO.C,D50*%
X203200000Y-267652500D03*
D12*
X203200000Y-275272500D03*
%TD*%
D15*
%TO.C,SW74*%
X333533750Y-286543750D03*
D13*
X328453750Y-286543750D03*
D15*
X323373750Y-286543750D03*
%TD*%
D11*
%TO.C,D9*%
X74612500Y-286543750D03*
D12*
X74612500Y-294163750D03*
%TD*%
D11*
%TO.C,D15*%
X93662500Y-286702500D03*
D12*
X93662500Y-294322500D03*
%TD*%
D15*
%TO.C,SW72*%
X413120000Y-306400000D03*
D13*
X408040000Y-306400000D03*
D15*
X402960000Y-306400000D03*
%TD*%
D11*
%TO.C,D22*%
X122237500Y-305752500D03*
D12*
X122237500Y-313372500D03*
%TD*%
D11*
%TO.C,D64*%
X255428750Y-305593750D03*
D12*
X255428750Y-313213750D03*
%TD*%
D11*
%TO.C,D12*%
X279400000Y-275431250D03*
D17*
X279400000Y-267811250D03*
%TD*%
D13*
%TO.C,S3*%
X55403750Y-318770000D03*
D14*
X55403750Y-303530000D03*
D13*
X31591250Y-318770000D03*
D14*
X31591250Y-303530000D03*
%TD*%
D11*
%TO.C,D27*%
X131762500Y-285908750D03*
D12*
X131762500Y-293528750D03*
%TD*%
D15*
%TO.C,SW52*%
X212883750Y-310515000D03*
D13*
X207803750Y-310515000D03*
D15*
X202723750Y-310515000D03*
%TD*%
%TO.C,SW9*%
X70008750Y-291465000D03*
D13*
X64928750Y-291465000D03*
D15*
X59848750Y-291465000D03*
%TD*%
D11*
%TO.C,D61*%
X230981250Y-248443750D03*
D12*
X230981250Y-256063750D03*
%TD*%
D11*
%TO.C,D54*%
X365760000Y-319881250D03*
D16*
X358140000Y-319881250D03*
%TD*%
D15*
%TO.C,SW45*%
X184308750Y-291465000D03*
D13*
X179228750Y-291465000D03*
D15*
X174148750Y-291465000D03*
%TD*%
D11*
%TO.C,D46*%
X198437500Y-306387500D03*
D12*
X198437500Y-314007500D03*
%TD*%
D11*
%TO.C,D25*%
X116681250Y-248443750D03*
D12*
X116681250Y-256063750D03*
%TD*%
D15*
%TO.C,SW8*%
X65246250Y-272415000D03*
D13*
X60166250Y-272415000D03*
D15*
X55086250Y-272415000D03*
%TD*%
D11*
%TO.C,D48*%
X342423750Y-319881250D03*
D18*
X350043750Y-319881250D03*
%TD*%
D15*
%TO.C,SW59*%
X291465000Y-291465000D03*
D13*
X286385000Y-291465000D03*
D15*
X281305000Y-291465000D03*
%TD*%
D11*
%TO.C,D38*%
X165100000Y-267493750D03*
D12*
X165100000Y-275113750D03*
%TD*%
D11*
%TO.C,D14*%
X88106250Y-267652500D03*
D12*
X88106250Y-275272500D03*
%TD*%
D15*
%TO.C,SW36*%
X348615000Y-310516250D03*
D13*
X343535000Y-310516250D03*
D15*
X338455000Y-310516250D03*
%TD*%
D11*
%TO.C,D44*%
X184150000Y-268446250D03*
D12*
X184150000Y-276066250D03*
%TD*%
D15*
%TO.C,SW48*%
X348615000Y-329565000D03*
D13*
X343535000Y-329565000D03*
D15*
X338455000Y-329565000D03*
%TD*%
D11*
%TO.C,D47*%
X411003750Y-315912500D03*
D16*
X403383750Y-315912500D03*
%TD*%
D11*
%TO.C,D3*%
X48418750Y-285908750D03*
D12*
X48418750Y-293528750D03*
%TD*%
D11*
%TO.C,D68*%
X260350000Y-267652500D03*
D12*
X260350000Y-275272500D03*
%TD*%
D15*
%TO.C,SW55*%
X207486250Y-253206250D03*
D13*
X202406250Y-253206250D03*
D15*
X197326250Y-253206250D03*
%TD*%
%TO.C,SW19*%
X93186250Y-253206250D03*
D13*
X88106250Y-253206250D03*
D15*
X83026250Y-253206250D03*
%TD*%
%TO.C,SW53*%
X286702500Y-310515000D03*
D13*
X281622500Y-310515000D03*
D15*
X276542500Y-310515000D03*
%TD*%
D11*
%TO.C,D71*%
X307181250Y-249237500D03*
D12*
X307181250Y-256857500D03*
%TD*%
D11*
%TO.C,D11*%
X67468750Y-324167500D03*
D12*
X67468750Y-331787500D03*
%TD*%
D11*
%TO.C,D72*%
X338137500Y-281781250D03*
D12*
X338137500Y-289401250D03*
%TD*%
D15*
%TO.C,SW15*%
X89058750Y-291465000D03*
D13*
X83978750Y-291465000D03*
D15*
X78898750Y-291465000D03*
%TD*%
D11*
%TO.C,D34*%
X160337500Y-305752500D03*
D12*
X160337500Y-313372500D03*
%TD*%
D15*
%TO.C,SW18*%
X394108750Y-325596250D03*
D13*
X389028750Y-325596250D03*
D15*
X383948750Y-325596250D03*
%TD*%
D13*
%TO.C,S5*%
X293522500Y-318770000D03*
D14*
X293522500Y-303530000D03*
D13*
X269710000Y-318770000D03*
D14*
X269710000Y-303530000D03*
%TD*%
D15*
%TO.C,SW32*%
X141446250Y-272415000D03*
D13*
X136366250Y-272415000D03*
D15*
X131286250Y-272415000D03*
%TD*%
D10*
%TO.C,H2*%
X298450000Y-334168750D03*
%TD*%
D15*
%TO.C,SW40*%
X174783750Y-310515000D03*
D13*
X169703750Y-310515000D03*
D15*
X164623750Y-310515000D03*
%TD*%
%TO.C,SW28*%
X136683750Y-310515000D03*
D13*
X131603750Y-310515000D03*
D15*
X126523750Y-310515000D03*
%TD*%
%TO.C,SW49*%
X188436250Y-253206250D03*
D13*
X183356250Y-253206250D03*
D15*
X178276250Y-253206250D03*
%TD*%
D11*
%TO.C,D37*%
X154781250Y-248602500D03*
D12*
X154781250Y-256222500D03*
%TD*%
D15*
%TO.C,SW5*%
X39052500Y-329565000D03*
D13*
X33972500Y-329565000D03*
D15*
X28892500Y-329565000D03*
%TD*%
D11*
%TO.C,D35*%
X257800000Y-324240000D03*
D12*
X257800000Y-331860000D03*
%TD*%
D15*
%TO.C,SW54*%
X367665000Y-329565000D03*
D13*
X362585000Y-329565000D03*
D15*
X357505000Y-329565000D03*
%TD*%
D11*
%TO.C,D53*%
X307975000Y-312578750D03*
D17*
X307975000Y-304958750D03*
%TD*%
D11*
%TO.C,D43*%
X173831250Y-248602500D03*
D12*
X173831250Y-256222500D03*
%TD*%
D15*
%TO.C,SW64*%
X250983750Y-310515000D03*
D13*
X245903750Y-310515000D03*
D15*
X240823750Y-310515000D03*
%TD*%
%TO.C,SW27*%
X127158750Y-291465000D03*
D13*
X122078750Y-291465000D03*
D15*
X116998750Y-291465000D03*
%TD*%
D11*
%TO.C,D21*%
X112712500Y-286702500D03*
D12*
X112712500Y-294322500D03*
%TD*%
D11*
%TO.C,D33*%
X150812500Y-286543750D03*
D12*
X150812500Y-294163750D03*
%TD*%
D15*
%TO.C,SW7*%
X55086250Y-253206250D03*
D13*
X50006250Y-253206250D03*
D15*
X44926250Y-253206250D03*
%TD*%
D11*
%TO.C,D28*%
X141287500Y-305752500D03*
D12*
X141287500Y-313372500D03*
%TD*%
D11*
%TO.C,D70*%
X410368750Y-296862500D03*
D16*
X402748750Y-296862500D03*
%TD*%
D11*
%TO.C,D1*%
X40481250Y-247808750D03*
D12*
X40481250Y-255428750D03*
%TD*%
D11*
%TO.C,D63*%
X246062500Y-286702500D03*
D12*
X246062500Y-294322500D03*
%TD*%
D15*
%TO.C,SW57*%
X222408750Y-291465000D03*
D13*
X217328750Y-291465000D03*
D15*
X212248750Y-291465000D03*
%TD*%
%TO.C,SW14*%
X84296250Y-272415000D03*
D13*
X79216250Y-272415000D03*
D15*
X74136250Y-272415000D03*
%TD*%
%TO.C,SW70*%
X255746250Y-272415000D03*
D13*
X250666250Y-272415000D03*
D15*
X245586250Y-272415000D03*
%TD*%
%TO.C,SW56*%
X217646250Y-272415000D03*
D13*
X212566250Y-272415000D03*
D15*
X207486250Y-272415000D03*
%TD*%
D11*
%TO.C,D55*%
X211931250Y-248443750D03*
D12*
X211931250Y-256063750D03*
%TD*%
D15*
%TO.C,SW50*%
X198596250Y-272415000D03*
D13*
X193516250Y-272415000D03*
D15*
X188436250Y-272415000D03*
%TD*%
%TO.C,SW26*%
X122396250Y-272415000D03*
D13*
X117316250Y-272415000D03*
D15*
X112236250Y-272415000D03*
%TD*%
D11*
%TO.C,D8*%
X69850000Y-267652500D03*
D12*
X69850000Y-275272500D03*
%TD*%
D15*
%TO.C,SW71*%
X260508750Y-291465000D03*
D13*
X255428750Y-291465000D03*
D15*
X250348750Y-291465000D03*
%TD*%
D11*
%TO.C,D67*%
X250031250Y-248602500D03*
D12*
X250031250Y-256222500D03*
%TD*%
D15*
%TO.C,SW34*%
X155733750Y-310515000D03*
D13*
X150653750Y-310515000D03*
D15*
X145573750Y-310515000D03*
%TD*%
%TO.C,SW4*%
X48577500Y-310515000D03*
D13*
X43497500Y-310515000D03*
D15*
X38417500Y-310515000D03*
%TD*%
D11*
%TO.C,A1*%
X385286250Y-238220000D03*
X385286250Y-240760000D03*
D19*
X385286250Y-243300000D03*
D11*
X385286250Y-245840000D03*
X385286250Y-248380000D03*
X385286250Y-250920000D03*
X385286250Y-253460000D03*
D19*
X385286250Y-256000000D03*
D11*
X385286250Y-258540000D03*
X385286250Y-261080000D03*
X385286250Y-263620000D03*
X385286250Y-266160000D03*
D19*
X385286250Y-268700000D03*
D11*
X385286250Y-271240000D03*
X385286250Y-273780000D03*
X385286250Y-276320000D03*
X385286250Y-278860000D03*
D19*
X385286250Y-281400000D03*
D11*
X385286250Y-283940000D03*
X385286250Y-286480000D03*
X367506250Y-286480000D03*
X367506250Y-283940000D03*
D20*
X367506250Y-281400000D03*
D11*
X367506250Y-278860000D03*
X367506250Y-276320000D03*
X367506250Y-273780000D03*
X367506250Y-271240000D03*
D20*
X367506250Y-268700000D03*
D11*
X367506250Y-266160000D03*
X367506250Y-263620000D03*
X367506250Y-261080000D03*
X367506250Y-258540000D03*
D20*
X367506250Y-256000000D03*
D11*
X367506250Y-253460000D03*
X367506250Y-250920000D03*
X367506250Y-248380000D03*
X367506250Y-245840000D03*
D20*
X367506250Y-243300000D03*
D11*
X367506250Y-240760000D03*
D21*
X367506250Y-238220000D03*
%TD*%
D11*
%TO.C,D16*%
X103187500Y-305752500D03*
D12*
X103187500Y-313372500D03*
%TD*%
D15*
%TO.C,SW30*%
X394070000Y-306387500D03*
D13*
X388990000Y-306387500D03*
D15*
X383910000Y-306387500D03*
%TD*%
D11*
%TO.C,D52*%
X217487500Y-305911250D03*
D12*
X217487500Y-313531250D03*
%TD*%
D15*
%TO.C,SW51*%
X203358750Y-291465000D03*
D13*
X198278750Y-291465000D03*
D15*
X193198750Y-291465000D03*
%TD*%
%TO.C,SW31*%
X131286250Y-253206250D03*
D13*
X126206250Y-253206250D03*
D15*
X121126250Y-253206250D03*
%TD*%
D13*
%TO.C,S2*%
X298292500Y-299750000D03*
D14*
X298292500Y-284510000D03*
D13*
X274480000Y-299750000D03*
D14*
X274480000Y-284510000D03*
%TD*%
D11*
%TO.C,D51*%
X207962500Y-287496250D03*
D12*
X207962500Y-295116250D03*
%TD*%
D11*
%TO.C,D10*%
X84137500Y-305752500D03*
D12*
X84137500Y-313372500D03*
%TD*%
D11*
%TO.C,D2*%
X46037500Y-267493750D03*
D12*
X46037500Y-275113750D03*
%TD*%
D15*
%TO.C,SW24*%
X352583750Y-286543750D03*
D13*
X347503750Y-286543750D03*
D15*
X342423750Y-286543750D03*
%TD*%
D11*
%TO.C,D58*%
X236537500Y-304958750D03*
D12*
X236537500Y-312578750D03*
%TD*%
D15*
%TO.C,SW60*%
X333533750Y-267493750D03*
D13*
X328453750Y-267493750D03*
D15*
X323373750Y-267493750D03*
%TD*%
%TO.C,SW25*%
X112236250Y-253206250D03*
D13*
X107156250Y-253206250D03*
D15*
X102076250Y-253206250D03*
%TD*%
D11*
%TO.C,D49*%
X192881250Y-248443750D03*
D12*
X192881250Y-256063750D03*
%TD*%
D11*
%TO.C,D31*%
X135731250Y-247967500D03*
D12*
X135731250Y-255587500D03*
%TD*%
D15*
%TO.C,SW62*%
X236696250Y-272415000D03*
D13*
X231616250Y-272415000D03*
D15*
X226536250Y-272415000D03*
%TD*%
%TO.C,SW42*%
X329565000Y-329565000D03*
D13*
X324485000Y-329565000D03*
D15*
X319405000Y-329565000D03*
%TD*%
D11*
%TO.C,D26*%
X127000000Y-267652500D03*
D12*
X127000000Y-275272500D03*
%TD*%
D15*
%TO.C,SW61*%
X226536250Y-253206250D03*
D13*
X221456250Y-253206250D03*
D15*
X216376250Y-253206250D03*
%TD*%
%TO.C,SW63*%
X241458750Y-291465000D03*
D13*
X236378750Y-291465000D03*
D15*
X231298750Y-291465000D03*
%TD*%
%TO.C,SW46*%
X193833750Y-310515000D03*
D13*
X188753750Y-310515000D03*
D15*
X183673750Y-310515000D03*
%TD*%
D11*
%TO.C,D23*%
X162718750Y-324802500D03*
D12*
X162718750Y-332422500D03*
%TD*%
D10*
%TO.C,H4*%
X19050000Y-342900000D03*
%TD*%
D15*
%TO.C,SW39*%
X165258750Y-291465000D03*
D13*
X160178750Y-291465000D03*
D15*
X155098750Y-291465000D03*
%TD*%
D11*
%TO.C,D36*%
X353218750Y-304958750D03*
D12*
X353218750Y-312578750D03*
%TD*%
D11*
%TO.C,D40*%
X179387500Y-305752500D03*
D12*
X179387500Y-313372500D03*
%TD*%
D15*
%TO.C,SW2*%
X41433750Y-272415000D03*
D13*
X36353750Y-272415000D03*
D15*
X31273750Y-272415000D03*
%TD*%
%TO.C,SW22*%
X117633750Y-310515000D03*
D13*
X112553750Y-310515000D03*
D15*
X107473750Y-310515000D03*
%TD*%
%TO.C,SW33*%
X146208750Y-291465000D03*
D13*
X141128750Y-291465000D03*
D15*
X136048750Y-291465000D03*
%TD*%
D11*
%TO.C,D24*%
X357187500Y-288925000D03*
D17*
X357187500Y-281305000D03*
%TD*%
D15*
%TO.C,SW73*%
X293052500Y-253365000D03*
D13*
X287972500Y-253365000D03*
D15*
X282892500Y-253365000D03*
%TD*%
%TO.C,SW44*%
X179546250Y-272415000D03*
D13*
X174466250Y-272415000D03*
D15*
X169386250Y-272415000D03*
%TD*%
%TO.C,SW41*%
X277177500Y-329565000D03*
D13*
X272097500Y-329565000D03*
D15*
X267017500Y-329565000D03*
%TD*%
D10*
%TO.C,H5*%
X315912500Y-254793750D03*
%TD*%
D15*
%TO.C,SW38*%
X160496250Y-272415000D03*
D13*
X155416250Y-272415000D03*
D15*
X150336250Y-272415000D03*
%TD*%
D11*
%TO.C,D17*%
X90487500Y-324802500D03*
D12*
X90487500Y-332422500D03*
%TD*%
D15*
%TO.C,SW1*%
X36036250Y-253206250D03*
D13*
X30956250Y-253206250D03*
D15*
X25876250Y-253206250D03*
%TD*%
D11*
%TO.C,D65*%
X303212500Y-267652500D03*
D12*
X303212500Y-275272500D03*
%TD*%
D15*
%TO.C,SW6*%
X264630000Y-253210000D03*
D13*
X259550000Y-253210000D03*
D15*
X254470000Y-253210000D03*
%TD*%
D22*
%TO.C,U1*%
X360400000Y-248285000D03*
X360400000Y-245745000D03*
X360400000Y-243205000D03*
D23*
X360400000Y-240665000D03*
%TD*%
D11*
%TO.C,D13*%
X78581250Y-247808750D03*
D12*
X78581250Y-255428750D03*
%TD*%
D15*
%TO.C,SW66*%
X352583750Y-267493750D03*
D13*
X347503750Y-267493750D03*
D15*
X342423750Y-267493750D03*
%TD*%
D11*
%TO.C,D69*%
X265112500Y-286543750D03*
D12*
X265112500Y-294163750D03*
%TD*%
D15*
%TO.C,SW29*%
X229552500Y-329565000D03*
D13*
X224472500Y-329565000D03*
D15*
X219392500Y-329565000D03*
%TD*%
D11*
%TO.C,D20*%
X107770000Y-267493750D03*
D12*
X107770000Y-275113750D03*
%TD*%
M02*
