%TF.GenerationSoftware,KiCad,Pcbnew,10.0.5*%
%TF.CreationDate,2026-09-25T22:25:23+05:30*%
%TF.ProjectId,The_Keyboard,5468655f-4b65-4796-926f-6172642e6b69,rev?*%
%TF.SameCoordinates,Original*%
%TF.FileFunction,Legend,Top*%
%TF.FilePolarity,Positive*%
%FSLAX46Y46*%
G04 Gerber Fmt 4.6, Leading zero omitted, Abs format (unit mm)*
G04 Created by KiCad (PCBNEW 10.0.5) date 2026-09-25 22:25:23*
%MOMM*%
%LPD*%
G01*
G04 APERTURE LIST*
%ADD10C,0.150000*%
%ADD11C,0.120000*%
G04 APERTURE END LIST*
D10*
X411927976Y-267250950D02*
X412070833Y-267298569D01*
X412070833Y-267298569D02*
X412308928Y-267298569D01*
X412308928Y-267298569D02*
X412404166Y-267250950D01*
X412404166Y-267250950D02*
X412451785Y-267203330D01*
X412451785Y-267203330D02*
X412499404Y-267108092D01*
X412499404Y-267108092D02*
X412499404Y-267012854D01*
X412499404Y-267012854D02*
X412451785Y-266917616D01*
X412451785Y-266917616D02*
X412404166Y-266869997D01*
X412404166Y-266869997D02*
X412308928Y-266822378D01*
X412308928Y-266822378D02*
X412118452Y-266774759D01*
X412118452Y-266774759D02*
X412023214Y-266727140D01*
X412023214Y-266727140D02*
X411975595Y-266679521D01*
X411975595Y-266679521D02*
X411927976Y-266584283D01*
X411927976Y-266584283D02*
X411927976Y-266489045D01*
X411927976Y-266489045D02*
X411975595Y-266393807D01*
X411975595Y-266393807D02*
X412023214Y-266346188D01*
X412023214Y-266346188D02*
X412118452Y-266298569D01*
X412118452Y-266298569D02*
X412356547Y-266298569D01*
X412356547Y-266298569D02*
X412499404Y-266346188D01*
X412832738Y-266298569D02*
X413070833Y-267298569D01*
X413070833Y-267298569D02*
X413261309Y-266584283D01*
X413261309Y-266584283D02*
X413451785Y-267298569D01*
X413451785Y-267298569D02*
X413689881Y-266298569D01*
X414499404Y-266298569D02*
X414308928Y-266298569D01*
X414308928Y-266298569D02*
X414213690Y-266346188D01*
X414213690Y-266346188D02*
X414166071Y-266393807D01*
X414166071Y-266393807D02*
X414070833Y-266536664D01*
X414070833Y-266536664D02*
X414023214Y-266727140D01*
X414023214Y-266727140D02*
X414023214Y-267108092D01*
X414023214Y-267108092D02*
X414070833Y-267203330D01*
X414070833Y-267203330D02*
X414118452Y-267250950D01*
X414118452Y-267250950D02*
X414213690Y-267298569D01*
X414213690Y-267298569D02*
X414404166Y-267298569D01*
X414404166Y-267298569D02*
X414499404Y-267250950D01*
X414499404Y-267250950D02*
X414547023Y-267203330D01*
X414547023Y-267203330D02*
X414594642Y-267108092D01*
X414594642Y-267108092D02*
X414594642Y-266869997D01*
X414594642Y-266869997D02*
X414547023Y-266774759D01*
X414547023Y-266774759D02*
X414499404Y-266727140D01*
X414499404Y-266727140D02*
X414404166Y-266679521D01*
X414404166Y-266679521D02*
X414213690Y-266679521D01*
X414213690Y-266679521D02*
X414118452Y-266727140D01*
X414118452Y-266727140D02*
X414070833Y-266774759D01*
X414070833Y-266774759D02*
X414023214Y-266869997D01*
X414927976Y-266298569D02*
X415594642Y-266298569D01*
X415594642Y-266298569D02*
X415166071Y-267298569D01*
X21463095Y-240167319D02*
X21463095Y-239167319D01*
X21463095Y-239643509D02*
X22034523Y-239643509D01*
X22034523Y-240167319D02*
X22034523Y-239167319D01*
X23034523Y-240167319D02*
X22463095Y-240167319D01*
X22748809Y-240167319D02*
X22748809Y-239167319D01*
X22748809Y-239167319D02*
X22653571Y-239310176D01*
X22653571Y-239310176D02*
X22558333Y-239405414D01*
X22558333Y-239405414D02*
X22463095Y-239453033D01*
X267416069Y-252356844D02*
X266416069Y-252356844D01*
X266416069Y-252356844D02*
X266416069Y-252118749D01*
X266416069Y-252118749D02*
X266463688Y-251975892D01*
X266463688Y-251975892D02*
X266558926Y-251880654D01*
X266558926Y-251880654D02*
X266654164Y-251833035D01*
X266654164Y-251833035D02*
X266844640Y-251785416D01*
X266844640Y-251785416D02*
X266987497Y-251785416D01*
X266987497Y-251785416D02*
X267177973Y-251833035D01*
X267177973Y-251833035D02*
X267273211Y-251880654D01*
X267273211Y-251880654D02*
X267368450Y-251975892D01*
X267368450Y-251975892D02*
X267416069Y-252118749D01*
X267416069Y-252118749D02*
X267416069Y-252356844D01*
X266416069Y-250928273D02*
X266416069Y-251118749D01*
X266416069Y-251118749D02*
X266463688Y-251213987D01*
X266463688Y-251213987D02*
X266511307Y-251261606D01*
X266511307Y-251261606D02*
X266654164Y-251356844D01*
X266654164Y-251356844D02*
X266844640Y-251404463D01*
X266844640Y-251404463D02*
X267225592Y-251404463D01*
X267225592Y-251404463D02*
X267320830Y-251356844D01*
X267320830Y-251356844D02*
X267368450Y-251309225D01*
X267368450Y-251309225D02*
X267416069Y-251213987D01*
X267416069Y-251213987D02*
X267416069Y-251023511D01*
X267416069Y-251023511D02*
X267368450Y-250928273D01*
X267368450Y-250928273D02*
X267320830Y-250880654D01*
X267320830Y-250880654D02*
X267225592Y-250833035D01*
X267225592Y-250833035D02*
X266987497Y-250833035D01*
X266987497Y-250833035D02*
X266892259Y-250880654D01*
X266892259Y-250880654D02*
X266844640Y-250928273D01*
X266844640Y-250928273D02*
X266797021Y-251023511D01*
X266797021Y-251023511D02*
X266797021Y-251213987D01*
X266797021Y-251213987D02*
X266844640Y-251309225D01*
X266844640Y-251309225D02*
X266892259Y-251356844D01*
X266892259Y-251356844D02*
X266987497Y-251404463D01*
X267736069Y-255690654D02*
X266736069Y-255690654D01*
X267736069Y-255119226D02*
X267164640Y-255547797D01*
X266736069Y-255119226D02*
X267307497Y-255690654D01*
X336472319Y-267914285D02*
X335472319Y-267914285D01*
X335472319Y-267914285D02*
X335472319Y-267676190D01*
X335472319Y-267676190D02*
X335519938Y-267533333D01*
X335519938Y-267533333D02*
X335615176Y-267438095D01*
X335615176Y-267438095D02*
X335710414Y-267390476D01*
X335710414Y-267390476D02*
X335900890Y-267342857D01*
X335900890Y-267342857D02*
X336043747Y-267342857D01*
X336043747Y-267342857D02*
X336234223Y-267390476D01*
X336234223Y-267390476D02*
X336329461Y-267438095D01*
X336329461Y-267438095D02*
X336424700Y-267533333D01*
X336424700Y-267533333D02*
X336472319Y-267676190D01*
X336472319Y-267676190D02*
X336472319Y-267914285D01*
X335472319Y-266485714D02*
X335472319Y-266676190D01*
X335472319Y-266676190D02*
X335519938Y-266771428D01*
X335519938Y-266771428D02*
X335567557Y-266819047D01*
X335567557Y-266819047D02*
X335710414Y-266914285D01*
X335710414Y-266914285D02*
X335900890Y-266961904D01*
X335900890Y-266961904D02*
X336281842Y-266961904D01*
X336281842Y-266961904D02*
X336377080Y-266914285D01*
X336377080Y-266914285D02*
X336424700Y-266866666D01*
X336424700Y-266866666D02*
X336472319Y-266771428D01*
X336472319Y-266771428D02*
X336472319Y-266580952D01*
X336472319Y-266580952D02*
X336424700Y-266485714D01*
X336424700Y-266485714D02*
X336377080Y-266438095D01*
X336377080Y-266438095D02*
X336281842Y-266390476D01*
X336281842Y-266390476D02*
X336043747Y-266390476D01*
X336043747Y-266390476D02*
X335948509Y-266438095D01*
X335948509Y-266438095D02*
X335900890Y-266485714D01*
X335900890Y-266485714D02*
X335853271Y-266580952D01*
X335853271Y-266580952D02*
X335853271Y-266771428D01*
X335853271Y-266771428D02*
X335900890Y-266866666D01*
X335900890Y-266866666D02*
X335948509Y-266914285D01*
X335948509Y-266914285D02*
X336043747Y-266961904D01*
X335472319Y-265771428D02*
X335472319Y-265676190D01*
X335472319Y-265676190D02*
X335519938Y-265580952D01*
X335519938Y-265580952D02*
X335567557Y-265533333D01*
X335567557Y-265533333D02*
X335662795Y-265485714D01*
X335662795Y-265485714D02*
X335853271Y-265438095D01*
X335853271Y-265438095D02*
X336091366Y-265438095D01*
X336091366Y-265438095D02*
X336281842Y-265485714D01*
X336281842Y-265485714D02*
X336377080Y-265533333D01*
X336377080Y-265533333D02*
X336424700Y-265580952D01*
X336424700Y-265580952D02*
X336472319Y-265676190D01*
X336472319Y-265676190D02*
X336472319Y-265771428D01*
X336472319Y-265771428D02*
X336424700Y-265866666D01*
X336424700Y-265866666D02*
X336377080Y-265914285D01*
X336377080Y-265914285D02*
X336281842Y-265961904D01*
X336281842Y-265961904D02*
X336091366Y-266009523D01*
X336091366Y-266009523D02*
X335853271Y-266009523D01*
X335853271Y-266009523D02*
X335662795Y-265961904D01*
X335662795Y-265961904D02*
X335567557Y-265914285D01*
X335567557Y-265914285D02*
X335519938Y-265866666D01*
X335519938Y-265866666D02*
X335472319Y-265771428D01*
X336792319Y-270771904D02*
X335792319Y-270771904D01*
X336792319Y-270200476D02*
X336220890Y-270629047D01*
X335792319Y-270200476D02*
X336363747Y-270771904D01*
X57866069Y-252515594D02*
X56866069Y-252515594D01*
X56866069Y-252515594D02*
X56866069Y-252277499D01*
X56866069Y-252277499D02*
X56913688Y-252134642D01*
X56913688Y-252134642D02*
X57008926Y-252039404D01*
X57008926Y-252039404D02*
X57104164Y-251991785D01*
X57104164Y-251991785D02*
X57294640Y-251944166D01*
X57294640Y-251944166D02*
X57437497Y-251944166D01*
X57437497Y-251944166D02*
X57627973Y-251991785D01*
X57627973Y-251991785D02*
X57723211Y-252039404D01*
X57723211Y-252039404D02*
X57818450Y-252134642D01*
X57818450Y-252134642D02*
X57866069Y-252277499D01*
X57866069Y-252277499D02*
X57866069Y-252515594D01*
X56866069Y-251610832D02*
X56866069Y-250944166D01*
X56866069Y-250944166D02*
X57866069Y-251372737D01*
X58186069Y-255849404D02*
X57186069Y-255849404D01*
X58186069Y-255277976D02*
X57614640Y-255706547D01*
X57186069Y-255277976D02*
X57757497Y-255849404D01*
X220584819Y-272518035D02*
X219584819Y-272518035D01*
X219584819Y-272518035D02*
X219584819Y-272279940D01*
X219584819Y-272279940D02*
X219632438Y-272137083D01*
X219632438Y-272137083D02*
X219727676Y-272041845D01*
X219727676Y-272041845D02*
X219822914Y-271994226D01*
X219822914Y-271994226D02*
X220013390Y-271946607D01*
X220013390Y-271946607D02*
X220156247Y-271946607D01*
X220156247Y-271946607D02*
X220346723Y-271994226D01*
X220346723Y-271994226D02*
X220441961Y-272041845D01*
X220441961Y-272041845D02*
X220537200Y-272137083D01*
X220537200Y-272137083D02*
X220584819Y-272279940D01*
X220584819Y-272279940D02*
X220584819Y-272518035D01*
X219584819Y-271041845D02*
X219584819Y-271518035D01*
X219584819Y-271518035D02*
X220061009Y-271565654D01*
X220061009Y-271565654D02*
X220013390Y-271518035D01*
X220013390Y-271518035D02*
X219965771Y-271422797D01*
X219965771Y-271422797D02*
X219965771Y-271184702D01*
X219965771Y-271184702D02*
X220013390Y-271089464D01*
X220013390Y-271089464D02*
X220061009Y-271041845D01*
X220061009Y-271041845D02*
X220156247Y-270994226D01*
X220156247Y-270994226D02*
X220394342Y-270994226D01*
X220394342Y-270994226D02*
X220489580Y-271041845D01*
X220489580Y-271041845D02*
X220537200Y-271089464D01*
X220537200Y-271089464D02*
X220584819Y-271184702D01*
X220584819Y-271184702D02*
X220584819Y-271422797D01*
X220584819Y-271422797D02*
X220537200Y-271518035D01*
X220537200Y-271518035D02*
X220489580Y-271565654D01*
X219584819Y-270137083D02*
X219584819Y-270327559D01*
X219584819Y-270327559D02*
X219632438Y-270422797D01*
X219632438Y-270422797D02*
X219680057Y-270470416D01*
X219680057Y-270470416D02*
X219822914Y-270565654D01*
X219822914Y-270565654D02*
X220013390Y-270613273D01*
X220013390Y-270613273D02*
X220394342Y-270613273D01*
X220394342Y-270613273D02*
X220489580Y-270565654D01*
X220489580Y-270565654D02*
X220537200Y-270518035D01*
X220537200Y-270518035D02*
X220584819Y-270422797D01*
X220584819Y-270422797D02*
X220584819Y-270232321D01*
X220584819Y-270232321D02*
X220537200Y-270137083D01*
X220537200Y-270137083D02*
X220489580Y-270089464D01*
X220489580Y-270089464D02*
X220394342Y-270041845D01*
X220394342Y-270041845D02*
X220156247Y-270041845D01*
X220156247Y-270041845D02*
X220061009Y-270089464D01*
X220061009Y-270089464D02*
X220013390Y-270137083D01*
X220013390Y-270137083D02*
X219965771Y-270232321D01*
X219965771Y-270232321D02*
X219965771Y-270422797D01*
X219965771Y-270422797D02*
X220013390Y-270518035D01*
X220013390Y-270518035D02*
X220061009Y-270565654D01*
X220061009Y-270565654D02*
X220156247Y-270613273D01*
X220904819Y-275375654D02*
X219904819Y-275375654D01*
X220904819Y-274804226D02*
X220333390Y-275232797D01*
X219904819Y-274804226D02*
X220476247Y-275375654D01*
X408813095Y-338411069D02*
X408813095Y-337411069D01*
X408813095Y-337887259D02*
X409384523Y-337887259D01*
X409384523Y-338411069D02*
X409384523Y-337411069D01*
X410289285Y-337411069D02*
X410098809Y-337411069D01*
X410098809Y-337411069D02*
X410003571Y-337458688D01*
X410003571Y-337458688D02*
X409955952Y-337506307D01*
X409955952Y-337506307D02*
X409860714Y-337649164D01*
X409860714Y-337649164D02*
X409813095Y-337839640D01*
X409813095Y-337839640D02*
X409813095Y-338220592D01*
X409813095Y-338220592D02*
X409860714Y-338315830D01*
X409860714Y-338315830D02*
X409908333Y-338363450D01*
X409908333Y-338363450D02*
X410003571Y-338411069D01*
X410003571Y-338411069D02*
X410194047Y-338411069D01*
X410194047Y-338411069D02*
X410289285Y-338363450D01*
X410289285Y-338363450D02*
X410336904Y-338315830D01*
X410336904Y-338315830D02*
X410384523Y-338220592D01*
X410384523Y-338220592D02*
X410384523Y-337982497D01*
X410384523Y-337982497D02*
X410336904Y-337887259D01*
X410336904Y-337887259D02*
X410289285Y-337839640D01*
X410289285Y-337839640D02*
X410194047Y-337792021D01*
X410194047Y-337792021D02*
X410003571Y-337792021D01*
X410003571Y-337792021D02*
X409908333Y-337839640D01*
X409908333Y-337839640D02*
X409860714Y-337887259D01*
X409860714Y-337887259D02*
X409813095Y-337982497D01*
X386294464Y-295197319D02*
X386294464Y-294197319D01*
X386294464Y-294197319D02*
X386532559Y-294197319D01*
X386532559Y-294197319D02*
X386675416Y-294244938D01*
X386675416Y-294244938D02*
X386770654Y-294340176D01*
X386770654Y-294340176D02*
X386818273Y-294435414D01*
X386818273Y-294435414D02*
X386865892Y-294625890D01*
X386865892Y-294625890D02*
X386865892Y-294768747D01*
X386865892Y-294768747D02*
X386818273Y-294959223D01*
X386818273Y-294959223D02*
X386770654Y-295054461D01*
X386770654Y-295054461D02*
X386675416Y-295149700D01*
X386675416Y-295149700D02*
X386532559Y-295197319D01*
X386532559Y-295197319D02*
X386294464Y-295197319D01*
X387199226Y-294197319D02*
X387818273Y-294197319D01*
X387818273Y-294197319D02*
X387484940Y-294578271D01*
X387484940Y-294578271D02*
X387627797Y-294578271D01*
X387627797Y-294578271D02*
X387723035Y-294625890D01*
X387723035Y-294625890D02*
X387770654Y-294673509D01*
X387770654Y-294673509D02*
X387818273Y-294768747D01*
X387818273Y-294768747D02*
X387818273Y-295006842D01*
X387818273Y-295006842D02*
X387770654Y-295102080D01*
X387770654Y-295102080D02*
X387723035Y-295149700D01*
X387723035Y-295149700D02*
X387627797Y-295197319D01*
X387627797Y-295197319D02*
X387342083Y-295197319D01*
X387342083Y-295197319D02*
X387246845Y-295149700D01*
X387246845Y-295149700D02*
X387199226Y-295102080D01*
X388437321Y-294197319D02*
X388532559Y-294197319D01*
X388532559Y-294197319D02*
X388627797Y-294244938D01*
X388627797Y-294244938D02*
X388675416Y-294292557D01*
X388675416Y-294292557D02*
X388723035Y-294387795D01*
X388723035Y-294387795D02*
X388770654Y-294578271D01*
X388770654Y-294578271D02*
X388770654Y-294816366D01*
X388770654Y-294816366D02*
X388723035Y-295006842D01*
X388723035Y-295006842D02*
X388675416Y-295102080D01*
X388675416Y-295102080D02*
X388627797Y-295149700D01*
X388627797Y-295149700D02*
X388532559Y-295197319D01*
X388532559Y-295197319D02*
X388437321Y-295197319D01*
X388437321Y-295197319D02*
X388342083Y-295149700D01*
X388342083Y-295149700D02*
X388294464Y-295102080D01*
X388294464Y-295102080D02*
X388246845Y-295006842D01*
X388246845Y-295006842D02*
X388199226Y-294816366D01*
X388199226Y-294816366D02*
X388199226Y-294578271D01*
X388199226Y-294578271D02*
X388246845Y-294387795D01*
X388246845Y-294387795D02*
X388294464Y-294292557D01*
X388294464Y-294292557D02*
X388342083Y-294244938D01*
X388342083Y-294244938D02*
X388437321Y-294197319D01*
X383436845Y-295517319D02*
X383436845Y-294517319D01*
X384008273Y-295517319D02*
X383579702Y-294945890D01*
X384008273Y-294517319D02*
X383436845Y-295088747D01*
X187247319Y-291568035D02*
X186247319Y-291568035D01*
X186247319Y-291568035D02*
X186247319Y-291329940D01*
X186247319Y-291329940D02*
X186294938Y-291187083D01*
X186294938Y-291187083D02*
X186390176Y-291091845D01*
X186390176Y-291091845D02*
X186485414Y-291044226D01*
X186485414Y-291044226D02*
X186675890Y-290996607D01*
X186675890Y-290996607D02*
X186818747Y-290996607D01*
X186818747Y-290996607D02*
X187009223Y-291044226D01*
X187009223Y-291044226D02*
X187104461Y-291091845D01*
X187104461Y-291091845D02*
X187199700Y-291187083D01*
X187199700Y-291187083D02*
X187247319Y-291329940D01*
X187247319Y-291329940D02*
X187247319Y-291568035D01*
X186580652Y-290139464D02*
X187247319Y-290139464D01*
X186199700Y-290377559D02*
X186913985Y-290615654D01*
X186913985Y-290615654D02*
X186913985Y-289996607D01*
X186247319Y-289139464D02*
X186247319Y-289615654D01*
X186247319Y-289615654D02*
X186723509Y-289663273D01*
X186723509Y-289663273D02*
X186675890Y-289615654D01*
X186675890Y-289615654D02*
X186628271Y-289520416D01*
X186628271Y-289520416D02*
X186628271Y-289282321D01*
X186628271Y-289282321D02*
X186675890Y-289187083D01*
X186675890Y-289187083D02*
X186723509Y-289139464D01*
X186723509Y-289139464D02*
X186818747Y-289091845D01*
X186818747Y-289091845D02*
X187056842Y-289091845D01*
X187056842Y-289091845D02*
X187152080Y-289139464D01*
X187152080Y-289139464D02*
X187199700Y-289187083D01*
X187199700Y-289187083D02*
X187247319Y-289282321D01*
X187247319Y-289282321D02*
X187247319Y-289520416D01*
X187247319Y-289520416D02*
X187199700Y-289615654D01*
X187199700Y-289615654D02*
X187152080Y-289663273D01*
X187567319Y-294425654D02*
X186567319Y-294425654D01*
X187567319Y-293854226D02*
X186995890Y-294282797D01*
X186567319Y-293854226D02*
X187138747Y-294425654D01*
X345654464Y-275353569D02*
X345654464Y-274353569D01*
X345654464Y-274353569D02*
X345892559Y-274353569D01*
X345892559Y-274353569D02*
X346035416Y-274401188D01*
X346035416Y-274401188D02*
X346130654Y-274496426D01*
X346130654Y-274496426D02*
X346178273Y-274591664D01*
X346178273Y-274591664D02*
X346225892Y-274782140D01*
X346225892Y-274782140D02*
X346225892Y-274924997D01*
X346225892Y-274924997D02*
X346178273Y-275115473D01*
X346178273Y-275115473D02*
X346130654Y-275210711D01*
X346130654Y-275210711D02*
X346035416Y-275305950D01*
X346035416Y-275305950D02*
X345892559Y-275353569D01*
X345892559Y-275353569D02*
X345654464Y-275353569D01*
X347083035Y-274353569D02*
X346892559Y-274353569D01*
X346892559Y-274353569D02*
X346797321Y-274401188D01*
X346797321Y-274401188D02*
X346749702Y-274448807D01*
X346749702Y-274448807D02*
X346654464Y-274591664D01*
X346654464Y-274591664D02*
X346606845Y-274782140D01*
X346606845Y-274782140D02*
X346606845Y-275163092D01*
X346606845Y-275163092D02*
X346654464Y-275258330D01*
X346654464Y-275258330D02*
X346702083Y-275305950D01*
X346702083Y-275305950D02*
X346797321Y-275353569D01*
X346797321Y-275353569D02*
X346987797Y-275353569D01*
X346987797Y-275353569D02*
X347083035Y-275305950D01*
X347083035Y-275305950D02*
X347130654Y-275258330D01*
X347130654Y-275258330D02*
X347178273Y-275163092D01*
X347178273Y-275163092D02*
X347178273Y-274924997D01*
X347178273Y-274924997D02*
X347130654Y-274829759D01*
X347130654Y-274829759D02*
X347083035Y-274782140D01*
X347083035Y-274782140D02*
X346987797Y-274734521D01*
X346987797Y-274734521D02*
X346797321Y-274734521D01*
X346797321Y-274734521D02*
X346702083Y-274782140D01*
X346702083Y-274782140D02*
X346654464Y-274829759D01*
X346654464Y-274829759D02*
X346606845Y-274924997D01*
X348035416Y-274353569D02*
X347844940Y-274353569D01*
X347844940Y-274353569D02*
X347749702Y-274401188D01*
X347749702Y-274401188D02*
X347702083Y-274448807D01*
X347702083Y-274448807D02*
X347606845Y-274591664D01*
X347606845Y-274591664D02*
X347559226Y-274782140D01*
X347559226Y-274782140D02*
X347559226Y-275163092D01*
X347559226Y-275163092D02*
X347606845Y-275258330D01*
X347606845Y-275258330D02*
X347654464Y-275305950D01*
X347654464Y-275305950D02*
X347749702Y-275353569D01*
X347749702Y-275353569D02*
X347940178Y-275353569D01*
X347940178Y-275353569D02*
X348035416Y-275305950D01*
X348035416Y-275305950D02*
X348083035Y-275258330D01*
X348083035Y-275258330D02*
X348130654Y-275163092D01*
X348130654Y-275163092D02*
X348130654Y-274924997D01*
X348130654Y-274924997D02*
X348083035Y-274829759D01*
X348083035Y-274829759D02*
X348035416Y-274782140D01*
X348035416Y-274782140D02*
X347940178Y-274734521D01*
X347940178Y-274734521D02*
X347749702Y-274734521D01*
X347749702Y-274734521D02*
X347654464Y-274782140D01*
X347654464Y-274782140D02*
X347606845Y-274829759D01*
X347606845Y-274829759D02*
X347559226Y-274924997D01*
X342796845Y-275673569D02*
X342796845Y-274673569D01*
X343368273Y-275673569D02*
X342939702Y-275102140D01*
X343368273Y-274673569D02*
X342796845Y-275244997D01*
X280116069Y-329826785D02*
X279116069Y-329826785D01*
X279116069Y-329826785D02*
X279116069Y-329588690D01*
X279116069Y-329588690D02*
X279163688Y-329445833D01*
X279163688Y-329445833D02*
X279258926Y-329350595D01*
X279258926Y-329350595D02*
X279354164Y-329302976D01*
X279354164Y-329302976D02*
X279544640Y-329255357D01*
X279544640Y-329255357D02*
X279687497Y-329255357D01*
X279687497Y-329255357D02*
X279877973Y-329302976D01*
X279877973Y-329302976D02*
X279973211Y-329350595D01*
X279973211Y-329350595D02*
X280068450Y-329445833D01*
X280068450Y-329445833D02*
X280116069Y-329588690D01*
X280116069Y-329588690D02*
X280116069Y-329826785D01*
X279449402Y-328398214D02*
X280116069Y-328398214D01*
X279068450Y-328636309D02*
X279782735Y-328874404D01*
X279782735Y-328874404D02*
X279782735Y-328255357D01*
X280116069Y-327350595D02*
X280116069Y-327922023D01*
X280116069Y-327636309D02*
X279116069Y-327636309D01*
X279116069Y-327636309D02*
X279258926Y-327731547D01*
X279258926Y-327731547D02*
X279354164Y-327826785D01*
X279354164Y-327826785D02*
X279401783Y-327922023D01*
X280436069Y-332684404D02*
X279436069Y-332684404D01*
X280436069Y-332112976D02*
X279864640Y-332541547D01*
X279436069Y-332112976D02*
X280007497Y-332684404D01*
X95966069Y-253626785D02*
X94966069Y-253626785D01*
X94966069Y-253626785D02*
X94966069Y-253388690D01*
X94966069Y-253388690D02*
X95013688Y-253245833D01*
X95013688Y-253245833D02*
X95108926Y-253150595D01*
X95108926Y-253150595D02*
X95204164Y-253102976D01*
X95204164Y-253102976D02*
X95394640Y-253055357D01*
X95394640Y-253055357D02*
X95537497Y-253055357D01*
X95537497Y-253055357D02*
X95727973Y-253102976D01*
X95727973Y-253102976D02*
X95823211Y-253150595D01*
X95823211Y-253150595D02*
X95918450Y-253245833D01*
X95918450Y-253245833D02*
X95966069Y-253388690D01*
X95966069Y-253388690D02*
X95966069Y-253626785D01*
X95966069Y-252102976D02*
X95966069Y-252674404D01*
X95966069Y-252388690D02*
X94966069Y-252388690D01*
X94966069Y-252388690D02*
X95108926Y-252483928D01*
X95108926Y-252483928D02*
X95204164Y-252579166D01*
X95204164Y-252579166D02*
X95251783Y-252674404D01*
X95966069Y-251626785D02*
X95966069Y-251436309D01*
X95966069Y-251436309D02*
X95918450Y-251341071D01*
X95918450Y-251341071D02*
X95870830Y-251293452D01*
X95870830Y-251293452D02*
X95727973Y-251198214D01*
X95727973Y-251198214D02*
X95537497Y-251150595D01*
X95537497Y-251150595D02*
X95156545Y-251150595D01*
X95156545Y-251150595D02*
X95061307Y-251198214D01*
X95061307Y-251198214D02*
X95013688Y-251245833D01*
X95013688Y-251245833D02*
X94966069Y-251341071D01*
X94966069Y-251341071D02*
X94966069Y-251531547D01*
X94966069Y-251531547D02*
X95013688Y-251626785D01*
X95013688Y-251626785D02*
X95061307Y-251674404D01*
X95061307Y-251674404D02*
X95156545Y-251722023D01*
X95156545Y-251722023D02*
X95394640Y-251722023D01*
X95394640Y-251722023D02*
X95489878Y-251674404D01*
X95489878Y-251674404D02*
X95537497Y-251626785D01*
X95537497Y-251626785D02*
X95585116Y-251531547D01*
X95585116Y-251531547D02*
X95585116Y-251341071D01*
X95585116Y-251341071D02*
X95537497Y-251245833D01*
X95537497Y-251245833D02*
X95489878Y-251198214D01*
X95489878Y-251198214D02*
X95394640Y-251150595D01*
X96286069Y-256484404D02*
X95286069Y-256484404D01*
X96286069Y-255912976D02*
X95714640Y-256341547D01*
X95286069Y-255912976D02*
X95857497Y-256484404D01*
X63422319Y-310141844D02*
X62422319Y-310141844D01*
X62422319Y-310141844D02*
X62422319Y-309903749D01*
X62422319Y-309903749D02*
X62469938Y-309760892D01*
X62469938Y-309760892D02*
X62565176Y-309665654D01*
X62565176Y-309665654D02*
X62660414Y-309618035D01*
X62660414Y-309618035D02*
X62850890Y-309570416D01*
X62850890Y-309570416D02*
X62993747Y-309570416D01*
X62993747Y-309570416D02*
X63184223Y-309618035D01*
X63184223Y-309618035D02*
X63279461Y-309665654D01*
X63279461Y-309665654D02*
X63374700Y-309760892D01*
X63374700Y-309760892D02*
X63422319Y-309903749D01*
X63422319Y-309903749D02*
X63422319Y-310141844D01*
X62755652Y-308713273D02*
X63422319Y-308713273D01*
X62374700Y-308951368D02*
X63088985Y-309189463D01*
X63088985Y-309189463D02*
X63088985Y-308570416D01*
X63742319Y-313475654D02*
X62742319Y-313475654D01*
X63742319Y-312904226D02*
X63170890Y-313332797D01*
X62742319Y-312904226D02*
X63313747Y-313475654D01*
X144384819Y-272676785D02*
X143384819Y-272676785D01*
X143384819Y-272676785D02*
X143384819Y-272438690D01*
X143384819Y-272438690D02*
X143432438Y-272295833D01*
X143432438Y-272295833D02*
X143527676Y-272200595D01*
X143527676Y-272200595D02*
X143622914Y-272152976D01*
X143622914Y-272152976D02*
X143813390Y-272105357D01*
X143813390Y-272105357D02*
X143956247Y-272105357D01*
X143956247Y-272105357D02*
X144146723Y-272152976D01*
X144146723Y-272152976D02*
X144241961Y-272200595D01*
X144241961Y-272200595D02*
X144337200Y-272295833D01*
X144337200Y-272295833D02*
X144384819Y-272438690D01*
X144384819Y-272438690D02*
X144384819Y-272676785D01*
X143384819Y-271772023D02*
X143384819Y-271152976D01*
X143384819Y-271152976D02*
X143765771Y-271486309D01*
X143765771Y-271486309D02*
X143765771Y-271343452D01*
X143765771Y-271343452D02*
X143813390Y-271248214D01*
X143813390Y-271248214D02*
X143861009Y-271200595D01*
X143861009Y-271200595D02*
X143956247Y-271152976D01*
X143956247Y-271152976D02*
X144194342Y-271152976D01*
X144194342Y-271152976D02*
X144289580Y-271200595D01*
X144289580Y-271200595D02*
X144337200Y-271248214D01*
X144337200Y-271248214D02*
X144384819Y-271343452D01*
X144384819Y-271343452D02*
X144384819Y-271629166D01*
X144384819Y-271629166D02*
X144337200Y-271724404D01*
X144337200Y-271724404D02*
X144289580Y-271772023D01*
X143480057Y-270772023D02*
X143432438Y-270724404D01*
X143432438Y-270724404D02*
X143384819Y-270629166D01*
X143384819Y-270629166D02*
X143384819Y-270391071D01*
X143384819Y-270391071D02*
X143432438Y-270295833D01*
X143432438Y-270295833D02*
X143480057Y-270248214D01*
X143480057Y-270248214D02*
X143575295Y-270200595D01*
X143575295Y-270200595D02*
X143670533Y-270200595D01*
X143670533Y-270200595D02*
X143813390Y-270248214D01*
X143813390Y-270248214D02*
X144384819Y-270819642D01*
X144384819Y-270819642D02*
X144384819Y-270200595D01*
X144704819Y-275534404D02*
X143704819Y-275534404D01*
X144704819Y-274962976D02*
X144133390Y-275391547D01*
X143704819Y-274962976D02*
X144276247Y-275534404D01*
X392938095Y-239373569D02*
X392938095Y-238373569D01*
X392938095Y-238849759D02*
X393509523Y-238849759D01*
X393509523Y-239373569D02*
X393509523Y-238373569D01*
X393890476Y-238373569D02*
X394509523Y-238373569D01*
X394509523Y-238373569D02*
X394176190Y-238754521D01*
X394176190Y-238754521D02*
X394319047Y-238754521D01*
X394319047Y-238754521D02*
X394414285Y-238802140D01*
X394414285Y-238802140D02*
X394461904Y-238849759D01*
X394461904Y-238849759D02*
X394509523Y-238944997D01*
X394509523Y-238944997D02*
X394509523Y-239183092D01*
X394509523Y-239183092D02*
X394461904Y-239278330D01*
X394461904Y-239278330D02*
X394414285Y-239325950D01*
X394414285Y-239325950D02*
X394319047Y-239373569D01*
X394319047Y-239373569D02*
X394033333Y-239373569D01*
X394033333Y-239373569D02*
X393938095Y-239325950D01*
X393938095Y-239325950D02*
X393890476Y-239278330D01*
X168197319Y-291726785D02*
X167197319Y-291726785D01*
X167197319Y-291726785D02*
X167197319Y-291488690D01*
X167197319Y-291488690D02*
X167244938Y-291345833D01*
X167244938Y-291345833D02*
X167340176Y-291250595D01*
X167340176Y-291250595D02*
X167435414Y-291202976D01*
X167435414Y-291202976D02*
X167625890Y-291155357D01*
X167625890Y-291155357D02*
X167768747Y-291155357D01*
X167768747Y-291155357D02*
X167959223Y-291202976D01*
X167959223Y-291202976D02*
X168054461Y-291250595D01*
X168054461Y-291250595D02*
X168149700Y-291345833D01*
X168149700Y-291345833D02*
X168197319Y-291488690D01*
X168197319Y-291488690D02*
X168197319Y-291726785D01*
X167197319Y-290822023D02*
X167197319Y-290202976D01*
X167197319Y-290202976D02*
X167578271Y-290536309D01*
X167578271Y-290536309D02*
X167578271Y-290393452D01*
X167578271Y-290393452D02*
X167625890Y-290298214D01*
X167625890Y-290298214D02*
X167673509Y-290250595D01*
X167673509Y-290250595D02*
X167768747Y-290202976D01*
X167768747Y-290202976D02*
X168006842Y-290202976D01*
X168006842Y-290202976D02*
X168102080Y-290250595D01*
X168102080Y-290250595D02*
X168149700Y-290298214D01*
X168149700Y-290298214D02*
X168197319Y-290393452D01*
X168197319Y-290393452D02*
X168197319Y-290679166D01*
X168197319Y-290679166D02*
X168149700Y-290774404D01*
X168149700Y-290774404D02*
X168102080Y-290822023D01*
X168197319Y-289726785D02*
X168197319Y-289536309D01*
X168197319Y-289536309D02*
X168149700Y-289441071D01*
X168149700Y-289441071D02*
X168102080Y-289393452D01*
X168102080Y-289393452D02*
X167959223Y-289298214D01*
X167959223Y-289298214D02*
X167768747Y-289250595D01*
X167768747Y-289250595D02*
X167387795Y-289250595D01*
X167387795Y-289250595D02*
X167292557Y-289298214D01*
X167292557Y-289298214D02*
X167244938Y-289345833D01*
X167244938Y-289345833D02*
X167197319Y-289441071D01*
X167197319Y-289441071D02*
X167197319Y-289631547D01*
X167197319Y-289631547D02*
X167244938Y-289726785D01*
X167244938Y-289726785D02*
X167292557Y-289774404D01*
X167292557Y-289774404D02*
X167387795Y-289822023D01*
X167387795Y-289822023D02*
X167625890Y-289822023D01*
X167625890Y-289822023D02*
X167721128Y-289774404D01*
X167721128Y-289774404D02*
X167768747Y-289726785D01*
X167768747Y-289726785D02*
X167816366Y-289631547D01*
X167816366Y-289631547D02*
X167816366Y-289441071D01*
X167816366Y-289441071D02*
X167768747Y-289345833D01*
X167768747Y-289345833D02*
X167721128Y-289298214D01*
X167721128Y-289298214D02*
X167625890Y-289250595D01*
X168517319Y-294584404D02*
X167517319Y-294584404D01*
X168517319Y-294012976D02*
X167945890Y-294441547D01*
X167517319Y-294012976D02*
X168088747Y-294584404D01*
X239634819Y-272518035D02*
X238634819Y-272518035D01*
X238634819Y-272518035D02*
X238634819Y-272279940D01*
X238634819Y-272279940D02*
X238682438Y-272137083D01*
X238682438Y-272137083D02*
X238777676Y-272041845D01*
X238777676Y-272041845D02*
X238872914Y-271994226D01*
X238872914Y-271994226D02*
X239063390Y-271946607D01*
X239063390Y-271946607D02*
X239206247Y-271946607D01*
X239206247Y-271946607D02*
X239396723Y-271994226D01*
X239396723Y-271994226D02*
X239491961Y-272041845D01*
X239491961Y-272041845D02*
X239587200Y-272137083D01*
X239587200Y-272137083D02*
X239634819Y-272279940D01*
X239634819Y-272279940D02*
X239634819Y-272518035D01*
X238634819Y-271089464D02*
X238634819Y-271279940D01*
X238634819Y-271279940D02*
X238682438Y-271375178D01*
X238682438Y-271375178D02*
X238730057Y-271422797D01*
X238730057Y-271422797D02*
X238872914Y-271518035D01*
X238872914Y-271518035D02*
X239063390Y-271565654D01*
X239063390Y-271565654D02*
X239444342Y-271565654D01*
X239444342Y-271565654D02*
X239539580Y-271518035D01*
X239539580Y-271518035D02*
X239587200Y-271470416D01*
X239587200Y-271470416D02*
X239634819Y-271375178D01*
X239634819Y-271375178D02*
X239634819Y-271184702D01*
X239634819Y-271184702D02*
X239587200Y-271089464D01*
X239587200Y-271089464D02*
X239539580Y-271041845D01*
X239539580Y-271041845D02*
X239444342Y-270994226D01*
X239444342Y-270994226D02*
X239206247Y-270994226D01*
X239206247Y-270994226D02*
X239111009Y-271041845D01*
X239111009Y-271041845D02*
X239063390Y-271089464D01*
X239063390Y-271089464D02*
X239015771Y-271184702D01*
X239015771Y-271184702D02*
X239015771Y-271375178D01*
X239015771Y-271375178D02*
X239063390Y-271470416D01*
X239063390Y-271470416D02*
X239111009Y-271518035D01*
X239111009Y-271518035D02*
X239206247Y-271565654D01*
X238730057Y-270613273D02*
X238682438Y-270565654D01*
X238682438Y-270565654D02*
X238634819Y-270470416D01*
X238634819Y-270470416D02*
X238634819Y-270232321D01*
X238634819Y-270232321D02*
X238682438Y-270137083D01*
X238682438Y-270137083D02*
X238730057Y-270089464D01*
X238730057Y-270089464D02*
X238825295Y-270041845D01*
X238825295Y-270041845D02*
X238920533Y-270041845D01*
X238920533Y-270041845D02*
X239063390Y-270089464D01*
X239063390Y-270089464D02*
X239634819Y-270660892D01*
X239634819Y-270660892D02*
X239634819Y-270041845D01*
X239954819Y-275375654D02*
X238954819Y-275375654D01*
X239954819Y-274804226D02*
X239383390Y-275232797D01*
X238954819Y-274804226D02*
X239526247Y-275375654D01*
X41991069Y-328556844D02*
X40991069Y-328556844D01*
X40991069Y-328556844D02*
X40991069Y-328318749D01*
X40991069Y-328318749D02*
X41038688Y-328175892D01*
X41038688Y-328175892D02*
X41133926Y-328080654D01*
X41133926Y-328080654D02*
X41229164Y-328033035D01*
X41229164Y-328033035D02*
X41419640Y-327985416D01*
X41419640Y-327985416D02*
X41562497Y-327985416D01*
X41562497Y-327985416D02*
X41752973Y-328033035D01*
X41752973Y-328033035D02*
X41848211Y-328080654D01*
X41848211Y-328080654D02*
X41943450Y-328175892D01*
X41943450Y-328175892D02*
X41991069Y-328318749D01*
X41991069Y-328318749D02*
X41991069Y-328556844D01*
X40991069Y-327080654D02*
X40991069Y-327556844D01*
X40991069Y-327556844D02*
X41467259Y-327604463D01*
X41467259Y-327604463D02*
X41419640Y-327556844D01*
X41419640Y-327556844D02*
X41372021Y-327461606D01*
X41372021Y-327461606D02*
X41372021Y-327223511D01*
X41372021Y-327223511D02*
X41419640Y-327128273D01*
X41419640Y-327128273D02*
X41467259Y-327080654D01*
X41467259Y-327080654D02*
X41562497Y-327033035D01*
X41562497Y-327033035D02*
X41800592Y-327033035D01*
X41800592Y-327033035D02*
X41895830Y-327080654D01*
X41895830Y-327080654D02*
X41943450Y-327128273D01*
X41943450Y-327128273D02*
X41991069Y-327223511D01*
X41991069Y-327223511D02*
X41991069Y-327461606D01*
X41991069Y-327461606D02*
X41943450Y-327556844D01*
X41943450Y-327556844D02*
X41895830Y-327604463D01*
X42311069Y-331890654D02*
X41311069Y-331890654D01*
X42311069Y-331319226D02*
X41739640Y-331747797D01*
X41311069Y-331319226D02*
X41882497Y-331890654D01*
X232491069Y-329826785D02*
X231491069Y-329826785D01*
X231491069Y-329826785D02*
X231491069Y-329588690D01*
X231491069Y-329588690D02*
X231538688Y-329445833D01*
X231538688Y-329445833D02*
X231633926Y-329350595D01*
X231633926Y-329350595D02*
X231729164Y-329302976D01*
X231729164Y-329302976D02*
X231919640Y-329255357D01*
X231919640Y-329255357D02*
X232062497Y-329255357D01*
X232062497Y-329255357D02*
X232252973Y-329302976D01*
X232252973Y-329302976D02*
X232348211Y-329350595D01*
X232348211Y-329350595D02*
X232443450Y-329445833D01*
X232443450Y-329445833D02*
X232491069Y-329588690D01*
X232491069Y-329588690D02*
X232491069Y-329826785D01*
X231586307Y-328874404D02*
X231538688Y-328826785D01*
X231538688Y-328826785D02*
X231491069Y-328731547D01*
X231491069Y-328731547D02*
X231491069Y-328493452D01*
X231491069Y-328493452D02*
X231538688Y-328398214D01*
X231538688Y-328398214D02*
X231586307Y-328350595D01*
X231586307Y-328350595D02*
X231681545Y-328302976D01*
X231681545Y-328302976D02*
X231776783Y-328302976D01*
X231776783Y-328302976D02*
X231919640Y-328350595D01*
X231919640Y-328350595D02*
X232491069Y-328922023D01*
X232491069Y-328922023D02*
X232491069Y-328302976D01*
X232491069Y-327826785D02*
X232491069Y-327636309D01*
X232491069Y-327636309D02*
X232443450Y-327541071D01*
X232443450Y-327541071D02*
X232395830Y-327493452D01*
X232395830Y-327493452D02*
X232252973Y-327398214D01*
X232252973Y-327398214D02*
X232062497Y-327350595D01*
X232062497Y-327350595D02*
X231681545Y-327350595D01*
X231681545Y-327350595D02*
X231586307Y-327398214D01*
X231586307Y-327398214D02*
X231538688Y-327445833D01*
X231538688Y-327445833D02*
X231491069Y-327541071D01*
X231491069Y-327541071D02*
X231491069Y-327731547D01*
X231491069Y-327731547D02*
X231538688Y-327826785D01*
X231538688Y-327826785D02*
X231586307Y-327874404D01*
X231586307Y-327874404D02*
X231681545Y-327922023D01*
X231681545Y-327922023D02*
X231919640Y-327922023D01*
X231919640Y-327922023D02*
X232014878Y-327874404D01*
X232014878Y-327874404D02*
X232062497Y-327826785D01*
X232062497Y-327826785D02*
X232110116Y-327731547D01*
X232110116Y-327731547D02*
X232110116Y-327541071D01*
X232110116Y-327541071D02*
X232062497Y-327445833D01*
X232062497Y-327445833D02*
X232014878Y-327398214D01*
X232014878Y-327398214D02*
X231919640Y-327350595D01*
X232811069Y-332684404D02*
X231811069Y-332684404D01*
X232811069Y-332112976D02*
X232239640Y-332541547D01*
X231811069Y-332112976D02*
X232382497Y-332684404D01*
X386294464Y-314247319D02*
X386294464Y-313247319D01*
X386294464Y-313247319D02*
X386532559Y-313247319D01*
X386532559Y-313247319D02*
X386675416Y-313294938D01*
X386675416Y-313294938D02*
X386770654Y-313390176D01*
X386770654Y-313390176D02*
X386818273Y-313485414D01*
X386818273Y-313485414D02*
X386865892Y-313675890D01*
X386865892Y-313675890D02*
X386865892Y-313818747D01*
X386865892Y-313818747D02*
X386818273Y-314009223D01*
X386818273Y-314009223D02*
X386770654Y-314104461D01*
X386770654Y-314104461D02*
X386675416Y-314199700D01*
X386675416Y-314199700D02*
X386532559Y-314247319D01*
X386532559Y-314247319D02*
X386294464Y-314247319D01*
X387818273Y-314247319D02*
X387246845Y-314247319D01*
X387532559Y-314247319D02*
X387532559Y-313247319D01*
X387532559Y-313247319D02*
X387437321Y-313390176D01*
X387437321Y-313390176D02*
X387342083Y-313485414D01*
X387342083Y-313485414D02*
X387246845Y-313533033D01*
X388389702Y-313675890D02*
X388294464Y-313628271D01*
X388294464Y-313628271D02*
X388246845Y-313580652D01*
X388246845Y-313580652D02*
X388199226Y-313485414D01*
X388199226Y-313485414D02*
X388199226Y-313437795D01*
X388199226Y-313437795D02*
X388246845Y-313342557D01*
X388246845Y-313342557D02*
X388294464Y-313294938D01*
X388294464Y-313294938D02*
X388389702Y-313247319D01*
X388389702Y-313247319D02*
X388580178Y-313247319D01*
X388580178Y-313247319D02*
X388675416Y-313294938D01*
X388675416Y-313294938D02*
X388723035Y-313342557D01*
X388723035Y-313342557D02*
X388770654Y-313437795D01*
X388770654Y-313437795D02*
X388770654Y-313485414D01*
X388770654Y-313485414D02*
X388723035Y-313580652D01*
X388723035Y-313580652D02*
X388675416Y-313628271D01*
X388675416Y-313628271D02*
X388580178Y-313675890D01*
X388580178Y-313675890D02*
X388389702Y-313675890D01*
X388389702Y-313675890D02*
X388294464Y-313723509D01*
X388294464Y-313723509D02*
X388246845Y-313771128D01*
X388246845Y-313771128D02*
X388199226Y-313866366D01*
X388199226Y-313866366D02*
X388199226Y-314056842D01*
X388199226Y-314056842D02*
X388246845Y-314152080D01*
X388246845Y-314152080D02*
X388294464Y-314199700D01*
X388294464Y-314199700D02*
X388389702Y-314247319D01*
X388389702Y-314247319D02*
X388580178Y-314247319D01*
X388580178Y-314247319D02*
X388675416Y-314199700D01*
X388675416Y-314199700D02*
X388723035Y-314152080D01*
X388723035Y-314152080D02*
X388770654Y-314056842D01*
X388770654Y-314056842D02*
X388770654Y-313866366D01*
X388770654Y-313866366D02*
X388723035Y-313771128D01*
X388723035Y-313771128D02*
X388675416Y-313723509D01*
X388675416Y-313723509D02*
X388580178Y-313675890D01*
X383436845Y-314567319D02*
X383436845Y-313567319D01*
X384008273Y-314567319D02*
X383579702Y-313995890D01*
X384008273Y-313567319D02*
X383436845Y-314138747D01*
X322000714Y-318216069D02*
X322000714Y-317216069D01*
X322000714Y-317216069D02*
X322238809Y-317216069D01*
X322238809Y-317216069D02*
X322381666Y-317263688D01*
X322381666Y-317263688D02*
X322476904Y-317358926D01*
X322476904Y-317358926D02*
X322524523Y-317454164D01*
X322524523Y-317454164D02*
X322572142Y-317644640D01*
X322572142Y-317644640D02*
X322572142Y-317787497D01*
X322572142Y-317787497D02*
X322524523Y-317977973D01*
X322524523Y-317977973D02*
X322476904Y-318073211D01*
X322476904Y-318073211D02*
X322381666Y-318168450D01*
X322381666Y-318168450D02*
X322238809Y-318216069D01*
X322238809Y-318216069D02*
X322000714Y-318216069D01*
X323429285Y-317549402D02*
X323429285Y-318216069D01*
X323191190Y-317168450D02*
X322953095Y-317882735D01*
X322953095Y-317882735D02*
X323572142Y-317882735D01*
X323905476Y-317311307D02*
X323953095Y-317263688D01*
X323953095Y-317263688D02*
X324048333Y-317216069D01*
X324048333Y-317216069D02*
X324286428Y-317216069D01*
X324286428Y-317216069D02*
X324381666Y-317263688D01*
X324381666Y-317263688D02*
X324429285Y-317311307D01*
X324429285Y-317311307D02*
X324476904Y-317406545D01*
X324476904Y-317406545D02*
X324476904Y-317501783D01*
X324476904Y-317501783D02*
X324429285Y-317644640D01*
X324429285Y-317644640D02*
X323857857Y-318216069D01*
X323857857Y-318216069D02*
X324476904Y-318216069D01*
X319143095Y-318536069D02*
X319143095Y-317536069D01*
X319714523Y-318536069D02*
X319285952Y-317964640D01*
X319714523Y-317536069D02*
X319143095Y-318107497D01*
X305516069Y-292679285D02*
X304516069Y-292679285D01*
X304516069Y-292679285D02*
X304516069Y-292441190D01*
X304516069Y-292441190D02*
X304563688Y-292298333D01*
X304563688Y-292298333D02*
X304658926Y-292203095D01*
X304658926Y-292203095D02*
X304754164Y-292155476D01*
X304754164Y-292155476D02*
X304944640Y-292107857D01*
X304944640Y-292107857D02*
X305087497Y-292107857D01*
X305087497Y-292107857D02*
X305277973Y-292155476D01*
X305277973Y-292155476D02*
X305373211Y-292203095D01*
X305373211Y-292203095D02*
X305468450Y-292298333D01*
X305468450Y-292298333D02*
X305516069Y-292441190D01*
X305516069Y-292441190D02*
X305516069Y-292679285D01*
X304516069Y-291203095D02*
X304516069Y-291679285D01*
X304516069Y-291679285D02*
X304992259Y-291726904D01*
X304992259Y-291726904D02*
X304944640Y-291679285D01*
X304944640Y-291679285D02*
X304897021Y-291584047D01*
X304897021Y-291584047D02*
X304897021Y-291345952D01*
X304897021Y-291345952D02*
X304944640Y-291250714D01*
X304944640Y-291250714D02*
X304992259Y-291203095D01*
X304992259Y-291203095D02*
X305087497Y-291155476D01*
X305087497Y-291155476D02*
X305325592Y-291155476D01*
X305325592Y-291155476D02*
X305420830Y-291203095D01*
X305420830Y-291203095D02*
X305468450Y-291250714D01*
X305468450Y-291250714D02*
X305516069Y-291345952D01*
X305516069Y-291345952D02*
X305516069Y-291584047D01*
X305516069Y-291584047D02*
X305468450Y-291679285D01*
X305468450Y-291679285D02*
X305420830Y-291726904D01*
X305516069Y-290679285D02*
X305516069Y-290488809D01*
X305516069Y-290488809D02*
X305468450Y-290393571D01*
X305468450Y-290393571D02*
X305420830Y-290345952D01*
X305420830Y-290345952D02*
X305277973Y-290250714D01*
X305277973Y-290250714D02*
X305087497Y-290203095D01*
X305087497Y-290203095D02*
X304706545Y-290203095D01*
X304706545Y-290203095D02*
X304611307Y-290250714D01*
X304611307Y-290250714D02*
X304563688Y-290298333D01*
X304563688Y-290298333D02*
X304516069Y-290393571D01*
X304516069Y-290393571D02*
X304516069Y-290584047D01*
X304516069Y-290584047D02*
X304563688Y-290679285D01*
X304563688Y-290679285D02*
X304611307Y-290726904D01*
X304611307Y-290726904D02*
X304706545Y-290774523D01*
X304706545Y-290774523D02*
X304944640Y-290774523D01*
X304944640Y-290774523D02*
X305039878Y-290726904D01*
X305039878Y-290726904D02*
X305087497Y-290679285D01*
X305087497Y-290679285D02*
X305135116Y-290584047D01*
X305135116Y-290584047D02*
X305135116Y-290393571D01*
X305135116Y-290393571D02*
X305087497Y-290298333D01*
X305087497Y-290298333D02*
X305039878Y-290250714D01*
X305039878Y-290250714D02*
X304944640Y-290203095D01*
X305836069Y-295536904D02*
X304836069Y-295536904D01*
X305836069Y-294965476D02*
X305264640Y-295394047D01*
X304836069Y-294965476D02*
X305407497Y-295536904D01*
X225347319Y-292520535D02*
X224347319Y-292520535D01*
X224347319Y-292520535D02*
X224347319Y-292282440D01*
X224347319Y-292282440D02*
X224394938Y-292139583D01*
X224394938Y-292139583D02*
X224490176Y-292044345D01*
X224490176Y-292044345D02*
X224585414Y-291996726D01*
X224585414Y-291996726D02*
X224775890Y-291949107D01*
X224775890Y-291949107D02*
X224918747Y-291949107D01*
X224918747Y-291949107D02*
X225109223Y-291996726D01*
X225109223Y-291996726D02*
X225204461Y-292044345D01*
X225204461Y-292044345D02*
X225299700Y-292139583D01*
X225299700Y-292139583D02*
X225347319Y-292282440D01*
X225347319Y-292282440D02*
X225347319Y-292520535D01*
X224347319Y-291044345D02*
X224347319Y-291520535D01*
X224347319Y-291520535D02*
X224823509Y-291568154D01*
X224823509Y-291568154D02*
X224775890Y-291520535D01*
X224775890Y-291520535D02*
X224728271Y-291425297D01*
X224728271Y-291425297D02*
X224728271Y-291187202D01*
X224728271Y-291187202D02*
X224775890Y-291091964D01*
X224775890Y-291091964D02*
X224823509Y-291044345D01*
X224823509Y-291044345D02*
X224918747Y-290996726D01*
X224918747Y-290996726D02*
X225156842Y-290996726D01*
X225156842Y-290996726D02*
X225252080Y-291044345D01*
X225252080Y-291044345D02*
X225299700Y-291091964D01*
X225299700Y-291091964D02*
X225347319Y-291187202D01*
X225347319Y-291187202D02*
X225347319Y-291425297D01*
X225347319Y-291425297D02*
X225299700Y-291520535D01*
X225299700Y-291520535D02*
X225252080Y-291568154D01*
X224347319Y-290663392D02*
X224347319Y-289996726D01*
X224347319Y-289996726D02*
X225347319Y-290425297D01*
X225667319Y-295378154D02*
X224667319Y-295378154D01*
X225667319Y-294806726D02*
X225095890Y-295235297D01*
X224667319Y-294806726D02*
X225238747Y-295378154D01*
X201534819Y-272676785D02*
X200534819Y-272676785D01*
X200534819Y-272676785D02*
X200534819Y-272438690D01*
X200534819Y-272438690D02*
X200582438Y-272295833D01*
X200582438Y-272295833D02*
X200677676Y-272200595D01*
X200677676Y-272200595D02*
X200772914Y-272152976D01*
X200772914Y-272152976D02*
X200963390Y-272105357D01*
X200963390Y-272105357D02*
X201106247Y-272105357D01*
X201106247Y-272105357D02*
X201296723Y-272152976D01*
X201296723Y-272152976D02*
X201391961Y-272200595D01*
X201391961Y-272200595D02*
X201487200Y-272295833D01*
X201487200Y-272295833D02*
X201534819Y-272438690D01*
X201534819Y-272438690D02*
X201534819Y-272676785D01*
X200534819Y-271200595D02*
X200534819Y-271676785D01*
X200534819Y-271676785D02*
X201011009Y-271724404D01*
X201011009Y-271724404D02*
X200963390Y-271676785D01*
X200963390Y-271676785D02*
X200915771Y-271581547D01*
X200915771Y-271581547D02*
X200915771Y-271343452D01*
X200915771Y-271343452D02*
X200963390Y-271248214D01*
X200963390Y-271248214D02*
X201011009Y-271200595D01*
X201011009Y-271200595D02*
X201106247Y-271152976D01*
X201106247Y-271152976D02*
X201344342Y-271152976D01*
X201344342Y-271152976D02*
X201439580Y-271200595D01*
X201439580Y-271200595D02*
X201487200Y-271248214D01*
X201487200Y-271248214D02*
X201534819Y-271343452D01*
X201534819Y-271343452D02*
X201534819Y-271581547D01*
X201534819Y-271581547D02*
X201487200Y-271676785D01*
X201487200Y-271676785D02*
X201439580Y-271724404D01*
X200534819Y-270533928D02*
X200534819Y-270438690D01*
X200534819Y-270438690D02*
X200582438Y-270343452D01*
X200582438Y-270343452D02*
X200630057Y-270295833D01*
X200630057Y-270295833D02*
X200725295Y-270248214D01*
X200725295Y-270248214D02*
X200915771Y-270200595D01*
X200915771Y-270200595D02*
X201153866Y-270200595D01*
X201153866Y-270200595D02*
X201344342Y-270248214D01*
X201344342Y-270248214D02*
X201439580Y-270295833D01*
X201439580Y-270295833D02*
X201487200Y-270343452D01*
X201487200Y-270343452D02*
X201534819Y-270438690D01*
X201534819Y-270438690D02*
X201534819Y-270533928D01*
X201534819Y-270533928D02*
X201487200Y-270629166D01*
X201487200Y-270629166D02*
X201439580Y-270676785D01*
X201439580Y-270676785D02*
X201344342Y-270724404D01*
X201344342Y-270724404D02*
X201153866Y-270772023D01*
X201153866Y-270772023D02*
X200915771Y-270772023D01*
X200915771Y-270772023D02*
X200725295Y-270724404D01*
X200725295Y-270724404D02*
X200630057Y-270676785D01*
X200630057Y-270676785D02*
X200582438Y-270629166D01*
X200582438Y-270629166D02*
X200534819Y-270533928D01*
X201854819Y-275534404D02*
X200854819Y-275534404D01*
X201854819Y-274962976D02*
X201283390Y-275391547D01*
X200854819Y-274962976D02*
X201426247Y-275534404D01*
X72947319Y-291091844D02*
X71947319Y-291091844D01*
X71947319Y-291091844D02*
X71947319Y-290853749D01*
X71947319Y-290853749D02*
X71994938Y-290710892D01*
X71994938Y-290710892D02*
X72090176Y-290615654D01*
X72090176Y-290615654D02*
X72185414Y-290568035D01*
X72185414Y-290568035D02*
X72375890Y-290520416D01*
X72375890Y-290520416D02*
X72518747Y-290520416D01*
X72518747Y-290520416D02*
X72709223Y-290568035D01*
X72709223Y-290568035D02*
X72804461Y-290615654D01*
X72804461Y-290615654D02*
X72899700Y-290710892D01*
X72899700Y-290710892D02*
X72947319Y-290853749D01*
X72947319Y-290853749D02*
X72947319Y-291091844D01*
X72947319Y-290044225D02*
X72947319Y-289853749D01*
X72947319Y-289853749D02*
X72899700Y-289758511D01*
X72899700Y-289758511D02*
X72852080Y-289710892D01*
X72852080Y-289710892D02*
X72709223Y-289615654D01*
X72709223Y-289615654D02*
X72518747Y-289568035D01*
X72518747Y-289568035D02*
X72137795Y-289568035D01*
X72137795Y-289568035D02*
X72042557Y-289615654D01*
X72042557Y-289615654D02*
X71994938Y-289663273D01*
X71994938Y-289663273D02*
X71947319Y-289758511D01*
X71947319Y-289758511D02*
X71947319Y-289948987D01*
X71947319Y-289948987D02*
X71994938Y-290044225D01*
X71994938Y-290044225D02*
X72042557Y-290091844D01*
X72042557Y-290091844D02*
X72137795Y-290139463D01*
X72137795Y-290139463D02*
X72375890Y-290139463D01*
X72375890Y-290139463D02*
X72471128Y-290091844D01*
X72471128Y-290091844D02*
X72518747Y-290044225D01*
X72518747Y-290044225D02*
X72566366Y-289948987D01*
X72566366Y-289948987D02*
X72566366Y-289758511D01*
X72566366Y-289758511D02*
X72518747Y-289663273D01*
X72518747Y-289663273D02*
X72471128Y-289615654D01*
X72471128Y-289615654D02*
X72375890Y-289568035D01*
X73267319Y-294425654D02*
X72267319Y-294425654D01*
X73267319Y-293854226D02*
X72695890Y-294282797D01*
X72267319Y-293854226D02*
X72838747Y-294425654D01*
X91997319Y-291726785D02*
X90997319Y-291726785D01*
X90997319Y-291726785D02*
X90997319Y-291488690D01*
X90997319Y-291488690D02*
X91044938Y-291345833D01*
X91044938Y-291345833D02*
X91140176Y-291250595D01*
X91140176Y-291250595D02*
X91235414Y-291202976D01*
X91235414Y-291202976D02*
X91425890Y-291155357D01*
X91425890Y-291155357D02*
X91568747Y-291155357D01*
X91568747Y-291155357D02*
X91759223Y-291202976D01*
X91759223Y-291202976D02*
X91854461Y-291250595D01*
X91854461Y-291250595D02*
X91949700Y-291345833D01*
X91949700Y-291345833D02*
X91997319Y-291488690D01*
X91997319Y-291488690D02*
X91997319Y-291726785D01*
X91997319Y-290202976D02*
X91997319Y-290774404D01*
X91997319Y-290488690D02*
X90997319Y-290488690D01*
X90997319Y-290488690D02*
X91140176Y-290583928D01*
X91140176Y-290583928D02*
X91235414Y-290679166D01*
X91235414Y-290679166D02*
X91283033Y-290774404D01*
X90997319Y-289298214D02*
X90997319Y-289774404D01*
X90997319Y-289774404D02*
X91473509Y-289822023D01*
X91473509Y-289822023D02*
X91425890Y-289774404D01*
X91425890Y-289774404D02*
X91378271Y-289679166D01*
X91378271Y-289679166D02*
X91378271Y-289441071D01*
X91378271Y-289441071D02*
X91425890Y-289345833D01*
X91425890Y-289345833D02*
X91473509Y-289298214D01*
X91473509Y-289298214D02*
X91568747Y-289250595D01*
X91568747Y-289250595D02*
X91806842Y-289250595D01*
X91806842Y-289250595D02*
X91902080Y-289298214D01*
X91902080Y-289298214D02*
X91949700Y-289345833D01*
X91949700Y-289345833D02*
X91997319Y-289441071D01*
X91997319Y-289441071D02*
X91997319Y-289679166D01*
X91997319Y-289679166D02*
X91949700Y-289774404D01*
X91949700Y-289774404D02*
X91902080Y-289822023D01*
X92317319Y-294584404D02*
X91317319Y-294584404D01*
X92317319Y-294012976D02*
X91745890Y-294441547D01*
X91317319Y-294012976D02*
X91888747Y-294584404D01*
X120572319Y-310776785D02*
X119572319Y-310776785D01*
X119572319Y-310776785D02*
X119572319Y-310538690D01*
X119572319Y-310538690D02*
X119619938Y-310395833D01*
X119619938Y-310395833D02*
X119715176Y-310300595D01*
X119715176Y-310300595D02*
X119810414Y-310252976D01*
X119810414Y-310252976D02*
X120000890Y-310205357D01*
X120000890Y-310205357D02*
X120143747Y-310205357D01*
X120143747Y-310205357D02*
X120334223Y-310252976D01*
X120334223Y-310252976D02*
X120429461Y-310300595D01*
X120429461Y-310300595D02*
X120524700Y-310395833D01*
X120524700Y-310395833D02*
X120572319Y-310538690D01*
X120572319Y-310538690D02*
X120572319Y-310776785D01*
X119667557Y-309824404D02*
X119619938Y-309776785D01*
X119619938Y-309776785D02*
X119572319Y-309681547D01*
X119572319Y-309681547D02*
X119572319Y-309443452D01*
X119572319Y-309443452D02*
X119619938Y-309348214D01*
X119619938Y-309348214D02*
X119667557Y-309300595D01*
X119667557Y-309300595D02*
X119762795Y-309252976D01*
X119762795Y-309252976D02*
X119858033Y-309252976D01*
X119858033Y-309252976D02*
X120000890Y-309300595D01*
X120000890Y-309300595D02*
X120572319Y-309872023D01*
X120572319Y-309872023D02*
X120572319Y-309252976D01*
X119667557Y-308872023D02*
X119619938Y-308824404D01*
X119619938Y-308824404D02*
X119572319Y-308729166D01*
X119572319Y-308729166D02*
X119572319Y-308491071D01*
X119572319Y-308491071D02*
X119619938Y-308395833D01*
X119619938Y-308395833D02*
X119667557Y-308348214D01*
X119667557Y-308348214D02*
X119762795Y-308300595D01*
X119762795Y-308300595D02*
X119858033Y-308300595D01*
X119858033Y-308300595D02*
X120000890Y-308348214D01*
X120000890Y-308348214D02*
X120572319Y-308919642D01*
X120572319Y-308919642D02*
X120572319Y-308300595D01*
X120892319Y-313634404D02*
X119892319Y-313634404D01*
X120892319Y-313062976D02*
X120320890Y-313491547D01*
X119892319Y-313062976D02*
X120463747Y-313634404D01*
X253763569Y-310618035D02*
X252763569Y-310618035D01*
X252763569Y-310618035D02*
X252763569Y-310379940D01*
X252763569Y-310379940D02*
X252811188Y-310237083D01*
X252811188Y-310237083D02*
X252906426Y-310141845D01*
X252906426Y-310141845D02*
X253001664Y-310094226D01*
X253001664Y-310094226D02*
X253192140Y-310046607D01*
X253192140Y-310046607D02*
X253334997Y-310046607D01*
X253334997Y-310046607D02*
X253525473Y-310094226D01*
X253525473Y-310094226D02*
X253620711Y-310141845D01*
X253620711Y-310141845D02*
X253715950Y-310237083D01*
X253715950Y-310237083D02*
X253763569Y-310379940D01*
X253763569Y-310379940D02*
X253763569Y-310618035D01*
X252763569Y-309189464D02*
X252763569Y-309379940D01*
X252763569Y-309379940D02*
X252811188Y-309475178D01*
X252811188Y-309475178D02*
X252858807Y-309522797D01*
X252858807Y-309522797D02*
X253001664Y-309618035D01*
X253001664Y-309618035D02*
X253192140Y-309665654D01*
X253192140Y-309665654D02*
X253573092Y-309665654D01*
X253573092Y-309665654D02*
X253668330Y-309618035D01*
X253668330Y-309618035D02*
X253715950Y-309570416D01*
X253715950Y-309570416D02*
X253763569Y-309475178D01*
X253763569Y-309475178D02*
X253763569Y-309284702D01*
X253763569Y-309284702D02*
X253715950Y-309189464D01*
X253715950Y-309189464D02*
X253668330Y-309141845D01*
X253668330Y-309141845D02*
X253573092Y-309094226D01*
X253573092Y-309094226D02*
X253334997Y-309094226D01*
X253334997Y-309094226D02*
X253239759Y-309141845D01*
X253239759Y-309141845D02*
X253192140Y-309189464D01*
X253192140Y-309189464D02*
X253144521Y-309284702D01*
X253144521Y-309284702D02*
X253144521Y-309475178D01*
X253144521Y-309475178D02*
X253192140Y-309570416D01*
X253192140Y-309570416D02*
X253239759Y-309618035D01*
X253239759Y-309618035D02*
X253334997Y-309665654D01*
X253096902Y-308237083D02*
X253763569Y-308237083D01*
X252715950Y-308475178D02*
X253430235Y-308713273D01*
X253430235Y-308713273D02*
X253430235Y-308094226D01*
X254083569Y-313475654D02*
X253083569Y-313475654D01*
X254083569Y-312904226D02*
X253512140Y-313332797D01*
X253083569Y-312904226D02*
X253654997Y-313475654D01*
X281974819Y-272835535D02*
X280974819Y-272835535D01*
X280974819Y-272835535D02*
X280974819Y-272597440D01*
X280974819Y-272597440D02*
X281022438Y-272454583D01*
X281022438Y-272454583D02*
X281117676Y-272359345D01*
X281117676Y-272359345D02*
X281212914Y-272311726D01*
X281212914Y-272311726D02*
X281403390Y-272264107D01*
X281403390Y-272264107D02*
X281546247Y-272264107D01*
X281546247Y-272264107D02*
X281736723Y-272311726D01*
X281736723Y-272311726D02*
X281831961Y-272359345D01*
X281831961Y-272359345D02*
X281927200Y-272454583D01*
X281927200Y-272454583D02*
X281974819Y-272597440D01*
X281974819Y-272597440D02*
X281974819Y-272835535D01*
X281974819Y-271311726D02*
X281974819Y-271883154D01*
X281974819Y-271597440D02*
X280974819Y-271597440D01*
X280974819Y-271597440D02*
X281117676Y-271692678D01*
X281117676Y-271692678D02*
X281212914Y-271787916D01*
X281212914Y-271787916D02*
X281260533Y-271883154D01*
X281070057Y-270930773D02*
X281022438Y-270883154D01*
X281022438Y-270883154D02*
X280974819Y-270787916D01*
X280974819Y-270787916D02*
X280974819Y-270549821D01*
X280974819Y-270549821D02*
X281022438Y-270454583D01*
X281022438Y-270454583D02*
X281070057Y-270406964D01*
X281070057Y-270406964D02*
X281165295Y-270359345D01*
X281165295Y-270359345D02*
X281260533Y-270359345D01*
X281260533Y-270359345D02*
X281403390Y-270406964D01*
X281403390Y-270406964D02*
X281974819Y-270978392D01*
X281974819Y-270978392D02*
X281974819Y-270359345D01*
X281654819Y-268073154D02*
X280654819Y-268073154D01*
X281654819Y-267501726D02*
X281083390Y-267930297D01*
X280654819Y-267501726D02*
X281226247Y-268073154D01*
X130097319Y-290933035D02*
X129097319Y-290933035D01*
X129097319Y-290933035D02*
X129097319Y-290694940D01*
X129097319Y-290694940D02*
X129144938Y-290552083D01*
X129144938Y-290552083D02*
X129240176Y-290456845D01*
X129240176Y-290456845D02*
X129335414Y-290409226D01*
X129335414Y-290409226D02*
X129525890Y-290361607D01*
X129525890Y-290361607D02*
X129668747Y-290361607D01*
X129668747Y-290361607D02*
X129859223Y-290409226D01*
X129859223Y-290409226D02*
X129954461Y-290456845D01*
X129954461Y-290456845D02*
X130049700Y-290552083D01*
X130049700Y-290552083D02*
X130097319Y-290694940D01*
X130097319Y-290694940D02*
X130097319Y-290933035D01*
X129192557Y-289980654D02*
X129144938Y-289933035D01*
X129144938Y-289933035D02*
X129097319Y-289837797D01*
X129097319Y-289837797D02*
X129097319Y-289599702D01*
X129097319Y-289599702D02*
X129144938Y-289504464D01*
X129144938Y-289504464D02*
X129192557Y-289456845D01*
X129192557Y-289456845D02*
X129287795Y-289409226D01*
X129287795Y-289409226D02*
X129383033Y-289409226D01*
X129383033Y-289409226D02*
X129525890Y-289456845D01*
X129525890Y-289456845D02*
X130097319Y-290028273D01*
X130097319Y-290028273D02*
X130097319Y-289409226D01*
X129097319Y-289075892D02*
X129097319Y-288409226D01*
X129097319Y-288409226D02*
X130097319Y-288837797D01*
X130417319Y-293790654D02*
X129417319Y-293790654D01*
X130417319Y-293219226D02*
X129845890Y-293647797D01*
X129417319Y-293219226D02*
X129988747Y-293790654D01*
X229316069Y-253468035D02*
X228316069Y-253468035D01*
X228316069Y-253468035D02*
X228316069Y-253229940D01*
X228316069Y-253229940D02*
X228363688Y-253087083D01*
X228363688Y-253087083D02*
X228458926Y-252991845D01*
X228458926Y-252991845D02*
X228554164Y-252944226D01*
X228554164Y-252944226D02*
X228744640Y-252896607D01*
X228744640Y-252896607D02*
X228887497Y-252896607D01*
X228887497Y-252896607D02*
X229077973Y-252944226D01*
X229077973Y-252944226D02*
X229173211Y-252991845D01*
X229173211Y-252991845D02*
X229268450Y-253087083D01*
X229268450Y-253087083D02*
X229316069Y-253229940D01*
X229316069Y-253229940D02*
X229316069Y-253468035D01*
X228316069Y-252039464D02*
X228316069Y-252229940D01*
X228316069Y-252229940D02*
X228363688Y-252325178D01*
X228363688Y-252325178D02*
X228411307Y-252372797D01*
X228411307Y-252372797D02*
X228554164Y-252468035D01*
X228554164Y-252468035D02*
X228744640Y-252515654D01*
X228744640Y-252515654D02*
X229125592Y-252515654D01*
X229125592Y-252515654D02*
X229220830Y-252468035D01*
X229220830Y-252468035D02*
X229268450Y-252420416D01*
X229268450Y-252420416D02*
X229316069Y-252325178D01*
X229316069Y-252325178D02*
X229316069Y-252134702D01*
X229316069Y-252134702D02*
X229268450Y-252039464D01*
X229268450Y-252039464D02*
X229220830Y-251991845D01*
X229220830Y-251991845D02*
X229125592Y-251944226D01*
X229125592Y-251944226D02*
X228887497Y-251944226D01*
X228887497Y-251944226D02*
X228792259Y-251991845D01*
X228792259Y-251991845D02*
X228744640Y-252039464D01*
X228744640Y-252039464D02*
X228697021Y-252134702D01*
X228697021Y-252134702D02*
X228697021Y-252325178D01*
X228697021Y-252325178D02*
X228744640Y-252420416D01*
X228744640Y-252420416D02*
X228792259Y-252468035D01*
X228792259Y-252468035D02*
X228887497Y-252515654D01*
X229316069Y-250991845D02*
X229316069Y-251563273D01*
X229316069Y-251277559D02*
X228316069Y-251277559D01*
X228316069Y-251277559D02*
X228458926Y-251372797D01*
X228458926Y-251372797D02*
X228554164Y-251468035D01*
X228554164Y-251468035D02*
X228601783Y-251563273D01*
X229636069Y-256325654D02*
X228636069Y-256325654D01*
X229636069Y-255754226D02*
X229064640Y-256182797D01*
X228636069Y-255754226D02*
X229207497Y-256325654D01*
X360735714Y-318216069D02*
X360735714Y-317216069D01*
X360735714Y-317216069D02*
X360973809Y-317216069D01*
X360973809Y-317216069D02*
X361116666Y-317263688D01*
X361116666Y-317263688D02*
X361211904Y-317358926D01*
X361211904Y-317358926D02*
X361259523Y-317454164D01*
X361259523Y-317454164D02*
X361307142Y-317644640D01*
X361307142Y-317644640D02*
X361307142Y-317787497D01*
X361307142Y-317787497D02*
X361259523Y-317977973D01*
X361259523Y-317977973D02*
X361211904Y-318073211D01*
X361211904Y-318073211D02*
X361116666Y-318168450D01*
X361116666Y-318168450D02*
X360973809Y-318216069D01*
X360973809Y-318216069D02*
X360735714Y-318216069D01*
X362211904Y-317216069D02*
X361735714Y-317216069D01*
X361735714Y-317216069D02*
X361688095Y-317692259D01*
X361688095Y-317692259D02*
X361735714Y-317644640D01*
X361735714Y-317644640D02*
X361830952Y-317597021D01*
X361830952Y-317597021D02*
X362069047Y-317597021D01*
X362069047Y-317597021D02*
X362164285Y-317644640D01*
X362164285Y-317644640D02*
X362211904Y-317692259D01*
X362211904Y-317692259D02*
X362259523Y-317787497D01*
X362259523Y-317787497D02*
X362259523Y-318025592D01*
X362259523Y-318025592D02*
X362211904Y-318120830D01*
X362211904Y-318120830D02*
X362164285Y-318168450D01*
X362164285Y-318168450D02*
X362069047Y-318216069D01*
X362069047Y-318216069D02*
X361830952Y-318216069D01*
X361830952Y-318216069D02*
X361735714Y-318168450D01*
X361735714Y-318168450D02*
X361688095Y-318120830D01*
X363116666Y-317549402D02*
X363116666Y-318216069D01*
X362878571Y-317168450D02*
X362640476Y-317882735D01*
X362640476Y-317882735D02*
X363259523Y-317882735D01*
X357878095Y-318536069D02*
X357878095Y-317536069D01*
X358449523Y-318536069D02*
X358020952Y-317964640D01*
X358449523Y-317536069D02*
X357878095Y-318107497D01*
X196772319Y-311411785D02*
X195772319Y-311411785D01*
X195772319Y-311411785D02*
X195772319Y-311173690D01*
X195772319Y-311173690D02*
X195819938Y-311030833D01*
X195819938Y-311030833D02*
X195915176Y-310935595D01*
X195915176Y-310935595D02*
X196010414Y-310887976D01*
X196010414Y-310887976D02*
X196200890Y-310840357D01*
X196200890Y-310840357D02*
X196343747Y-310840357D01*
X196343747Y-310840357D02*
X196534223Y-310887976D01*
X196534223Y-310887976D02*
X196629461Y-310935595D01*
X196629461Y-310935595D02*
X196724700Y-311030833D01*
X196724700Y-311030833D02*
X196772319Y-311173690D01*
X196772319Y-311173690D02*
X196772319Y-311411785D01*
X196105652Y-309983214D02*
X196772319Y-309983214D01*
X195724700Y-310221309D02*
X196438985Y-310459404D01*
X196438985Y-310459404D02*
X196438985Y-309840357D01*
X195772319Y-309030833D02*
X195772319Y-309221309D01*
X195772319Y-309221309D02*
X195819938Y-309316547D01*
X195819938Y-309316547D02*
X195867557Y-309364166D01*
X195867557Y-309364166D02*
X196010414Y-309459404D01*
X196010414Y-309459404D02*
X196200890Y-309507023D01*
X196200890Y-309507023D02*
X196581842Y-309507023D01*
X196581842Y-309507023D02*
X196677080Y-309459404D01*
X196677080Y-309459404D02*
X196724700Y-309411785D01*
X196724700Y-309411785D02*
X196772319Y-309316547D01*
X196772319Y-309316547D02*
X196772319Y-309126071D01*
X196772319Y-309126071D02*
X196724700Y-309030833D01*
X196724700Y-309030833D02*
X196677080Y-308983214D01*
X196677080Y-308983214D02*
X196581842Y-308935595D01*
X196581842Y-308935595D02*
X196343747Y-308935595D01*
X196343747Y-308935595D02*
X196248509Y-308983214D01*
X196248509Y-308983214D02*
X196200890Y-309030833D01*
X196200890Y-309030833D02*
X196153271Y-309126071D01*
X196153271Y-309126071D02*
X196153271Y-309316547D01*
X196153271Y-309316547D02*
X196200890Y-309411785D01*
X196200890Y-309411785D02*
X196248509Y-309459404D01*
X196248509Y-309459404D02*
X196343747Y-309507023D01*
X197092319Y-314269404D02*
X196092319Y-314269404D01*
X197092319Y-313697976D02*
X196520890Y-314126547D01*
X196092319Y-313697976D02*
X196663747Y-314269404D01*
X115016069Y-253468035D02*
X114016069Y-253468035D01*
X114016069Y-253468035D02*
X114016069Y-253229940D01*
X114016069Y-253229940D02*
X114063688Y-253087083D01*
X114063688Y-253087083D02*
X114158926Y-252991845D01*
X114158926Y-252991845D02*
X114254164Y-252944226D01*
X114254164Y-252944226D02*
X114444640Y-252896607D01*
X114444640Y-252896607D02*
X114587497Y-252896607D01*
X114587497Y-252896607D02*
X114777973Y-252944226D01*
X114777973Y-252944226D02*
X114873211Y-252991845D01*
X114873211Y-252991845D02*
X114968450Y-253087083D01*
X114968450Y-253087083D02*
X115016069Y-253229940D01*
X115016069Y-253229940D02*
X115016069Y-253468035D01*
X114111307Y-252515654D02*
X114063688Y-252468035D01*
X114063688Y-252468035D02*
X114016069Y-252372797D01*
X114016069Y-252372797D02*
X114016069Y-252134702D01*
X114016069Y-252134702D02*
X114063688Y-252039464D01*
X114063688Y-252039464D02*
X114111307Y-251991845D01*
X114111307Y-251991845D02*
X114206545Y-251944226D01*
X114206545Y-251944226D02*
X114301783Y-251944226D01*
X114301783Y-251944226D02*
X114444640Y-251991845D01*
X114444640Y-251991845D02*
X115016069Y-252563273D01*
X115016069Y-252563273D02*
X115016069Y-251944226D01*
X114016069Y-251039464D02*
X114016069Y-251515654D01*
X114016069Y-251515654D02*
X114492259Y-251563273D01*
X114492259Y-251563273D02*
X114444640Y-251515654D01*
X114444640Y-251515654D02*
X114397021Y-251420416D01*
X114397021Y-251420416D02*
X114397021Y-251182321D01*
X114397021Y-251182321D02*
X114444640Y-251087083D01*
X114444640Y-251087083D02*
X114492259Y-251039464D01*
X114492259Y-251039464D02*
X114587497Y-250991845D01*
X114587497Y-250991845D02*
X114825592Y-250991845D01*
X114825592Y-250991845D02*
X114920830Y-251039464D01*
X114920830Y-251039464D02*
X114968450Y-251087083D01*
X114968450Y-251087083D02*
X115016069Y-251182321D01*
X115016069Y-251182321D02*
X115016069Y-251420416D01*
X115016069Y-251420416D02*
X114968450Y-251515654D01*
X114968450Y-251515654D02*
X114920830Y-251563273D01*
X115336069Y-256325654D02*
X114336069Y-256325654D01*
X115336069Y-255754226D02*
X114764640Y-256182797D01*
X114336069Y-255754226D02*
X114907497Y-256325654D01*
X345019464Y-322456069D02*
X345019464Y-321456069D01*
X345019464Y-321456069D02*
X345257559Y-321456069D01*
X345257559Y-321456069D02*
X345400416Y-321503688D01*
X345400416Y-321503688D02*
X345495654Y-321598926D01*
X345495654Y-321598926D02*
X345543273Y-321694164D01*
X345543273Y-321694164D02*
X345590892Y-321884640D01*
X345590892Y-321884640D02*
X345590892Y-322027497D01*
X345590892Y-322027497D02*
X345543273Y-322217973D01*
X345543273Y-322217973D02*
X345495654Y-322313211D01*
X345495654Y-322313211D02*
X345400416Y-322408450D01*
X345400416Y-322408450D02*
X345257559Y-322456069D01*
X345257559Y-322456069D02*
X345019464Y-322456069D01*
X346448035Y-321789402D02*
X346448035Y-322456069D01*
X346209940Y-321408450D02*
X345971845Y-322122735D01*
X345971845Y-322122735D02*
X346590892Y-322122735D01*
X347114702Y-321884640D02*
X347019464Y-321837021D01*
X347019464Y-321837021D02*
X346971845Y-321789402D01*
X346971845Y-321789402D02*
X346924226Y-321694164D01*
X346924226Y-321694164D02*
X346924226Y-321646545D01*
X346924226Y-321646545D02*
X346971845Y-321551307D01*
X346971845Y-321551307D02*
X347019464Y-321503688D01*
X347019464Y-321503688D02*
X347114702Y-321456069D01*
X347114702Y-321456069D02*
X347305178Y-321456069D01*
X347305178Y-321456069D02*
X347400416Y-321503688D01*
X347400416Y-321503688D02*
X347448035Y-321551307D01*
X347448035Y-321551307D02*
X347495654Y-321646545D01*
X347495654Y-321646545D02*
X347495654Y-321694164D01*
X347495654Y-321694164D02*
X347448035Y-321789402D01*
X347448035Y-321789402D02*
X347400416Y-321837021D01*
X347400416Y-321837021D02*
X347305178Y-321884640D01*
X347305178Y-321884640D02*
X347114702Y-321884640D01*
X347114702Y-321884640D02*
X347019464Y-321932259D01*
X347019464Y-321932259D02*
X346971845Y-321979878D01*
X346971845Y-321979878D02*
X346924226Y-322075116D01*
X346924226Y-322075116D02*
X346924226Y-322265592D01*
X346924226Y-322265592D02*
X346971845Y-322360830D01*
X346971845Y-322360830D02*
X347019464Y-322408450D01*
X347019464Y-322408450D02*
X347114702Y-322456069D01*
X347114702Y-322456069D02*
X347305178Y-322456069D01*
X347305178Y-322456069D02*
X347400416Y-322408450D01*
X347400416Y-322408450D02*
X347448035Y-322360830D01*
X347448035Y-322360830D02*
X347495654Y-322265592D01*
X347495654Y-322265592D02*
X347495654Y-322075116D01*
X347495654Y-322075116D02*
X347448035Y-321979878D01*
X347448035Y-321979878D02*
X347400416Y-321932259D01*
X347400416Y-321932259D02*
X347305178Y-321884640D01*
X349781845Y-322136069D02*
X349781845Y-321136069D01*
X350353273Y-322136069D02*
X349924702Y-321564640D01*
X350353273Y-321136069D02*
X349781845Y-321707497D01*
X163434819Y-272518035D02*
X162434819Y-272518035D01*
X162434819Y-272518035D02*
X162434819Y-272279940D01*
X162434819Y-272279940D02*
X162482438Y-272137083D01*
X162482438Y-272137083D02*
X162577676Y-272041845D01*
X162577676Y-272041845D02*
X162672914Y-271994226D01*
X162672914Y-271994226D02*
X162863390Y-271946607D01*
X162863390Y-271946607D02*
X163006247Y-271946607D01*
X163006247Y-271946607D02*
X163196723Y-271994226D01*
X163196723Y-271994226D02*
X163291961Y-272041845D01*
X163291961Y-272041845D02*
X163387200Y-272137083D01*
X163387200Y-272137083D02*
X163434819Y-272279940D01*
X163434819Y-272279940D02*
X163434819Y-272518035D01*
X162434819Y-271613273D02*
X162434819Y-270994226D01*
X162434819Y-270994226D02*
X162815771Y-271327559D01*
X162815771Y-271327559D02*
X162815771Y-271184702D01*
X162815771Y-271184702D02*
X162863390Y-271089464D01*
X162863390Y-271089464D02*
X162911009Y-271041845D01*
X162911009Y-271041845D02*
X163006247Y-270994226D01*
X163006247Y-270994226D02*
X163244342Y-270994226D01*
X163244342Y-270994226D02*
X163339580Y-271041845D01*
X163339580Y-271041845D02*
X163387200Y-271089464D01*
X163387200Y-271089464D02*
X163434819Y-271184702D01*
X163434819Y-271184702D02*
X163434819Y-271470416D01*
X163434819Y-271470416D02*
X163387200Y-271565654D01*
X163387200Y-271565654D02*
X163339580Y-271613273D01*
X162863390Y-270422797D02*
X162815771Y-270518035D01*
X162815771Y-270518035D02*
X162768152Y-270565654D01*
X162768152Y-270565654D02*
X162672914Y-270613273D01*
X162672914Y-270613273D02*
X162625295Y-270613273D01*
X162625295Y-270613273D02*
X162530057Y-270565654D01*
X162530057Y-270565654D02*
X162482438Y-270518035D01*
X162482438Y-270518035D02*
X162434819Y-270422797D01*
X162434819Y-270422797D02*
X162434819Y-270232321D01*
X162434819Y-270232321D02*
X162482438Y-270137083D01*
X162482438Y-270137083D02*
X162530057Y-270089464D01*
X162530057Y-270089464D02*
X162625295Y-270041845D01*
X162625295Y-270041845D02*
X162672914Y-270041845D01*
X162672914Y-270041845D02*
X162768152Y-270089464D01*
X162768152Y-270089464D02*
X162815771Y-270137083D01*
X162815771Y-270137083D02*
X162863390Y-270232321D01*
X162863390Y-270232321D02*
X162863390Y-270422797D01*
X162863390Y-270422797D02*
X162911009Y-270518035D01*
X162911009Y-270518035D02*
X162958628Y-270565654D01*
X162958628Y-270565654D02*
X163053866Y-270613273D01*
X163053866Y-270613273D02*
X163244342Y-270613273D01*
X163244342Y-270613273D02*
X163339580Y-270565654D01*
X163339580Y-270565654D02*
X163387200Y-270518035D01*
X163387200Y-270518035D02*
X163434819Y-270422797D01*
X163434819Y-270422797D02*
X163434819Y-270232321D01*
X163434819Y-270232321D02*
X163387200Y-270137083D01*
X163387200Y-270137083D02*
X163339580Y-270089464D01*
X163339580Y-270089464D02*
X163244342Y-270041845D01*
X163244342Y-270041845D02*
X163053866Y-270041845D01*
X163053866Y-270041845D02*
X162958628Y-270089464D01*
X162958628Y-270089464D02*
X162911009Y-270137083D01*
X162911009Y-270137083D02*
X162863390Y-270232321D01*
X163754819Y-275375654D02*
X162754819Y-275375654D01*
X163754819Y-274804226D02*
X163183390Y-275232797D01*
X162754819Y-274804226D02*
X163326247Y-275375654D01*
X86441069Y-272676785D02*
X85441069Y-272676785D01*
X85441069Y-272676785D02*
X85441069Y-272438690D01*
X85441069Y-272438690D02*
X85488688Y-272295833D01*
X85488688Y-272295833D02*
X85583926Y-272200595D01*
X85583926Y-272200595D02*
X85679164Y-272152976D01*
X85679164Y-272152976D02*
X85869640Y-272105357D01*
X85869640Y-272105357D02*
X86012497Y-272105357D01*
X86012497Y-272105357D02*
X86202973Y-272152976D01*
X86202973Y-272152976D02*
X86298211Y-272200595D01*
X86298211Y-272200595D02*
X86393450Y-272295833D01*
X86393450Y-272295833D02*
X86441069Y-272438690D01*
X86441069Y-272438690D02*
X86441069Y-272676785D01*
X86441069Y-271152976D02*
X86441069Y-271724404D01*
X86441069Y-271438690D02*
X85441069Y-271438690D01*
X85441069Y-271438690D02*
X85583926Y-271533928D01*
X85583926Y-271533928D02*
X85679164Y-271629166D01*
X85679164Y-271629166D02*
X85726783Y-271724404D01*
X85774402Y-270295833D02*
X86441069Y-270295833D01*
X85393450Y-270533928D02*
X86107735Y-270772023D01*
X86107735Y-270772023D02*
X86107735Y-270152976D01*
X86761069Y-275534404D02*
X85761069Y-275534404D01*
X86761069Y-274962976D02*
X86189640Y-275391547D01*
X85761069Y-274962976D02*
X86332497Y-275534404D01*
X182484819Y-273470535D02*
X181484819Y-273470535D01*
X181484819Y-273470535D02*
X181484819Y-273232440D01*
X181484819Y-273232440D02*
X181532438Y-273089583D01*
X181532438Y-273089583D02*
X181627676Y-272994345D01*
X181627676Y-272994345D02*
X181722914Y-272946726D01*
X181722914Y-272946726D02*
X181913390Y-272899107D01*
X181913390Y-272899107D02*
X182056247Y-272899107D01*
X182056247Y-272899107D02*
X182246723Y-272946726D01*
X182246723Y-272946726D02*
X182341961Y-272994345D01*
X182341961Y-272994345D02*
X182437200Y-273089583D01*
X182437200Y-273089583D02*
X182484819Y-273232440D01*
X182484819Y-273232440D02*
X182484819Y-273470535D01*
X181818152Y-272041964D02*
X182484819Y-272041964D01*
X181437200Y-272280059D02*
X182151485Y-272518154D01*
X182151485Y-272518154D02*
X182151485Y-271899107D01*
X181818152Y-271089583D02*
X182484819Y-271089583D01*
X181437200Y-271327678D02*
X182151485Y-271565773D01*
X182151485Y-271565773D02*
X182151485Y-270946726D01*
X182804819Y-276328154D02*
X181804819Y-276328154D01*
X182804819Y-275756726D02*
X182233390Y-276185297D01*
X181804819Y-275756726D02*
X182376247Y-276328154D01*
X405979464Y-314247319D02*
X405979464Y-313247319D01*
X405979464Y-313247319D02*
X406217559Y-313247319D01*
X406217559Y-313247319D02*
X406360416Y-313294938D01*
X406360416Y-313294938D02*
X406455654Y-313390176D01*
X406455654Y-313390176D02*
X406503273Y-313485414D01*
X406503273Y-313485414D02*
X406550892Y-313675890D01*
X406550892Y-313675890D02*
X406550892Y-313818747D01*
X406550892Y-313818747D02*
X406503273Y-314009223D01*
X406503273Y-314009223D02*
X406455654Y-314104461D01*
X406455654Y-314104461D02*
X406360416Y-314199700D01*
X406360416Y-314199700D02*
X406217559Y-314247319D01*
X406217559Y-314247319D02*
X405979464Y-314247319D01*
X407408035Y-313580652D02*
X407408035Y-314247319D01*
X407169940Y-313199700D02*
X406931845Y-313913985D01*
X406931845Y-313913985D02*
X407550892Y-313913985D01*
X407836607Y-313247319D02*
X408503273Y-313247319D01*
X408503273Y-313247319D02*
X408074702Y-314247319D01*
X403121845Y-314567319D02*
X403121845Y-313567319D01*
X403693273Y-314567319D02*
X403264702Y-313995890D01*
X403693273Y-313567319D02*
X403121845Y-314138747D01*
X46753569Y-290456844D02*
X45753569Y-290456844D01*
X45753569Y-290456844D02*
X45753569Y-290218749D01*
X45753569Y-290218749D02*
X45801188Y-290075892D01*
X45801188Y-290075892D02*
X45896426Y-289980654D01*
X45896426Y-289980654D02*
X45991664Y-289933035D01*
X45991664Y-289933035D02*
X46182140Y-289885416D01*
X46182140Y-289885416D02*
X46324997Y-289885416D01*
X46324997Y-289885416D02*
X46515473Y-289933035D01*
X46515473Y-289933035D02*
X46610711Y-289980654D01*
X46610711Y-289980654D02*
X46705950Y-290075892D01*
X46705950Y-290075892D02*
X46753569Y-290218749D01*
X46753569Y-290218749D02*
X46753569Y-290456844D01*
X45753569Y-289552082D02*
X45753569Y-288933035D01*
X45753569Y-288933035D02*
X46134521Y-289266368D01*
X46134521Y-289266368D02*
X46134521Y-289123511D01*
X46134521Y-289123511D02*
X46182140Y-289028273D01*
X46182140Y-289028273D02*
X46229759Y-288980654D01*
X46229759Y-288980654D02*
X46324997Y-288933035D01*
X46324997Y-288933035D02*
X46563092Y-288933035D01*
X46563092Y-288933035D02*
X46658330Y-288980654D01*
X46658330Y-288980654D02*
X46705950Y-289028273D01*
X46705950Y-289028273D02*
X46753569Y-289123511D01*
X46753569Y-289123511D02*
X46753569Y-289409225D01*
X46753569Y-289409225D02*
X46705950Y-289504463D01*
X46705950Y-289504463D02*
X46658330Y-289552082D01*
X47073569Y-293790654D02*
X46073569Y-293790654D01*
X47073569Y-293219226D02*
X46502140Y-293647797D01*
X46073569Y-293219226D02*
X46644997Y-293790654D01*
X258684819Y-272676785D02*
X257684819Y-272676785D01*
X257684819Y-272676785D02*
X257684819Y-272438690D01*
X257684819Y-272438690D02*
X257732438Y-272295833D01*
X257732438Y-272295833D02*
X257827676Y-272200595D01*
X257827676Y-272200595D02*
X257922914Y-272152976D01*
X257922914Y-272152976D02*
X258113390Y-272105357D01*
X258113390Y-272105357D02*
X258256247Y-272105357D01*
X258256247Y-272105357D02*
X258446723Y-272152976D01*
X258446723Y-272152976D02*
X258541961Y-272200595D01*
X258541961Y-272200595D02*
X258637200Y-272295833D01*
X258637200Y-272295833D02*
X258684819Y-272438690D01*
X258684819Y-272438690D02*
X258684819Y-272676785D01*
X257684819Y-271248214D02*
X257684819Y-271438690D01*
X257684819Y-271438690D02*
X257732438Y-271533928D01*
X257732438Y-271533928D02*
X257780057Y-271581547D01*
X257780057Y-271581547D02*
X257922914Y-271676785D01*
X257922914Y-271676785D02*
X258113390Y-271724404D01*
X258113390Y-271724404D02*
X258494342Y-271724404D01*
X258494342Y-271724404D02*
X258589580Y-271676785D01*
X258589580Y-271676785D02*
X258637200Y-271629166D01*
X258637200Y-271629166D02*
X258684819Y-271533928D01*
X258684819Y-271533928D02*
X258684819Y-271343452D01*
X258684819Y-271343452D02*
X258637200Y-271248214D01*
X258637200Y-271248214D02*
X258589580Y-271200595D01*
X258589580Y-271200595D02*
X258494342Y-271152976D01*
X258494342Y-271152976D02*
X258256247Y-271152976D01*
X258256247Y-271152976D02*
X258161009Y-271200595D01*
X258161009Y-271200595D02*
X258113390Y-271248214D01*
X258113390Y-271248214D02*
X258065771Y-271343452D01*
X258065771Y-271343452D02*
X258065771Y-271533928D01*
X258065771Y-271533928D02*
X258113390Y-271629166D01*
X258113390Y-271629166D02*
X258161009Y-271676785D01*
X258161009Y-271676785D02*
X258256247Y-271724404D01*
X258113390Y-270581547D02*
X258065771Y-270676785D01*
X258065771Y-270676785D02*
X258018152Y-270724404D01*
X258018152Y-270724404D02*
X257922914Y-270772023D01*
X257922914Y-270772023D02*
X257875295Y-270772023D01*
X257875295Y-270772023D02*
X257780057Y-270724404D01*
X257780057Y-270724404D02*
X257732438Y-270676785D01*
X257732438Y-270676785D02*
X257684819Y-270581547D01*
X257684819Y-270581547D02*
X257684819Y-270391071D01*
X257684819Y-270391071D02*
X257732438Y-270295833D01*
X257732438Y-270295833D02*
X257780057Y-270248214D01*
X257780057Y-270248214D02*
X257875295Y-270200595D01*
X257875295Y-270200595D02*
X257922914Y-270200595D01*
X257922914Y-270200595D02*
X258018152Y-270248214D01*
X258018152Y-270248214D02*
X258065771Y-270295833D01*
X258065771Y-270295833D02*
X258113390Y-270391071D01*
X258113390Y-270391071D02*
X258113390Y-270581547D01*
X258113390Y-270581547D02*
X258161009Y-270676785D01*
X258161009Y-270676785D02*
X258208628Y-270724404D01*
X258208628Y-270724404D02*
X258303866Y-270772023D01*
X258303866Y-270772023D02*
X258494342Y-270772023D01*
X258494342Y-270772023D02*
X258589580Y-270724404D01*
X258589580Y-270724404D02*
X258637200Y-270676785D01*
X258637200Y-270676785D02*
X258684819Y-270581547D01*
X258684819Y-270581547D02*
X258684819Y-270391071D01*
X258684819Y-270391071D02*
X258637200Y-270295833D01*
X258637200Y-270295833D02*
X258589580Y-270248214D01*
X258589580Y-270248214D02*
X258494342Y-270200595D01*
X258494342Y-270200595D02*
X258303866Y-270200595D01*
X258303866Y-270200595D02*
X258208628Y-270248214D01*
X258208628Y-270248214D02*
X258161009Y-270295833D01*
X258161009Y-270295833D02*
X258113390Y-270391071D01*
X259004819Y-275534404D02*
X258004819Y-275534404D01*
X259004819Y-274962976D02*
X258433390Y-275391547D01*
X258004819Y-274962976D02*
X258576247Y-275534404D01*
X305516069Y-254261785D02*
X304516069Y-254261785D01*
X304516069Y-254261785D02*
X304516069Y-254023690D01*
X304516069Y-254023690D02*
X304563688Y-253880833D01*
X304563688Y-253880833D02*
X304658926Y-253785595D01*
X304658926Y-253785595D02*
X304754164Y-253737976D01*
X304754164Y-253737976D02*
X304944640Y-253690357D01*
X304944640Y-253690357D02*
X305087497Y-253690357D01*
X305087497Y-253690357D02*
X305277973Y-253737976D01*
X305277973Y-253737976D02*
X305373211Y-253785595D01*
X305373211Y-253785595D02*
X305468450Y-253880833D01*
X305468450Y-253880833D02*
X305516069Y-254023690D01*
X305516069Y-254023690D02*
X305516069Y-254261785D01*
X304516069Y-253357023D02*
X304516069Y-252690357D01*
X304516069Y-252690357D02*
X305516069Y-253118928D01*
X305516069Y-251785595D02*
X305516069Y-252357023D01*
X305516069Y-252071309D02*
X304516069Y-252071309D01*
X304516069Y-252071309D02*
X304658926Y-252166547D01*
X304658926Y-252166547D02*
X304754164Y-252261785D01*
X304754164Y-252261785D02*
X304801783Y-252357023D01*
X305836069Y-257119404D02*
X304836069Y-257119404D01*
X305836069Y-256547976D02*
X305264640Y-256976547D01*
X304836069Y-256547976D02*
X305407497Y-257119404D01*
X65803569Y-329191785D02*
X64803569Y-329191785D01*
X64803569Y-329191785D02*
X64803569Y-328953690D01*
X64803569Y-328953690D02*
X64851188Y-328810833D01*
X64851188Y-328810833D02*
X64946426Y-328715595D01*
X64946426Y-328715595D02*
X65041664Y-328667976D01*
X65041664Y-328667976D02*
X65232140Y-328620357D01*
X65232140Y-328620357D02*
X65374997Y-328620357D01*
X65374997Y-328620357D02*
X65565473Y-328667976D01*
X65565473Y-328667976D02*
X65660711Y-328715595D01*
X65660711Y-328715595D02*
X65755950Y-328810833D01*
X65755950Y-328810833D02*
X65803569Y-328953690D01*
X65803569Y-328953690D02*
X65803569Y-329191785D01*
X65803569Y-327667976D02*
X65803569Y-328239404D01*
X65803569Y-327953690D02*
X64803569Y-327953690D01*
X64803569Y-327953690D02*
X64946426Y-328048928D01*
X64946426Y-328048928D02*
X65041664Y-328144166D01*
X65041664Y-328144166D02*
X65089283Y-328239404D01*
X65803569Y-326715595D02*
X65803569Y-327287023D01*
X65803569Y-327001309D02*
X64803569Y-327001309D01*
X64803569Y-327001309D02*
X64946426Y-327096547D01*
X64946426Y-327096547D02*
X65041664Y-327191785D01*
X65041664Y-327191785D02*
X65089283Y-327287023D01*
X66123569Y-332049404D02*
X65123569Y-332049404D01*
X66123569Y-331477976D02*
X65552140Y-331906547D01*
X65123569Y-331477976D02*
X65694997Y-332049404D01*
X336472319Y-286805535D02*
X335472319Y-286805535D01*
X335472319Y-286805535D02*
X335472319Y-286567440D01*
X335472319Y-286567440D02*
X335519938Y-286424583D01*
X335519938Y-286424583D02*
X335615176Y-286329345D01*
X335615176Y-286329345D02*
X335710414Y-286281726D01*
X335710414Y-286281726D02*
X335900890Y-286234107D01*
X335900890Y-286234107D02*
X336043747Y-286234107D01*
X336043747Y-286234107D02*
X336234223Y-286281726D01*
X336234223Y-286281726D02*
X336329461Y-286329345D01*
X336329461Y-286329345D02*
X336424700Y-286424583D01*
X336424700Y-286424583D02*
X336472319Y-286567440D01*
X336472319Y-286567440D02*
X336472319Y-286805535D01*
X335472319Y-285900773D02*
X335472319Y-285234107D01*
X335472319Y-285234107D02*
X336472319Y-285662678D01*
X335567557Y-284900773D02*
X335519938Y-284853154D01*
X335519938Y-284853154D02*
X335472319Y-284757916D01*
X335472319Y-284757916D02*
X335472319Y-284519821D01*
X335472319Y-284519821D02*
X335519938Y-284424583D01*
X335519938Y-284424583D02*
X335567557Y-284376964D01*
X335567557Y-284376964D02*
X335662795Y-284329345D01*
X335662795Y-284329345D02*
X335758033Y-284329345D01*
X335758033Y-284329345D02*
X335900890Y-284376964D01*
X335900890Y-284376964D02*
X336472319Y-284948392D01*
X336472319Y-284948392D02*
X336472319Y-284329345D01*
X336792319Y-289663154D02*
X335792319Y-289663154D01*
X336792319Y-289091726D02*
X336220890Y-289520297D01*
X335792319Y-289091726D02*
X336363747Y-289663154D01*
X158672319Y-310776785D02*
X157672319Y-310776785D01*
X157672319Y-310776785D02*
X157672319Y-310538690D01*
X157672319Y-310538690D02*
X157719938Y-310395833D01*
X157719938Y-310395833D02*
X157815176Y-310300595D01*
X157815176Y-310300595D02*
X157910414Y-310252976D01*
X157910414Y-310252976D02*
X158100890Y-310205357D01*
X158100890Y-310205357D02*
X158243747Y-310205357D01*
X158243747Y-310205357D02*
X158434223Y-310252976D01*
X158434223Y-310252976D02*
X158529461Y-310300595D01*
X158529461Y-310300595D02*
X158624700Y-310395833D01*
X158624700Y-310395833D02*
X158672319Y-310538690D01*
X158672319Y-310538690D02*
X158672319Y-310776785D01*
X157672319Y-309872023D02*
X157672319Y-309252976D01*
X157672319Y-309252976D02*
X158053271Y-309586309D01*
X158053271Y-309586309D02*
X158053271Y-309443452D01*
X158053271Y-309443452D02*
X158100890Y-309348214D01*
X158100890Y-309348214D02*
X158148509Y-309300595D01*
X158148509Y-309300595D02*
X158243747Y-309252976D01*
X158243747Y-309252976D02*
X158481842Y-309252976D01*
X158481842Y-309252976D02*
X158577080Y-309300595D01*
X158577080Y-309300595D02*
X158624700Y-309348214D01*
X158624700Y-309348214D02*
X158672319Y-309443452D01*
X158672319Y-309443452D02*
X158672319Y-309729166D01*
X158672319Y-309729166D02*
X158624700Y-309824404D01*
X158624700Y-309824404D02*
X158577080Y-309872023D01*
X158005652Y-308395833D02*
X158672319Y-308395833D01*
X157624700Y-308633928D02*
X158338985Y-308872023D01*
X158338985Y-308872023D02*
X158338985Y-308252976D01*
X158992319Y-313634404D02*
X157992319Y-313634404D01*
X158992319Y-313062976D02*
X158420890Y-313491547D01*
X157992319Y-313062976D02*
X158563747Y-313634404D01*
X297688095Y-330473569D02*
X297688095Y-329473569D01*
X297688095Y-329949759D02*
X298259523Y-329949759D01*
X298259523Y-330473569D02*
X298259523Y-329473569D01*
X298688095Y-329568807D02*
X298735714Y-329521188D01*
X298735714Y-329521188D02*
X298830952Y-329473569D01*
X298830952Y-329473569D02*
X299069047Y-329473569D01*
X299069047Y-329473569D02*
X299164285Y-329521188D01*
X299164285Y-329521188D02*
X299211904Y-329568807D01*
X299211904Y-329568807D02*
X299259523Y-329664045D01*
X299259523Y-329664045D02*
X299259523Y-329759283D01*
X299259523Y-329759283D02*
X299211904Y-329902140D01*
X299211904Y-329902140D02*
X298640476Y-330473569D01*
X298640476Y-330473569D02*
X299259523Y-330473569D01*
X153116069Y-253626785D02*
X152116069Y-253626785D01*
X152116069Y-253626785D02*
X152116069Y-253388690D01*
X152116069Y-253388690D02*
X152163688Y-253245833D01*
X152163688Y-253245833D02*
X152258926Y-253150595D01*
X152258926Y-253150595D02*
X152354164Y-253102976D01*
X152354164Y-253102976D02*
X152544640Y-253055357D01*
X152544640Y-253055357D02*
X152687497Y-253055357D01*
X152687497Y-253055357D02*
X152877973Y-253102976D01*
X152877973Y-253102976D02*
X152973211Y-253150595D01*
X152973211Y-253150595D02*
X153068450Y-253245833D01*
X153068450Y-253245833D02*
X153116069Y-253388690D01*
X153116069Y-253388690D02*
X153116069Y-253626785D01*
X152116069Y-252722023D02*
X152116069Y-252102976D01*
X152116069Y-252102976D02*
X152497021Y-252436309D01*
X152497021Y-252436309D02*
X152497021Y-252293452D01*
X152497021Y-252293452D02*
X152544640Y-252198214D01*
X152544640Y-252198214D02*
X152592259Y-252150595D01*
X152592259Y-252150595D02*
X152687497Y-252102976D01*
X152687497Y-252102976D02*
X152925592Y-252102976D01*
X152925592Y-252102976D02*
X153020830Y-252150595D01*
X153020830Y-252150595D02*
X153068450Y-252198214D01*
X153068450Y-252198214D02*
X153116069Y-252293452D01*
X153116069Y-252293452D02*
X153116069Y-252579166D01*
X153116069Y-252579166D02*
X153068450Y-252674404D01*
X153068450Y-252674404D02*
X153020830Y-252722023D01*
X152116069Y-251769642D02*
X152116069Y-251102976D01*
X152116069Y-251102976D02*
X153116069Y-251531547D01*
X153436069Y-256484404D02*
X152436069Y-256484404D01*
X153436069Y-255912976D02*
X152864640Y-256341547D01*
X152436069Y-255912976D02*
X153007497Y-256484404D01*
X256134819Y-329264285D02*
X255134819Y-329264285D01*
X255134819Y-329264285D02*
X255134819Y-329026190D01*
X255134819Y-329026190D02*
X255182438Y-328883333D01*
X255182438Y-328883333D02*
X255277676Y-328788095D01*
X255277676Y-328788095D02*
X255372914Y-328740476D01*
X255372914Y-328740476D02*
X255563390Y-328692857D01*
X255563390Y-328692857D02*
X255706247Y-328692857D01*
X255706247Y-328692857D02*
X255896723Y-328740476D01*
X255896723Y-328740476D02*
X255991961Y-328788095D01*
X255991961Y-328788095D02*
X256087200Y-328883333D01*
X256087200Y-328883333D02*
X256134819Y-329026190D01*
X256134819Y-329026190D02*
X256134819Y-329264285D01*
X255134819Y-328359523D02*
X255134819Y-327740476D01*
X255134819Y-327740476D02*
X255515771Y-328073809D01*
X255515771Y-328073809D02*
X255515771Y-327930952D01*
X255515771Y-327930952D02*
X255563390Y-327835714D01*
X255563390Y-327835714D02*
X255611009Y-327788095D01*
X255611009Y-327788095D02*
X255706247Y-327740476D01*
X255706247Y-327740476D02*
X255944342Y-327740476D01*
X255944342Y-327740476D02*
X256039580Y-327788095D01*
X256039580Y-327788095D02*
X256087200Y-327835714D01*
X256087200Y-327835714D02*
X256134819Y-327930952D01*
X256134819Y-327930952D02*
X256134819Y-328216666D01*
X256134819Y-328216666D02*
X256087200Y-328311904D01*
X256087200Y-328311904D02*
X256039580Y-328359523D01*
X255134819Y-326835714D02*
X255134819Y-327311904D01*
X255134819Y-327311904D02*
X255611009Y-327359523D01*
X255611009Y-327359523D02*
X255563390Y-327311904D01*
X255563390Y-327311904D02*
X255515771Y-327216666D01*
X255515771Y-327216666D02*
X255515771Y-326978571D01*
X255515771Y-326978571D02*
X255563390Y-326883333D01*
X255563390Y-326883333D02*
X255611009Y-326835714D01*
X255611009Y-326835714D02*
X255706247Y-326788095D01*
X255706247Y-326788095D02*
X255944342Y-326788095D01*
X255944342Y-326788095D02*
X256039580Y-326835714D01*
X256039580Y-326835714D02*
X256087200Y-326883333D01*
X256087200Y-326883333D02*
X256134819Y-326978571D01*
X256134819Y-326978571D02*
X256134819Y-327216666D01*
X256134819Y-327216666D02*
X256087200Y-327311904D01*
X256087200Y-327311904D02*
X256039580Y-327359523D01*
X256454819Y-332121904D02*
X255454819Y-332121904D01*
X256454819Y-331550476D02*
X255883390Y-331979047D01*
X255454819Y-331550476D02*
X256026247Y-332121904D01*
X310549819Y-309983035D02*
X309549819Y-309983035D01*
X309549819Y-309983035D02*
X309549819Y-309744940D01*
X309549819Y-309744940D02*
X309597438Y-309602083D01*
X309597438Y-309602083D02*
X309692676Y-309506845D01*
X309692676Y-309506845D02*
X309787914Y-309459226D01*
X309787914Y-309459226D02*
X309978390Y-309411607D01*
X309978390Y-309411607D02*
X310121247Y-309411607D01*
X310121247Y-309411607D02*
X310311723Y-309459226D01*
X310311723Y-309459226D02*
X310406961Y-309506845D01*
X310406961Y-309506845D02*
X310502200Y-309602083D01*
X310502200Y-309602083D02*
X310549819Y-309744940D01*
X310549819Y-309744940D02*
X310549819Y-309983035D01*
X309549819Y-308506845D02*
X309549819Y-308983035D01*
X309549819Y-308983035D02*
X310026009Y-309030654D01*
X310026009Y-309030654D02*
X309978390Y-308983035D01*
X309978390Y-308983035D02*
X309930771Y-308887797D01*
X309930771Y-308887797D02*
X309930771Y-308649702D01*
X309930771Y-308649702D02*
X309978390Y-308554464D01*
X309978390Y-308554464D02*
X310026009Y-308506845D01*
X310026009Y-308506845D02*
X310121247Y-308459226D01*
X310121247Y-308459226D02*
X310359342Y-308459226D01*
X310359342Y-308459226D02*
X310454580Y-308506845D01*
X310454580Y-308506845D02*
X310502200Y-308554464D01*
X310502200Y-308554464D02*
X310549819Y-308649702D01*
X310549819Y-308649702D02*
X310549819Y-308887797D01*
X310549819Y-308887797D02*
X310502200Y-308983035D01*
X310502200Y-308983035D02*
X310454580Y-309030654D01*
X309549819Y-308125892D02*
X309549819Y-307506845D01*
X309549819Y-307506845D02*
X309930771Y-307840178D01*
X309930771Y-307840178D02*
X309930771Y-307697321D01*
X309930771Y-307697321D02*
X309978390Y-307602083D01*
X309978390Y-307602083D02*
X310026009Y-307554464D01*
X310026009Y-307554464D02*
X310121247Y-307506845D01*
X310121247Y-307506845D02*
X310359342Y-307506845D01*
X310359342Y-307506845D02*
X310454580Y-307554464D01*
X310454580Y-307554464D02*
X310502200Y-307602083D01*
X310502200Y-307602083D02*
X310549819Y-307697321D01*
X310549819Y-307697321D02*
X310549819Y-307983035D01*
X310549819Y-307983035D02*
X310502200Y-308078273D01*
X310502200Y-308078273D02*
X310454580Y-308125892D01*
X310229819Y-305220654D02*
X309229819Y-305220654D01*
X310229819Y-304649226D02*
X309658390Y-305077797D01*
X309229819Y-304649226D02*
X309801247Y-305220654D01*
X172166069Y-253626785D02*
X171166069Y-253626785D01*
X171166069Y-253626785D02*
X171166069Y-253388690D01*
X171166069Y-253388690D02*
X171213688Y-253245833D01*
X171213688Y-253245833D02*
X171308926Y-253150595D01*
X171308926Y-253150595D02*
X171404164Y-253102976D01*
X171404164Y-253102976D02*
X171594640Y-253055357D01*
X171594640Y-253055357D02*
X171737497Y-253055357D01*
X171737497Y-253055357D02*
X171927973Y-253102976D01*
X171927973Y-253102976D02*
X172023211Y-253150595D01*
X172023211Y-253150595D02*
X172118450Y-253245833D01*
X172118450Y-253245833D02*
X172166069Y-253388690D01*
X172166069Y-253388690D02*
X172166069Y-253626785D01*
X171499402Y-252198214D02*
X172166069Y-252198214D01*
X171118450Y-252436309D02*
X171832735Y-252674404D01*
X171832735Y-252674404D02*
X171832735Y-252055357D01*
X171166069Y-251769642D02*
X171166069Y-251150595D01*
X171166069Y-251150595D02*
X171547021Y-251483928D01*
X171547021Y-251483928D02*
X171547021Y-251341071D01*
X171547021Y-251341071D02*
X171594640Y-251245833D01*
X171594640Y-251245833D02*
X171642259Y-251198214D01*
X171642259Y-251198214D02*
X171737497Y-251150595D01*
X171737497Y-251150595D02*
X171975592Y-251150595D01*
X171975592Y-251150595D02*
X172070830Y-251198214D01*
X172070830Y-251198214D02*
X172118450Y-251245833D01*
X172118450Y-251245833D02*
X172166069Y-251341071D01*
X172166069Y-251341071D02*
X172166069Y-251626785D01*
X172166069Y-251626785D02*
X172118450Y-251722023D01*
X172118450Y-251722023D02*
X172070830Y-251769642D01*
X172486069Y-256484404D02*
X171486069Y-256484404D01*
X172486069Y-255912976D02*
X171914640Y-256341547D01*
X171486069Y-255912976D02*
X172057497Y-256484404D01*
X111047319Y-291726785D02*
X110047319Y-291726785D01*
X110047319Y-291726785D02*
X110047319Y-291488690D01*
X110047319Y-291488690D02*
X110094938Y-291345833D01*
X110094938Y-291345833D02*
X110190176Y-291250595D01*
X110190176Y-291250595D02*
X110285414Y-291202976D01*
X110285414Y-291202976D02*
X110475890Y-291155357D01*
X110475890Y-291155357D02*
X110618747Y-291155357D01*
X110618747Y-291155357D02*
X110809223Y-291202976D01*
X110809223Y-291202976D02*
X110904461Y-291250595D01*
X110904461Y-291250595D02*
X110999700Y-291345833D01*
X110999700Y-291345833D02*
X111047319Y-291488690D01*
X111047319Y-291488690D02*
X111047319Y-291726785D01*
X110142557Y-290774404D02*
X110094938Y-290726785D01*
X110094938Y-290726785D02*
X110047319Y-290631547D01*
X110047319Y-290631547D02*
X110047319Y-290393452D01*
X110047319Y-290393452D02*
X110094938Y-290298214D01*
X110094938Y-290298214D02*
X110142557Y-290250595D01*
X110142557Y-290250595D02*
X110237795Y-290202976D01*
X110237795Y-290202976D02*
X110333033Y-290202976D01*
X110333033Y-290202976D02*
X110475890Y-290250595D01*
X110475890Y-290250595D02*
X111047319Y-290822023D01*
X111047319Y-290822023D02*
X111047319Y-290202976D01*
X111047319Y-289250595D02*
X111047319Y-289822023D01*
X111047319Y-289536309D02*
X110047319Y-289536309D01*
X110047319Y-289536309D02*
X110190176Y-289631547D01*
X110190176Y-289631547D02*
X110285414Y-289726785D01*
X110285414Y-289726785D02*
X110333033Y-289822023D01*
X111367319Y-294584404D02*
X110367319Y-294584404D01*
X111367319Y-294012976D02*
X110795890Y-294441547D01*
X110367319Y-294012976D02*
X110938747Y-294584404D01*
X149147319Y-291568035D02*
X148147319Y-291568035D01*
X148147319Y-291568035D02*
X148147319Y-291329940D01*
X148147319Y-291329940D02*
X148194938Y-291187083D01*
X148194938Y-291187083D02*
X148290176Y-291091845D01*
X148290176Y-291091845D02*
X148385414Y-291044226D01*
X148385414Y-291044226D02*
X148575890Y-290996607D01*
X148575890Y-290996607D02*
X148718747Y-290996607D01*
X148718747Y-290996607D02*
X148909223Y-291044226D01*
X148909223Y-291044226D02*
X149004461Y-291091845D01*
X149004461Y-291091845D02*
X149099700Y-291187083D01*
X149099700Y-291187083D02*
X149147319Y-291329940D01*
X149147319Y-291329940D02*
X149147319Y-291568035D01*
X148147319Y-290663273D02*
X148147319Y-290044226D01*
X148147319Y-290044226D02*
X148528271Y-290377559D01*
X148528271Y-290377559D02*
X148528271Y-290234702D01*
X148528271Y-290234702D02*
X148575890Y-290139464D01*
X148575890Y-290139464D02*
X148623509Y-290091845D01*
X148623509Y-290091845D02*
X148718747Y-290044226D01*
X148718747Y-290044226D02*
X148956842Y-290044226D01*
X148956842Y-290044226D02*
X149052080Y-290091845D01*
X149052080Y-290091845D02*
X149099700Y-290139464D01*
X149099700Y-290139464D02*
X149147319Y-290234702D01*
X149147319Y-290234702D02*
X149147319Y-290520416D01*
X149147319Y-290520416D02*
X149099700Y-290615654D01*
X149099700Y-290615654D02*
X149052080Y-290663273D01*
X148147319Y-289710892D02*
X148147319Y-289091845D01*
X148147319Y-289091845D02*
X148528271Y-289425178D01*
X148528271Y-289425178D02*
X148528271Y-289282321D01*
X148528271Y-289282321D02*
X148575890Y-289187083D01*
X148575890Y-289187083D02*
X148623509Y-289139464D01*
X148623509Y-289139464D02*
X148718747Y-289091845D01*
X148718747Y-289091845D02*
X148956842Y-289091845D01*
X148956842Y-289091845D02*
X149052080Y-289139464D01*
X149052080Y-289139464D02*
X149099700Y-289187083D01*
X149099700Y-289187083D02*
X149147319Y-289282321D01*
X149147319Y-289282321D02*
X149147319Y-289568035D01*
X149147319Y-289568035D02*
X149099700Y-289663273D01*
X149099700Y-289663273D02*
X149052080Y-289710892D01*
X149467319Y-294425654D02*
X148467319Y-294425654D01*
X149467319Y-293854226D02*
X148895890Y-294282797D01*
X148467319Y-293854226D02*
X149038747Y-294425654D01*
X139622319Y-310776785D02*
X138622319Y-310776785D01*
X138622319Y-310776785D02*
X138622319Y-310538690D01*
X138622319Y-310538690D02*
X138669938Y-310395833D01*
X138669938Y-310395833D02*
X138765176Y-310300595D01*
X138765176Y-310300595D02*
X138860414Y-310252976D01*
X138860414Y-310252976D02*
X139050890Y-310205357D01*
X139050890Y-310205357D02*
X139193747Y-310205357D01*
X139193747Y-310205357D02*
X139384223Y-310252976D01*
X139384223Y-310252976D02*
X139479461Y-310300595D01*
X139479461Y-310300595D02*
X139574700Y-310395833D01*
X139574700Y-310395833D02*
X139622319Y-310538690D01*
X139622319Y-310538690D02*
X139622319Y-310776785D01*
X138717557Y-309824404D02*
X138669938Y-309776785D01*
X138669938Y-309776785D02*
X138622319Y-309681547D01*
X138622319Y-309681547D02*
X138622319Y-309443452D01*
X138622319Y-309443452D02*
X138669938Y-309348214D01*
X138669938Y-309348214D02*
X138717557Y-309300595D01*
X138717557Y-309300595D02*
X138812795Y-309252976D01*
X138812795Y-309252976D02*
X138908033Y-309252976D01*
X138908033Y-309252976D02*
X139050890Y-309300595D01*
X139050890Y-309300595D02*
X139622319Y-309872023D01*
X139622319Y-309872023D02*
X139622319Y-309252976D01*
X139050890Y-308681547D02*
X139003271Y-308776785D01*
X139003271Y-308776785D02*
X138955652Y-308824404D01*
X138955652Y-308824404D02*
X138860414Y-308872023D01*
X138860414Y-308872023D02*
X138812795Y-308872023D01*
X138812795Y-308872023D02*
X138717557Y-308824404D01*
X138717557Y-308824404D02*
X138669938Y-308776785D01*
X138669938Y-308776785D02*
X138622319Y-308681547D01*
X138622319Y-308681547D02*
X138622319Y-308491071D01*
X138622319Y-308491071D02*
X138669938Y-308395833D01*
X138669938Y-308395833D02*
X138717557Y-308348214D01*
X138717557Y-308348214D02*
X138812795Y-308300595D01*
X138812795Y-308300595D02*
X138860414Y-308300595D01*
X138860414Y-308300595D02*
X138955652Y-308348214D01*
X138955652Y-308348214D02*
X139003271Y-308395833D01*
X139003271Y-308395833D02*
X139050890Y-308491071D01*
X139050890Y-308491071D02*
X139050890Y-308681547D01*
X139050890Y-308681547D02*
X139098509Y-308776785D01*
X139098509Y-308776785D02*
X139146128Y-308824404D01*
X139146128Y-308824404D02*
X139241366Y-308872023D01*
X139241366Y-308872023D02*
X139431842Y-308872023D01*
X139431842Y-308872023D02*
X139527080Y-308824404D01*
X139527080Y-308824404D02*
X139574700Y-308776785D01*
X139574700Y-308776785D02*
X139622319Y-308681547D01*
X139622319Y-308681547D02*
X139622319Y-308491071D01*
X139622319Y-308491071D02*
X139574700Y-308395833D01*
X139574700Y-308395833D02*
X139527080Y-308348214D01*
X139527080Y-308348214D02*
X139431842Y-308300595D01*
X139431842Y-308300595D02*
X139241366Y-308300595D01*
X139241366Y-308300595D02*
X139146128Y-308348214D01*
X139146128Y-308348214D02*
X139098509Y-308395833D01*
X139098509Y-308395833D02*
X139050890Y-308491071D01*
X139942319Y-313634404D02*
X138942319Y-313634404D01*
X139942319Y-313062976D02*
X139370890Y-313491547D01*
X138942319Y-313062976D02*
X139513747Y-313634404D01*
X405344464Y-295197319D02*
X405344464Y-294197319D01*
X405344464Y-294197319D02*
X405582559Y-294197319D01*
X405582559Y-294197319D02*
X405725416Y-294244938D01*
X405725416Y-294244938D02*
X405820654Y-294340176D01*
X405820654Y-294340176D02*
X405868273Y-294435414D01*
X405868273Y-294435414D02*
X405915892Y-294625890D01*
X405915892Y-294625890D02*
X405915892Y-294768747D01*
X405915892Y-294768747D02*
X405868273Y-294959223D01*
X405868273Y-294959223D02*
X405820654Y-295054461D01*
X405820654Y-295054461D02*
X405725416Y-295149700D01*
X405725416Y-295149700D02*
X405582559Y-295197319D01*
X405582559Y-295197319D02*
X405344464Y-295197319D01*
X406249226Y-294197319D02*
X406915892Y-294197319D01*
X406915892Y-294197319D02*
X406487321Y-295197319D01*
X407487321Y-294197319D02*
X407582559Y-294197319D01*
X407582559Y-294197319D02*
X407677797Y-294244938D01*
X407677797Y-294244938D02*
X407725416Y-294292557D01*
X407725416Y-294292557D02*
X407773035Y-294387795D01*
X407773035Y-294387795D02*
X407820654Y-294578271D01*
X407820654Y-294578271D02*
X407820654Y-294816366D01*
X407820654Y-294816366D02*
X407773035Y-295006842D01*
X407773035Y-295006842D02*
X407725416Y-295102080D01*
X407725416Y-295102080D02*
X407677797Y-295149700D01*
X407677797Y-295149700D02*
X407582559Y-295197319D01*
X407582559Y-295197319D02*
X407487321Y-295197319D01*
X407487321Y-295197319D02*
X407392083Y-295149700D01*
X407392083Y-295149700D02*
X407344464Y-295102080D01*
X407344464Y-295102080D02*
X407296845Y-295006842D01*
X407296845Y-295006842D02*
X407249226Y-294816366D01*
X407249226Y-294816366D02*
X407249226Y-294578271D01*
X407249226Y-294578271D02*
X407296845Y-294387795D01*
X407296845Y-294387795D02*
X407344464Y-294292557D01*
X407344464Y-294292557D02*
X407392083Y-294244938D01*
X407392083Y-294244938D02*
X407487321Y-294197319D01*
X402486845Y-295517319D02*
X402486845Y-294517319D01*
X403058273Y-295517319D02*
X402629702Y-294945890D01*
X403058273Y-294517319D02*
X402486845Y-295088747D01*
X38816069Y-252356844D02*
X37816069Y-252356844D01*
X37816069Y-252356844D02*
X37816069Y-252118749D01*
X37816069Y-252118749D02*
X37863688Y-251975892D01*
X37863688Y-251975892D02*
X37958926Y-251880654D01*
X37958926Y-251880654D02*
X38054164Y-251833035D01*
X38054164Y-251833035D02*
X38244640Y-251785416D01*
X38244640Y-251785416D02*
X38387497Y-251785416D01*
X38387497Y-251785416D02*
X38577973Y-251833035D01*
X38577973Y-251833035D02*
X38673211Y-251880654D01*
X38673211Y-251880654D02*
X38768450Y-251975892D01*
X38768450Y-251975892D02*
X38816069Y-252118749D01*
X38816069Y-252118749D02*
X38816069Y-252356844D01*
X38816069Y-250833035D02*
X38816069Y-251404463D01*
X38816069Y-251118749D02*
X37816069Y-251118749D01*
X37816069Y-251118749D02*
X37958926Y-251213987D01*
X37958926Y-251213987D02*
X38054164Y-251309225D01*
X38054164Y-251309225D02*
X38101783Y-251404463D01*
X39136069Y-255690654D02*
X38136069Y-255690654D01*
X39136069Y-255119226D02*
X38564640Y-255547797D01*
X38136069Y-255119226D02*
X38707497Y-255690654D01*
X244397319Y-291726785D02*
X243397319Y-291726785D01*
X243397319Y-291726785D02*
X243397319Y-291488690D01*
X243397319Y-291488690D02*
X243444938Y-291345833D01*
X243444938Y-291345833D02*
X243540176Y-291250595D01*
X243540176Y-291250595D02*
X243635414Y-291202976D01*
X243635414Y-291202976D02*
X243825890Y-291155357D01*
X243825890Y-291155357D02*
X243968747Y-291155357D01*
X243968747Y-291155357D02*
X244159223Y-291202976D01*
X244159223Y-291202976D02*
X244254461Y-291250595D01*
X244254461Y-291250595D02*
X244349700Y-291345833D01*
X244349700Y-291345833D02*
X244397319Y-291488690D01*
X244397319Y-291488690D02*
X244397319Y-291726785D01*
X243397319Y-290298214D02*
X243397319Y-290488690D01*
X243397319Y-290488690D02*
X243444938Y-290583928D01*
X243444938Y-290583928D02*
X243492557Y-290631547D01*
X243492557Y-290631547D02*
X243635414Y-290726785D01*
X243635414Y-290726785D02*
X243825890Y-290774404D01*
X243825890Y-290774404D02*
X244206842Y-290774404D01*
X244206842Y-290774404D02*
X244302080Y-290726785D01*
X244302080Y-290726785D02*
X244349700Y-290679166D01*
X244349700Y-290679166D02*
X244397319Y-290583928D01*
X244397319Y-290583928D02*
X244397319Y-290393452D01*
X244397319Y-290393452D02*
X244349700Y-290298214D01*
X244349700Y-290298214D02*
X244302080Y-290250595D01*
X244302080Y-290250595D02*
X244206842Y-290202976D01*
X244206842Y-290202976D02*
X243968747Y-290202976D01*
X243968747Y-290202976D02*
X243873509Y-290250595D01*
X243873509Y-290250595D02*
X243825890Y-290298214D01*
X243825890Y-290298214D02*
X243778271Y-290393452D01*
X243778271Y-290393452D02*
X243778271Y-290583928D01*
X243778271Y-290583928D02*
X243825890Y-290679166D01*
X243825890Y-290679166D02*
X243873509Y-290726785D01*
X243873509Y-290726785D02*
X243968747Y-290774404D01*
X243397319Y-289869642D02*
X243397319Y-289250595D01*
X243397319Y-289250595D02*
X243778271Y-289583928D01*
X243778271Y-289583928D02*
X243778271Y-289441071D01*
X243778271Y-289441071D02*
X243825890Y-289345833D01*
X243825890Y-289345833D02*
X243873509Y-289298214D01*
X243873509Y-289298214D02*
X243968747Y-289250595D01*
X243968747Y-289250595D02*
X244206842Y-289250595D01*
X244206842Y-289250595D02*
X244302080Y-289298214D01*
X244302080Y-289298214D02*
X244349700Y-289345833D01*
X244349700Y-289345833D02*
X244397319Y-289441071D01*
X244397319Y-289441071D02*
X244397319Y-289726785D01*
X244397319Y-289726785D02*
X244349700Y-289822023D01*
X244349700Y-289822023D02*
X244302080Y-289869642D01*
X244717319Y-294584404D02*
X243717319Y-294584404D01*
X244717319Y-294012976D02*
X244145890Y-294441547D01*
X243717319Y-294012976D02*
X244288747Y-294584404D01*
X210266069Y-253468035D02*
X209266069Y-253468035D01*
X209266069Y-253468035D02*
X209266069Y-253229940D01*
X209266069Y-253229940D02*
X209313688Y-253087083D01*
X209313688Y-253087083D02*
X209408926Y-252991845D01*
X209408926Y-252991845D02*
X209504164Y-252944226D01*
X209504164Y-252944226D02*
X209694640Y-252896607D01*
X209694640Y-252896607D02*
X209837497Y-252896607D01*
X209837497Y-252896607D02*
X210027973Y-252944226D01*
X210027973Y-252944226D02*
X210123211Y-252991845D01*
X210123211Y-252991845D02*
X210218450Y-253087083D01*
X210218450Y-253087083D02*
X210266069Y-253229940D01*
X210266069Y-253229940D02*
X210266069Y-253468035D01*
X209266069Y-251991845D02*
X209266069Y-252468035D01*
X209266069Y-252468035D02*
X209742259Y-252515654D01*
X209742259Y-252515654D02*
X209694640Y-252468035D01*
X209694640Y-252468035D02*
X209647021Y-252372797D01*
X209647021Y-252372797D02*
X209647021Y-252134702D01*
X209647021Y-252134702D02*
X209694640Y-252039464D01*
X209694640Y-252039464D02*
X209742259Y-251991845D01*
X209742259Y-251991845D02*
X209837497Y-251944226D01*
X209837497Y-251944226D02*
X210075592Y-251944226D01*
X210075592Y-251944226D02*
X210170830Y-251991845D01*
X210170830Y-251991845D02*
X210218450Y-252039464D01*
X210218450Y-252039464D02*
X210266069Y-252134702D01*
X210266069Y-252134702D02*
X210266069Y-252372797D01*
X210266069Y-252372797D02*
X210218450Y-252468035D01*
X210218450Y-252468035D02*
X210170830Y-252515654D01*
X209266069Y-251039464D02*
X209266069Y-251515654D01*
X209266069Y-251515654D02*
X209742259Y-251563273D01*
X209742259Y-251563273D02*
X209694640Y-251515654D01*
X209694640Y-251515654D02*
X209647021Y-251420416D01*
X209647021Y-251420416D02*
X209647021Y-251182321D01*
X209647021Y-251182321D02*
X209694640Y-251087083D01*
X209694640Y-251087083D02*
X209742259Y-251039464D01*
X209742259Y-251039464D02*
X209837497Y-250991845D01*
X209837497Y-250991845D02*
X210075592Y-250991845D01*
X210075592Y-250991845D02*
X210170830Y-251039464D01*
X210170830Y-251039464D02*
X210218450Y-251087083D01*
X210218450Y-251087083D02*
X210266069Y-251182321D01*
X210266069Y-251182321D02*
X210266069Y-251420416D01*
X210266069Y-251420416D02*
X210218450Y-251515654D01*
X210218450Y-251515654D02*
X210170830Y-251563273D01*
X210586069Y-256325654D02*
X209586069Y-256325654D01*
X210586069Y-255754226D02*
X210014640Y-256182797D01*
X209586069Y-255754226D02*
X210157497Y-256325654D01*
X68184819Y-272200594D02*
X67184819Y-272200594D01*
X67184819Y-272200594D02*
X67184819Y-271962499D01*
X67184819Y-271962499D02*
X67232438Y-271819642D01*
X67232438Y-271819642D02*
X67327676Y-271724404D01*
X67327676Y-271724404D02*
X67422914Y-271676785D01*
X67422914Y-271676785D02*
X67613390Y-271629166D01*
X67613390Y-271629166D02*
X67756247Y-271629166D01*
X67756247Y-271629166D02*
X67946723Y-271676785D01*
X67946723Y-271676785D02*
X68041961Y-271724404D01*
X68041961Y-271724404D02*
X68137200Y-271819642D01*
X68137200Y-271819642D02*
X68184819Y-271962499D01*
X68184819Y-271962499D02*
X68184819Y-272200594D01*
X67613390Y-271057737D02*
X67565771Y-271152975D01*
X67565771Y-271152975D02*
X67518152Y-271200594D01*
X67518152Y-271200594D02*
X67422914Y-271248213D01*
X67422914Y-271248213D02*
X67375295Y-271248213D01*
X67375295Y-271248213D02*
X67280057Y-271200594D01*
X67280057Y-271200594D02*
X67232438Y-271152975D01*
X67232438Y-271152975D02*
X67184819Y-271057737D01*
X67184819Y-271057737D02*
X67184819Y-270867261D01*
X67184819Y-270867261D02*
X67232438Y-270772023D01*
X67232438Y-270772023D02*
X67280057Y-270724404D01*
X67280057Y-270724404D02*
X67375295Y-270676785D01*
X67375295Y-270676785D02*
X67422914Y-270676785D01*
X67422914Y-270676785D02*
X67518152Y-270724404D01*
X67518152Y-270724404D02*
X67565771Y-270772023D01*
X67565771Y-270772023D02*
X67613390Y-270867261D01*
X67613390Y-270867261D02*
X67613390Y-271057737D01*
X67613390Y-271057737D02*
X67661009Y-271152975D01*
X67661009Y-271152975D02*
X67708628Y-271200594D01*
X67708628Y-271200594D02*
X67803866Y-271248213D01*
X67803866Y-271248213D02*
X67994342Y-271248213D01*
X67994342Y-271248213D02*
X68089580Y-271200594D01*
X68089580Y-271200594D02*
X68137200Y-271152975D01*
X68137200Y-271152975D02*
X68184819Y-271057737D01*
X68184819Y-271057737D02*
X68184819Y-270867261D01*
X68184819Y-270867261D02*
X68137200Y-270772023D01*
X68137200Y-270772023D02*
X68089580Y-270724404D01*
X68089580Y-270724404D02*
X67994342Y-270676785D01*
X67994342Y-270676785D02*
X67803866Y-270676785D01*
X67803866Y-270676785D02*
X67708628Y-270724404D01*
X67708628Y-270724404D02*
X67661009Y-270772023D01*
X67661009Y-270772023D02*
X67613390Y-270867261D01*
X68504819Y-275534404D02*
X67504819Y-275534404D01*
X68504819Y-274962976D02*
X67933390Y-275391547D01*
X67504819Y-274962976D02*
X68076247Y-275534404D01*
X248366069Y-253626785D02*
X247366069Y-253626785D01*
X247366069Y-253626785D02*
X247366069Y-253388690D01*
X247366069Y-253388690D02*
X247413688Y-253245833D01*
X247413688Y-253245833D02*
X247508926Y-253150595D01*
X247508926Y-253150595D02*
X247604164Y-253102976D01*
X247604164Y-253102976D02*
X247794640Y-253055357D01*
X247794640Y-253055357D02*
X247937497Y-253055357D01*
X247937497Y-253055357D02*
X248127973Y-253102976D01*
X248127973Y-253102976D02*
X248223211Y-253150595D01*
X248223211Y-253150595D02*
X248318450Y-253245833D01*
X248318450Y-253245833D02*
X248366069Y-253388690D01*
X248366069Y-253388690D02*
X248366069Y-253626785D01*
X247366069Y-252198214D02*
X247366069Y-252388690D01*
X247366069Y-252388690D02*
X247413688Y-252483928D01*
X247413688Y-252483928D02*
X247461307Y-252531547D01*
X247461307Y-252531547D02*
X247604164Y-252626785D01*
X247604164Y-252626785D02*
X247794640Y-252674404D01*
X247794640Y-252674404D02*
X248175592Y-252674404D01*
X248175592Y-252674404D02*
X248270830Y-252626785D01*
X248270830Y-252626785D02*
X248318450Y-252579166D01*
X248318450Y-252579166D02*
X248366069Y-252483928D01*
X248366069Y-252483928D02*
X248366069Y-252293452D01*
X248366069Y-252293452D02*
X248318450Y-252198214D01*
X248318450Y-252198214D02*
X248270830Y-252150595D01*
X248270830Y-252150595D02*
X248175592Y-252102976D01*
X248175592Y-252102976D02*
X247937497Y-252102976D01*
X247937497Y-252102976D02*
X247842259Y-252150595D01*
X247842259Y-252150595D02*
X247794640Y-252198214D01*
X247794640Y-252198214D02*
X247747021Y-252293452D01*
X247747021Y-252293452D02*
X247747021Y-252483928D01*
X247747021Y-252483928D02*
X247794640Y-252579166D01*
X247794640Y-252579166D02*
X247842259Y-252626785D01*
X247842259Y-252626785D02*
X247937497Y-252674404D01*
X247366069Y-251769642D02*
X247366069Y-251102976D01*
X247366069Y-251102976D02*
X248366069Y-251531547D01*
X248686069Y-256484404D02*
X247686069Y-256484404D01*
X248686069Y-255912976D02*
X248114640Y-256341547D01*
X247686069Y-255912976D02*
X248257497Y-256484404D01*
X388432910Y-287284104D02*
X388909100Y-287284104D01*
X388337672Y-287569819D02*
X388671005Y-286569819D01*
X388671005Y-286569819D02*
X389004338Y-287569819D01*
X389861481Y-287569819D02*
X389290053Y-287569819D01*
X389575767Y-287569819D02*
X389575767Y-286569819D01*
X389575767Y-286569819D02*
X389480529Y-286712676D01*
X389480529Y-286712676D02*
X389385291Y-286807914D01*
X389385291Y-286807914D02*
X389290053Y-286855533D01*
X101522319Y-310776785D02*
X100522319Y-310776785D01*
X100522319Y-310776785D02*
X100522319Y-310538690D01*
X100522319Y-310538690D02*
X100569938Y-310395833D01*
X100569938Y-310395833D02*
X100665176Y-310300595D01*
X100665176Y-310300595D02*
X100760414Y-310252976D01*
X100760414Y-310252976D02*
X100950890Y-310205357D01*
X100950890Y-310205357D02*
X101093747Y-310205357D01*
X101093747Y-310205357D02*
X101284223Y-310252976D01*
X101284223Y-310252976D02*
X101379461Y-310300595D01*
X101379461Y-310300595D02*
X101474700Y-310395833D01*
X101474700Y-310395833D02*
X101522319Y-310538690D01*
X101522319Y-310538690D02*
X101522319Y-310776785D01*
X101522319Y-309252976D02*
X101522319Y-309824404D01*
X101522319Y-309538690D02*
X100522319Y-309538690D01*
X100522319Y-309538690D02*
X100665176Y-309633928D01*
X100665176Y-309633928D02*
X100760414Y-309729166D01*
X100760414Y-309729166D02*
X100808033Y-309824404D01*
X100522319Y-308395833D02*
X100522319Y-308586309D01*
X100522319Y-308586309D02*
X100569938Y-308681547D01*
X100569938Y-308681547D02*
X100617557Y-308729166D01*
X100617557Y-308729166D02*
X100760414Y-308824404D01*
X100760414Y-308824404D02*
X100950890Y-308872023D01*
X100950890Y-308872023D02*
X101331842Y-308872023D01*
X101331842Y-308872023D02*
X101427080Y-308824404D01*
X101427080Y-308824404D02*
X101474700Y-308776785D01*
X101474700Y-308776785D02*
X101522319Y-308681547D01*
X101522319Y-308681547D02*
X101522319Y-308491071D01*
X101522319Y-308491071D02*
X101474700Y-308395833D01*
X101474700Y-308395833D02*
X101427080Y-308348214D01*
X101427080Y-308348214D02*
X101331842Y-308300595D01*
X101331842Y-308300595D02*
X101093747Y-308300595D01*
X101093747Y-308300595D02*
X100998509Y-308348214D01*
X100998509Y-308348214D02*
X100950890Y-308395833D01*
X100950890Y-308395833D02*
X100903271Y-308491071D01*
X100903271Y-308491071D02*
X100903271Y-308681547D01*
X100903271Y-308681547D02*
X100950890Y-308776785D01*
X100950890Y-308776785D02*
X100998509Y-308824404D01*
X100998509Y-308824404D02*
X101093747Y-308872023D01*
X101842319Y-313634404D02*
X100842319Y-313634404D01*
X101842319Y-313062976D02*
X101270890Y-313491547D01*
X100842319Y-313062976D02*
X101413747Y-313634404D01*
X215822319Y-310935535D02*
X214822319Y-310935535D01*
X214822319Y-310935535D02*
X214822319Y-310697440D01*
X214822319Y-310697440D02*
X214869938Y-310554583D01*
X214869938Y-310554583D02*
X214965176Y-310459345D01*
X214965176Y-310459345D02*
X215060414Y-310411726D01*
X215060414Y-310411726D02*
X215250890Y-310364107D01*
X215250890Y-310364107D02*
X215393747Y-310364107D01*
X215393747Y-310364107D02*
X215584223Y-310411726D01*
X215584223Y-310411726D02*
X215679461Y-310459345D01*
X215679461Y-310459345D02*
X215774700Y-310554583D01*
X215774700Y-310554583D02*
X215822319Y-310697440D01*
X215822319Y-310697440D02*
X215822319Y-310935535D01*
X214822319Y-309459345D02*
X214822319Y-309935535D01*
X214822319Y-309935535D02*
X215298509Y-309983154D01*
X215298509Y-309983154D02*
X215250890Y-309935535D01*
X215250890Y-309935535D02*
X215203271Y-309840297D01*
X215203271Y-309840297D02*
X215203271Y-309602202D01*
X215203271Y-309602202D02*
X215250890Y-309506964D01*
X215250890Y-309506964D02*
X215298509Y-309459345D01*
X215298509Y-309459345D02*
X215393747Y-309411726D01*
X215393747Y-309411726D02*
X215631842Y-309411726D01*
X215631842Y-309411726D02*
X215727080Y-309459345D01*
X215727080Y-309459345D02*
X215774700Y-309506964D01*
X215774700Y-309506964D02*
X215822319Y-309602202D01*
X215822319Y-309602202D02*
X215822319Y-309840297D01*
X215822319Y-309840297D02*
X215774700Y-309935535D01*
X215774700Y-309935535D02*
X215727080Y-309983154D01*
X214917557Y-309030773D02*
X214869938Y-308983154D01*
X214869938Y-308983154D02*
X214822319Y-308887916D01*
X214822319Y-308887916D02*
X214822319Y-308649821D01*
X214822319Y-308649821D02*
X214869938Y-308554583D01*
X214869938Y-308554583D02*
X214917557Y-308506964D01*
X214917557Y-308506964D02*
X215012795Y-308459345D01*
X215012795Y-308459345D02*
X215108033Y-308459345D01*
X215108033Y-308459345D02*
X215250890Y-308506964D01*
X215250890Y-308506964D02*
X215822319Y-309078392D01*
X215822319Y-309078392D02*
X215822319Y-308459345D01*
X216142319Y-313793154D02*
X215142319Y-313793154D01*
X216142319Y-313221726D02*
X215570890Y-313650297D01*
X215142319Y-313221726D02*
X215713747Y-313793154D01*
X209211069Y-298870535D02*
X208211069Y-298870535D01*
X208211069Y-298870535D02*
X208211069Y-298632440D01*
X208211069Y-298632440D02*
X208258688Y-298489583D01*
X208258688Y-298489583D02*
X208353926Y-298394345D01*
X208353926Y-298394345D02*
X208449164Y-298346726D01*
X208449164Y-298346726D02*
X208639640Y-298299107D01*
X208639640Y-298299107D02*
X208782497Y-298299107D01*
X208782497Y-298299107D02*
X208972973Y-298346726D01*
X208972973Y-298346726D02*
X209068211Y-298394345D01*
X209068211Y-298394345D02*
X209163450Y-298489583D01*
X209163450Y-298489583D02*
X209211069Y-298632440D01*
X209211069Y-298632440D02*
X209211069Y-298870535D01*
X208211069Y-297394345D02*
X208211069Y-297870535D01*
X208211069Y-297870535D02*
X208687259Y-297918154D01*
X208687259Y-297918154D02*
X208639640Y-297870535D01*
X208639640Y-297870535D02*
X208592021Y-297775297D01*
X208592021Y-297775297D02*
X208592021Y-297537202D01*
X208592021Y-297537202D02*
X208639640Y-297441964D01*
X208639640Y-297441964D02*
X208687259Y-297394345D01*
X208687259Y-297394345D02*
X208782497Y-297346726D01*
X208782497Y-297346726D02*
X209020592Y-297346726D01*
X209020592Y-297346726D02*
X209115830Y-297394345D01*
X209115830Y-297394345D02*
X209163450Y-297441964D01*
X209163450Y-297441964D02*
X209211069Y-297537202D01*
X209211069Y-297537202D02*
X209211069Y-297775297D01*
X209211069Y-297775297D02*
X209163450Y-297870535D01*
X209163450Y-297870535D02*
X209115830Y-297918154D01*
X209211069Y-296394345D02*
X209211069Y-296965773D01*
X209211069Y-296680059D02*
X208211069Y-296680059D01*
X208211069Y-296680059D02*
X208353926Y-296775297D01*
X208353926Y-296775297D02*
X208449164Y-296870535D01*
X208449164Y-296870535D02*
X208496783Y-296965773D01*
X206617319Y-297124404D02*
X205617319Y-297124404D01*
X206617319Y-296552976D02*
X206045890Y-296981547D01*
X205617319Y-296552976D02*
X206188747Y-297124404D01*
X82472319Y-310776785D02*
X81472319Y-310776785D01*
X81472319Y-310776785D02*
X81472319Y-310538690D01*
X81472319Y-310538690D02*
X81519938Y-310395833D01*
X81519938Y-310395833D02*
X81615176Y-310300595D01*
X81615176Y-310300595D02*
X81710414Y-310252976D01*
X81710414Y-310252976D02*
X81900890Y-310205357D01*
X81900890Y-310205357D02*
X82043747Y-310205357D01*
X82043747Y-310205357D02*
X82234223Y-310252976D01*
X82234223Y-310252976D02*
X82329461Y-310300595D01*
X82329461Y-310300595D02*
X82424700Y-310395833D01*
X82424700Y-310395833D02*
X82472319Y-310538690D01*
X82472319Y-310538690D02*
X82472319Y-310776785D01*
X82472319Y-309252976D02*
X82472319Y-309824404D01*
X82472319Y-309538690D02*
X81472319Y-309538690D01*
X81472319Y-309538690D02*
X81615176Y-309633928D01*
X81615176Y-309633928D02*
X81710414Y-309729166D01*
X81710414Y-309729166D02*
X81758033Y-309824404D01*
X81472319Y-308633928D02*
X81472319Y-308538690D01*
X81472319Y-308538690D02*
X81519938Y-308443452D01*
X81519938Y-308443452D02*
X81567557Y-308395833D01*
X81567557Y-308395833D02*
X81662795Y-308348214D01*
X81662795Y-308348214D02*
X81853271Y-308300595D01*
X81853271Y-308300595D02*
X82091366Y-308300595D01*
X82091366Y-308300595D02*
X82281842Y-308348214D01*
X82281842Y-308348214D02*
X82377080Y-308395833D01*
X82377080Y-308395833D02*
X82424700Y-308443452D01*
X82424700Y-308443452D02*
X82472319Y-308538690D01*
X82472319Y-308538690D02*
X82472319Y-308633928D01*
X82472319Y-308633928D02*
X82424700Y-308729166D01*
X82424700Y-308729166D02*
X82377080Y-308776785D01*
X82377080Y-308776785D02*
X82281842Y-308824404D01*
X82281842Y-308824404D02*
X82091366Y-308872023D01*
X82091366Y-308872023D02*
X81853271Y-308872023D01*
X81853271Y-308872023D02*
X81662795Y-308824404D01*
X81662795Y-308824404D02*
X81567557Y-308776785D01*
X81567557Y-308776785D02*
X81519938Y-308729166D01*
X81519938Y-308729166D02*
X81472319Y-308633928D01*
X82792319Y-313634404D02*
X81792319Y-313634404D01*
X82792319Y-313062976D02*
X82220890Y-313491547D01*
X81792319Y-313062976D02*
X82363747Y-313634404D01*
X44372319Y-272041844D02*
X43372319Y-272041844D01*
X43372319Y-272041844D02*
X43372319Y-271803749D01*
X43372319Y-271803749D02*
X43419938Y-271660892D01*
X43419938Y-271660892D02*
X43515176Y-271565654D01*
X43515176Y-271565654D02*
X43610414Y-271518035D01*
X43610414Y-271518035D02*
X43800890Y-271470416D01*
X43800890Y-271470416D02*
X43943747Y-271470416D01*
X43943747Y-271470416D02*
X44134223Y-271518035D01*
X44134223Y-271518035D02*
X44229461Y-271565654D01*
X44229461Y-271565654D02*
X44324700Y-271660892D01*
X44324700Y-271660892D02*
X44372319Y-271803749D01*
X44372319Y-271803749D02*
X44372319Y-272041844D01*
X43467557Y-271089463D02*
X43419938Y-271041844D01*
X43419938Y-271041844D02*
X43372319Y-270946606D01*
X43372319Y-270946606D02*
X43372319Y-270708511D01*
X43372319Y-270708511D02*
X43419938Y-270613273D01*
X43419938Y-270613273D02*
X43467557Y-270565654D01*
X43467557Y-270565654D02*
X43562795Y-270518035D01*
X43562795Y-270518035D02*
X43658033Y-270518035D01*
X43658033Y-270518035D02*
X43800890Y-270565654D01*
X43800890Y-270565654D02*
X44372319Y-271137082D01*
X44372319Y-271137082D02*
X44372319Y-270518035D01*
X44692319Y-275375654D02*
X43692319Y-275375654D01*
X44692319Y-274804226D02*
X44120890Y-275232797D01*
X43692319Y-274804226D02*
X44263747Y-275375654D01*
X234872319Y-309983035D02*
X233872319Y-309983035D01*
X233872319Y-309983035D02*
X233872319Y-309744940D01*
X233872319Y-309744940D02*
X233919938Y-309602083D01*
X233919938Y-309602083D02*
X234015176Y-309506845D01*
X234015176Y-309506845D02*
X234110414Y-309459226D01*
X234110414Y-309459226D02*
X234300890Y-309411607D01*
X234300890Y-309411607D02*
X234443747Y-309411607D01*
X234443747Y-309411607D02*
X234634223Y-309459226D01*
X234634223Y-309459226D02*
X234729461Y-309506845D01*
X234729461Y-309506845D02*
X234824700Y-309602083D01*
X234824700Y-309602083D02*
X234872319Y-309744940D01*
X234872319Y-309744940D02*
X234872319Y-309983035D01*
X233872319Y-308506845D02*
X233872319Y-308983035D01*
X233872319Y-308983035D02*
X234348509Y-309030654D01*
X234348509Y-309030654D02*
X234300890Y-308983035D01*
X234300890Y-308983035D02*
X234253271Y-308887797D01*
X234253271Y-308887797D02*
X234253271Y-308649702D01*
X234253271Y-308649702D02*
X234300890Y-308554464D01*
X234300890Y-308554464D02*
X234348509Y-308506845D01*
X234348509Y-308506845D02*
X234443747Y-308459226D01*
X234443747Y-308459226D02*
X234681842Y-308459226D01*
X234681842Y-308459226D02*
X234777080Y-308506845D01*
X234777080Y-308506845D02*
X234824700Y-308554464D01*
X234824700Y-308554464D02*
X234872319Y-308649702D01*
X234872319Y-308649702D02*
X234872319Y-308887797D01*
X234872319Y-308887797D02*
X234824700Y-308983035D01*
X234824700Y-308983035D02*
X234777080Y-309030654D01*
X234300890Y-307887797D02*
X234253271Y-307983035D01*
X234253271Y-307983035D02*
X234205652Y-308030654D01*
X234205652Y-308030654D02*
X234110414Y-308078273D01*
X234110414Y-308078273D02*
X234062795Y-308078273D01*
X234062795Y-308078273D02*
X233967557Y-308030654D01*
X233967557Y-308030654D02*
X233919938Y-307983035D01*
X233919938Y-307983035D02*
X233872319Y-307887797D01*
X233872319Y-307887797D02*
X233872319Y-307697321D01*
X233872319Y-307697321D02*
X233919938Y-307602083D01*
X233919938Y-307602083D02*
X233967557Y-307554464D01*
X233967557Y-307554464D02*
X234062795Y-307506845D01*
X234062795Y-307506845D02*
X234110414Y-307506845D01*
X234110414Y-307506845D02*
X234205652Y-307554464D01*
X234205652Y-307554464D02*
X234253271Y-307602083D01*
X234253271Y-307602083D02*
X234300890Y-307697321D01*
X234300890Y-307697321D02*
X234300890Y-307887797D01*
X234300890Y-307887797D02*
X234348509Y-307983035D01*
X234348509Y-307983035D02*
X234396128Y-308030654D01*
X234396128Y-308030654D02*
X234491366Y-308078273D01*
X234491366Y-308078273D02*
X234681842Y-308078273D01*
X234681842Y-308078273D02*
X234777080Y-308030654D01*
X234777080Y-308030654D02*
X234824700Y-307983035D01*
X234824700Y-307983035D02*
X234872319Y-307887797D01*
X234872319Y-307887797D02*
X234872319Y-307697321D01*
X234872319Y-307697321D02*
X234824700Y-307602083D01*
X234824700Y-307602083D02*
X234777080Y-307554464D01*
X234777080Y-307554464D02*
X234681842Y-307506845D01*
X234681842Y-307506845D02*
X234491366Y-307506845D01*
X234491366Y-307506845D02*
X234396128Y-307554464D01*
X234396128Y-307554464D02*
X234348509Y-307602083D01*
X234348509Y-307602083D02*
X234300890Y-307697321D01*
X235192319Y-312840654D02*
X234192319Y-312840654D01*
X235192319Y-312269226D02*
X234620890Y-312697797D01*
X234192319Y-312269226D02*
X234763747Y-312840654D01*
X191216069Y-253468035D02*
X190216069Y-253468035D01*
X190216069Y-253468035D02*
X190216069Y-253229940D01*
X190216069Y-253229940D02*
X190263688Y-253087083D01*
X190263688Y-253087083D02*
X190358926Y-252991845D01*
X190358926Y-252991845D02*
X190454164Y-252944226D01*
X190454164Y-252944226D02*
X190644640Y-252896607D01*
X190644640Y-252896607D02*
X190787497Y-252896607D01*
X190787497Y-252896607D02*
X190977973Y-252944226D01*
X190977973Y-252944226D02*
X191073211Y-252991845D01*
X191073211Y-252991845D02*
X191168450Y-253087083D01*
X191168450Y-253087083D02*
X191216069Y-253229940D01*
X191216069Y-253229940D02*
X191216069Y-253468035D01*
X190549402Y-252039464D02*
X191216069Y-252039464D01*
X190168450Y-252277559D02*
X190882735Y-252515654D01*
X190882735Y-252515654D02*
X190882735Y-251896607D01*
X191216069Y-251468035D02*
X191216069Y-251277559D01*
X191216069Y-251277559D02*
X191168450Y-251182321D01*
X191168450Y-251182321D02*
X191120830Y-251134702D01*
X191120830Y-251134702D02*
X190977973Y-251039464D01*
X190977973Y-251039464D02*
X190787497Y-250991845D01*
X190787497Y-250991845D02*
X190406545Y-250991845D01*
X190406545Y-250991845D02*
X190311307Y-251039464D01*
X190311307Y-251039464D02*
X190263688Y-251087083D01*
X190263688Y-251087083D02*
X190216069Y-251182321D01*
X190216069Y-251182321D02*
X190216069Y-251372797D01*
X190216069Y-251372797D02*
X190263688Y-251468035D01*
X190263688Y-251468035D02*
X190311307Y-251515654D01*
X190311307Y-251515654D02*
X190406545Y-251563273D01*
X190406545Y-251563273D02*
X190644640Y-251563273D01*
X190644640Y-251563273D02*
X190739878Y-251515654D01*
X190739878Y-251515654D02*
X190787497Y-251468035D01*
X190787497Y-251468035D02*
X190835116Y-251372797D01*
X190835116Y-251372797D02*
X190835116Y-251182321D01*
X190835116Y-251182321D02*
X190787497Y-251087083D01*
X190787497Y-251087083D02*
X190739878Y-251039464D01*
X190739878Y-251039464D02*
X190644640Y-250991845D01*
X191536069Y-256325654D02*
X190536069Y-256325654D01*
X191536069Y-255754226D02*
X190964640Y-256182797D01*
X190536069Y-255754226D02*
X191107497Y-256325654D01*
X134066069Y-252991785D02*
X133066069Y-252991785D01*
X133066069Y-252991785D02*
X133066069Y-252753690D01*
X133066069Y-252753690D02*
X133113688Y-252610833D01*
X133113688Y-252610833D02*
X133208926Y-252515595D01*
X133208926Y-252515595D02*
X133304164Y-252467976D01*
X133304164Y-252467976D02*
X133494640Y-252420357D01*
X133494640Y-252420357D02*
X133637497Y-252420357D01*
X133637497Y-252420357D02*
X133827973Y-252467976D01*
X133827973Y-252467976D02*
X133923211Y-252515595D01*
X133923211Y-252515595D02*
X134018450Y-252610833D01*
X134018450Y-252610833D02*
X134066069Y-252753690D01*
X134066069Y-252753690D02*
X134066069Y-252991785D01*
X133066069Y-252087023D02*
X133066069Y-251467976D01*
X133066069Y-251467976D02*
X133447021Y-251801309D01*
X133447021Y-251801309D02*
X133447021Y-251658452D01*
X133447021Y-251658452D02*
X133494640Y-251563214D01*
X133494640Y-251563214D02*
X133542259Y-251515595D01*
X133542259Y-251515595D02*
X133637497Y-251467976D01*
X133637497Y-251467976D02*
X133875592Y-251467976D01*
X133875592Y-251467976D02*
X133970830Y-251515595D01*
X133970830Y-251515595D02*
X134018450Y-251563214D01*
X134018450Y-251563214D02*
X134066069Y-251658452D01*
X134066069Y-251658452D02*
X134066069Y-251944166D01*
X134066069Y-251944166D02*
X134018450Y-252039404D01*
X134018450Y-252039404D02*
X133970830Y-252087023D01*
X134066069Y-250515595D02*
X134066069Y-251087023D01*
X134066069Y-250801309D02*
X133066069Y-250801309D01*
X133066069Y-250801309D02*
X133208926Y-250896547D01*
X133208926Y-250896547D02*
X133304164Y-250991785D01*
X133304164Y-250991785D02*
X133351783Y-251087023D01*
X134386069Y-255849404D02*
X133386069Y-255849404D01*
X134386069Y-255277976D02*
X133814640Y-255706547D01*
X133386069Y-255277976D02*
X133957497Y-255849404D01*
X125334819Y-272676785D02*
X124334819Y-272676785D01*
X124334819Y-272676785D02*
X124334819Y-272438690D01*
X124334819Y-272438690D02*
X124382438Y-272295833D01*
X124382438Y-272295833D02*
X124477676Y-272200595D01*
X124477676Y-272200595D02*
X124572914Y-272152976D01*
X124572914Y-272152976D02*
X124763390Y-272105357D01*
X124763390Y-272105357D02*
X124906247Y-272105357D01*
X124906247Y-272105357D02*
X125096723Y-272152976D01*
X125096723Y-272152976D02*
X125191961Y-272200595D01*
X125191961Y-272200595D02*
X125287200Y-272295833D01*
X125287200Y-272295833D02*
X125334819Y-272438690D01*
X125334819Y-272438690D02*
X125334819Y-272676785D01*
X124430057Y-271724404D02*
X124382438Y-271676785D01*
X124382438Y-271676785D02*
X124334819Y-271581547D01*
X124334819Y-271581547D02*
X124334819Y-271343452D01*
X124334819Y-271343452D02*
X124382438Y-271248214D01*
X124382438Y-271248214D02*
X124430057Y-271200595D01*
X124430057Y-271200595D02*
X124525295Y-271152976D01*
X124525295Y-271152976D02*
X124620533Y-271152976D01*
X124620533Y-271152976D02*
X124763390Y-271200595D01*
X124763390Y-271200595D02*
X125334819Y-271772023D01*
X125334819Y-271772023D02*
X125334819Y-271152976D01*
X124334819Y-270295833D02*
X124334819Y-270486309D01*
X124334819Y-270486309D02*
X124382438Y-270581547D01*
X124382438Y-270581547D02*
X124430057Y-270629166D01*
X124430057Y-270629166D02*
X124572914Y-270724404D01*
X124572914Y-270724404D02*
X124763390Y-270772023D01*
X124763390Y-270772023D02*
X125144342Y-270772023D01*
X125144342Y-270772023D02*
X125239580Y-270724404D01*
X125239580Y-270724404D02*
X125287200Y-270676785D01*
X125287200Y-270676785D02*
X125334819Y-270581547D01*
X125334819Y-270581547D02*
X125334819Y-270391071D01*
X125334819Y-270391071D02*
X125287200Y-270295833D01*
X125287200Y-270295833D02*
X125239580Y-270248214D01*
X125239580Y-270248214D02*
X125144342Y-270200595D01*
X125144342Y-270200595D02*
X124906247Y-270200595D01*
X124906247Y-270200595D02*
X124811009Y-270248214D01*
X124811009Y-270248214D02*
X124763390Y-270295833D01*
X124763390Y-270295833D02*
X124715771Y-270391071D01*
X124715771Y-270391071D02*
X124715771Y-270581547D01*
X124715771Y-270581547D02*
X124763390Y-270676785D01*
X124763390Y-270676785D02*
X124811009Y-270724404D01*
X124811009Y-270724404D02*
X124906247Y-270772023D01*
X125654819Y-275534404D02*
X124654819Y-275534404D01*
X125654819Y-274962976D02*
X125083390Y-275391547D01*
X124654819Y-274962976D02*
X125226247Y-275534404D01*
X161053569Y-329826785D02*
X160053569Y-329826785D01*
X160053569Y-329826785D02*
X160053569Y-329588690D01*
X160053569Y-329588690D02*
X160101188Y-329445833D01*
X160101188Y-329445833D02*
X160196426Y-329350595D01*
X160196426Y-329350595D02*
X160291664Y-329302976D01*
X160291664Y-329302976D02*
X160482140Y-329255357D01*
X160482140Y-329255357D02*
X160624997Y-329255357D01*
X160624997Y-329255357D02*
X160815473Y-329302976D01*
X160815473Y-329302976D02*
X160910711Y-329350595D01*
X160910711Y-329350595D02*
X161005950Y-329445833D01*
X161005950Y-329445833D02*
X161053569Y-329588690D01*
X161053569Y-329588690D02*
X161053569Y-329826785D01*
X160148807Y-328874404D02*
X160101188Y-328826785D01*
X160101188Y-328826785D02*
X160053569Y-328731547D01*
X160053569Y-328731547D02*
X160053569Y-328493452D01*
X160053569Y-328493452D02*
X160101188Y-328398214D01*
X160101188Y-328398214D02*
X160148807Y-328350595D01*
X160148807Y-328350595D02*
X160244045Y-328302976D01*
X160244045Y-328302976D02*
X160339283Y-328302976D01*
X160339283Y-328302976D02*
X160482140Y-328350595D01*
X160482140Y-328350595D02*
X161053569Y-328922023D01*
X161053569Y-328922023D02*
X161053569Y-328302976D01*
X160053569Y-327969642D02*
X160053569Y-327350595D01*
X160053569Y-327350595D02*
X160434521Y-327683928D01*
X160434521Y-327683928D02*
X160434521Y-327541071D01*
X160434521Y-327541071D02*
X160482140Y-327445833D01*
X160482140Y-327445833D02*
X160529759Y-327398214D01*
X160529759Y-327398214D02*
X160624997Y-327350595D01*
X160624997Y-327350595D02*
X160863092Y-327350595D01*
X160863092Y-327350595D02*
X160958330Y-327398214D01*
X160958330Y-327398214D02*
X161005950Y-327445833D01*
X161005950Y-327445833D02*
X161053569Y-327541071D01*
X161053569Y-327541071D02*
X161053569Y-327826785D01*
X161053569Y-327826785D02*
X161005950Y-327922023D01*
X161005950Y-327922023D02*
X160958330Y-327969642D01*
X161373569Y-332684404D02*
X160373569Y-332684404D01*
X161373569Y-332112976D02*
X160802140Y-332541547D01*
X160373569Y-332112976D02*
X160944997Y-332684404D01*
X18288095Y-339204819D02*
X18288095Y-338204819D01*
X18288095Y-338681009D02*
X18859523Y-338681009D01*
X18859523Y-339204819D02*
X18859523Y-338204819D01*
X19764285Y-338538152D02*
X19764285Y-339204819D01*
X19526190Y-338157200D02*
X19288095Y-338871485D01*
X19288095Y-338871485D02*
X19907142Y-338871485D01*
X351553569Y-309983035D02*
X350553569Y-309983035D01*
X350553569Y-309983035D02*
X350553569Y-309744940D01*
X350553569Y-309744940D02*
X350601188Y-309602083D01*
X350601188Y-309602083D02*
X350696426Y-309506845D01*
X350696426Y-309506845D02*
X350791664Y-309459226D01*
X350791664Y-309459226D02*
X350982140Y-309411607D01*
X350982140Y-309411607D02*
X351124997Y-309411607D01*
X351124997Y-309411607D02*
X351315473Y-309459226D01*
X351315473Y-309459226D02*
X351410711Y-309506845D01*
X351410711Y-309506845D02*
X351505950Y-309602083D01*
X351505950Y-309602083D02*
X351553569Y-309744940D01*
X351553569Y-309744940D02*
X351553569Y-309983035D01*
X350553569Y-309078273D02*
X350553569Y-308459226D01*
X350553569Y-308459226D02*
X350934521Y-308792559D01*
X350934521Y-308792559D02*
X350934521Y-308649702D01*
X350934521Y-308649702D02*
X350982140Y-308554464D01*
X350982140Y-308554464D02*
X351029759Y-308506845D01*
X351029759Y-308506845D02*
X351124997Y-308459226D01*
X351124997Y-308459226D02*
X351363092Y-308459226D01*
X351363092Y-308459226D02*
X351458330Y-308506845D01*
X351458330Y-308506845D02*
X351505950Y-308554464D01*
X351505950Y-308554464D02*
X351553569Y-308649702D01*
X351553569Y-308649702D02*
X351553569Y-308935416D01*
X351553569Y-308935416D02*
X351505950Y-309030654D01*
X351505950Y-309030654D02*
X351458330Y-309078273D01*
X350553569Y-307602083D02*
X350553569Y-307792559D01*
X350553569Y-307792559D02*
X350601188Y-307887797D01*
X350601188Y-307887797D02*
X350648807Y-307935416D01*
X350648807Y-307935416D02*
X350791664Y-308030654D01*
X350791664Y-308030654D02*
X350982140Y-308078273D01*
X350982140Y-308078273D02*
X351363092Y-308078273D01*
X351363092Y-308078273D02*
X351458330Y-308030654D01*
X351458330Y-308030654D02*
X351505950Y-307983035D01*
X351505950Y-307983035D02*
X351553569Y-307887797D01*
X351553569Y-307887797D02*
X351553569Y-307697321D01*
X351553569Y-307697321D02*
X351505950Y-307602083D01*
X351505950Y-307602083D02*
X351458330Y-307554464D01*
X351458330Y-307554464D02*
X351363092Y-307506845D01*
X351363092Y-307506845D02*
X351124997Y-307506845D01*
X351124997Y-307506845D02*
X351029759Y-307554464D01*
X351029759Y-307554464D02*
X350982140Y-307602083D01*
X350982140Y-307602083D02*
X350934521Y-307697321D01*
X350934521Y-307697321D02*
X350934521Y-307887797D01*
X350934521Y-307887797D02*
X350982140Y-307983035D01*
X350982140Y-307983035D02*
X351029759Y-308030654D01*
X351029759Y-308030654D02*
X351124997Y-308078273D01*
X351873569Y-312840654D02*
X350873569Y-312840654D01*
X351873569Y-312269226D02*
X351302140Y-312697797D01*
X350873569Y-312269226D02*
X351444997Y-312840654D01*
X177722319Y-310776785D02*
X176722319Y-310776785D01*
X176722319Y-310776785D02*
X176722319Y-310538690D01*
X176722319Y-310538690D02*
X176769938Y-310395833D01*
X176769938Y-310395833D02*
X176865176Y-310300595D01*
X176865176Y-310300595D02*
X176960414Y-310252976D01*
X176960414Y-310252976D02*
X177150890Y-310205357D01*
X177150890Y-310205357D02*
X177293747Y-310205357D01*
X177293747Y-310205357D02*
X177484223Y-310252976D01*
X177484223Y-310252976D02*
X177579461Y-310300595D01*
X177579461Y-310300595D02*
X177674700Y-310395833D01*
X177674700Y-310395833D02*
X177722319Y-310538690D01*
X177722319Y-310538690D02*
X177722319Y-310776785D01*
X177055652Y-309348214D02*
X177722319Y-309348214D01*
X176674700Y-309586309D02*
X177388985Y-309824404D01*
X177388985Y-309824404D02*
X177388985Y-309205357D01*
X176722319Y-308633928D02*
X176722319Y-308538690D01*
X176722319Y-308538690D02*
X176769938Y-308443452D01*
X176769938Y-308443452D02*
X176817557Y-308395833D01*
X176817557Y-308395833D02*
X176912795Y-308348214D01*
X176912795Y-308348214D02*
X177103271Y-308300595D01*
X177103271Y-308300595D02*
X177341366Y-308300595D01*
X177341366Y-308300595D02*
X177531842Y-308348214D01*
X177531842Y-308348214D02*
X177627080Y-308395833D01*
X177627080Y-308395833D02*
X177674700Y-308443452D01*
X177674700Y-308443452D02*
X177722319Y-308538690D01*
X177722319Y-308538690D02*
X177722319Y-308633928D01*
X177722319Y-308633928D02*
X177674700Y-308729166D01*
X177674700Y-308729166D02*
X177627080Y-308776785D01*
X177627080Y-308776785D02*
X177531842Y-308824404D01*
X177531842Y-308824404D02*
X177341366Y-308872023D01*
X177341366Y-308872023D02*
X177103271Y-308872023D01*
X177103271Y-308872023D02*
X176912795Y-308824404D01*
X176912795Y-308824404D02*
X176817557Y-308776785D01*
X176817557Y-308776785D02*
X176769938Y-308729166D01*
X176769938Y-308729166D02*
X176722319Y-308633928D01*
X178042319Y-313634404D02*
X177042319Y-313634404D01*
X178042319Y-313062976D02*
X177470890Y-313491547D01*
X177042319Y-313062976D02*
X177613747Y-313634404D01*
X359762319Y-286329285D02*
X358762319Y-286329285D01*
X358762319Y-286329285D02*
X358762319Y-286091190D01*
X358762319Y-286091190D02*
X358809938Y-285948333D01*
X358809938Y-285948333D02*
X358905176Y-285853095D01*
X358905176Y-285853095D02*
X359000414Y-285805476D01*
X359000414Y-285805476D02*
X359190890Y-285757857D01*
X359190890Y-285757857D02*
X359333747Y-285757857D01*
X359333747Y-285757857D02*
X359524223Y-285805476D01*
X359524223Y-285805476D02*
X359619461Y-285853095D01*
X359619461Y-285853095D02*
X359714700Y-285948333D01*
X359714700Y-285948333D02*
X359762319Y-286091190D01*
X359762319Y-286091190D02*
X359762319Y-286329285D01*
X358857557Y-285376904D02*
X358809938Y-285329285D01*
X358809938Y-285329285D02*
X358762319Y-285234047D01*
X358762319Y-285234047D02*
X358762319Y-284995952D01*
X358762319Y-284995952D02*
X358809938Y-284900714D01*
X358809938Y-284900714D02*
X358857557Y-284853095D01*
X358857557Y-284853095D02*
X358952795Y-284805476D01*
X358952795Y-284805476D02*
X359048033Y-284805476D01*
X359048033Y-284805476D02*
X359190890Y-284853095D01*
X359190890Y-284853095D02*
X359762319Y-285424523D01*
X359762319Y-285424523D02*
X359762319Y-284805476D01*
X359095652Y-283948333D02*
X359762319Y-283948333D01*
X358714700Y-284186428D02*
X359428985Y-284424523D01*
X359428985Y-284424523D02*
X359428985Y-283805476D01*
X359442319Y-281566904D02*
X358442319Y-281566904D01*
X359442319Y-280995476D02*
X358870890Y-281424047D01*
X358442319Y-280995476D02*
X359013747Y-281566904D01*
X412046726Y-247263450D02*
X412189583Y-247311069D01*
X412189583Y-247311069D02*
X412427678Y-247311069D01*
X412427678Y-247311069D02*
X412522916Y-247263450D01*
X412522916Y-247263450D02*
X412570535Y-247215830D01*
X412570535Y-247215830D02*
X412618154Y-247120592D01*
X412618154Y-247120592D02*
X412618154Y-247025354D01*
X412618154Y-247025354D02*
X412570535Y-246930116D01*
X412570535Y-246930116D02*
X412522916Y-246882497D01*
X412522916Y-246882497D02*
X412427678Y-246834878D01*
X412427678Y-246834878D02*
X412237202Y-246787259D01*
X412237202Y-246787259D02*
X412141964Y-246739640D01*
X412141964Y-246739640D02*
X412094345Y-246692021D01*
X412094345Y-246692021D02*
X412046726Y-246596783D01*
X412046726Y-246596783D02*
X412046726Y-246501545D01*
X412046726Y-246501545D02*
X412094345Y-246406307D01*
X412094345Y-246406307D02*
X412141964Y-246358688D01*
X412141964Y-246358688D02*
X412237202Y-246311069D01*
X412237202Y-246311069D02*
X412475297Y-246311069D01*
X412475297Y-246311069D02*
X412618154Y-246358688D01*
X412951488Y-246311069D02*
X413189583Y-247311069D01*
X413189583Y-247311069D02*
X413380059Y-246596783D01*
X413380059Y-246596783D02*
X413570535Y-247311069D01*
X413570535Y-247311069D02*
X413808631Y-246311069D01*
X414618154Y-246311069D02*
X414427678Y-246311069D01*
X414427678Y-246311069D02*
X414332440Y-246358688D01*
X414332440Y-246358688D02*
X414284821Y-246406307D01*
X414284821Y-246406307D02*
X414189583Y-246549164D01*
X414189583Y-246549164D02*
X414141964Y-246739640D01*
X414141964Y-246739640D02*
X414141964Y-247120592D01*
X414141964Y-247120592D02*
X414189583Y-247215830D01*
X414189583Y-247215830D02*
X414237202Y-247263450D01*
X414237202Y-247263450D02*
X414332440Y-247311069D01*
X414332440Y-247311069D02*
X414522916Y-247311069D01*
X414522916Y-247311069D02*
X414618154Y-247263450D01*
X414618154Y-247263450D02*
X414665773Y-247215830D01*
X414665773Y-247215830D02*
X414713392Y-247120592D01*
X414713392Y-247120592D02*
X414713392Y-246882497D01*
X414713392Y-246882497D02*
X414665773Y-246787259D01*
X414665773Y-246787259D02*
X414618154Y-246739640D01*
X414618154Y-246739640D02*
X414522916Y-246692021D01*
X414522916Y-246692021D02*
X414332440Y-246692021D01*
X414332440Y-246692021D02*
X414237202Y-246739640D01*
X414237202Y-246739640D02*
X414189583Y-246787259D01*
X414189583Y-246787259D02*
X414141964Y-246882497D01*
X415284821Y-246739640D02*
X415189583Y-246692021D01*
X415189583Y-246692021D02*
X415141964Y-246644402D01*
X415141964Y-246644402D02*
X415094345Y-246549164D01*
X415094345Y-246549164D02*
X415094345Y-246501545D01*
X415094345Y-246501545D02*
X415141964Y-246406307D01*
X415141964Y-246406307D02*
X415189583Y-246358688D01*
X415189583Y-246358688D02*
X415284821Y-246311069D01*
X415284821Y-246311069D02*
X415475297Y-246311069D01*
X415475297Y-246311069D02*
X415570535Y-246358688D01*
X415570535Y-246358688D02*
X415618154Y-246406307D01*
X415618154Y-246406307D02*
X415665773Y-246501545D01*
X415665773Y-246501545D02*
X415665773Y-246549164D01*
X415665773Y-246549164D02*
X415618154Y-246644402D01*
X415618154Y-246644402D02*
X415570535Y-246692021D01*
X415570535Y-246692021D02*
X415475297Y-246739640D01*
X415475297Y-246739640D02*
X415284821Y-246739640D01*
X415284821Y-246739640D02*
X415189583Y-246787259D01*
X415189583Y-246787259D02*
X415141964Y-246834878D01*
X415141964Y-246834878D02*
X415094345Y-246930116D01*
X415094345Y-246930116D02*
X415094345Y-247120592D01*
X415094345Y-247120592D02*
X415141964Y-247215830D01*
X415141964Y-247215830D02*
X415189583Y-247263450D01*
X415189583Y-247263450D02*
X415284821Y-247311069D01*
X415284821Y-247311069D02*
X415475297Y-247311069D01*
X415475297Y-247311069D02*
X415570535Y-247263450D01*
X415570535Y-247263450D02*
X415618154Y-247215830D01*
X415618154Y-247215830D02*
X415665773Y-247120592D01*
X415665773Y-247120592D02*
X415665773Y-246930116D01*
X415665773Y-246930116D02*
X415618154Y-246834878D01*
X415618154Y-246834878D02*
X415570535Y-246787259D01*
X415570535Y-246787259D02*
X415475297Y-246739640D01*
X319913095Y-256836069D02*
X319913095Y-255836069D01*
X319913095Y-256312259D02*
X320484523Y-256312259D01*
X320484523Y-256836069D02*
X320484523Y-255836069D01*
X321436904Y-255836069D02*
X320960714Y-255836069D01*
X320960714Y-255836069D02*
X320913095Y-256312259D01*
X320913095Y-256312259D02*
X320960714Y-256264640D01*
X320960714Y-256264640D02*
X321055952Y-256217021D01*
X321055952Y-256217021D02*
X321294047Y-256217021D01*
X321294047Y-256217021D02*
X321389285Y-256264640D01*
X321389285Y-256264640D02*
X321436904Y-256312259D01*
X321436904Y-256312259D02*
X321484523Y-256407497D01*
X321484523Y-256407497D02*
X321484523Y-256645592D01*
X321484523Y-256645592D02*
X321436904Y-256740830D01*
X321436904Y-256740830D02*
X321389285Y-256788450D01*
X321389285Y-256788450D02*
X321294047Y-256836069D01*
X321294047Y-256836069D02*
X321055952Y-256836069D01*
X321055952Y-256836069D02*
X320960714Y-256788450D01*
X320960714Y-256788450D02*
X320913095Y-256740830D01*
X88822319Y-329826785D02*
X87822319Y-329826785D01*
X87822319Y-329826785D02*
X87822319Y-329588690D01*
X87822319Y-329588690D02*
X87869938Y-329445833D01*
X87869938Y-329445833D02*
X87965176Y-329350595D01*
X87965176Y-329350595D02*
X88060414Y-329302976D01*
X88060414Y-329302976D02*
X88250890Y-329255357D01*
X88250890Y-329255357D02*
X88393747Y-329255357D01*
X88393747Y-329255357D02*
X88584223Y-329302976D01*
X88584223Y-329302976D02*
X88679461Y-329350595D01*
X88679461Y-329350595D02*
X88774700Y-329445833D01*
X88774700Y-329445833D02*
X88822319Y-329588690D01*
X88822319Y-329588690D02*
X88822319Y-329826785D01*
X88822319Y-328302976D02*
X88822319Y-328874404D01*
X88822319Y-328588690D02*
X87822319Y-328588690D01*
X87822319Y-328588690D02*
X87965176Y-328683928D01*
X87965176Y-328683928D02*
X88060414Y-328779166D01*
X88060414Y-328779166D02*
X88108033Y-328874404D01*
X87822319Y-327969642D02*
X87822319Y-327302976D01*
X87822319Y-327302976D02*
X88822319Y-327731547D01*
X89142319Y-332684404D02*
X88142319Y-332684404D01*
X89142319Y-332112976D02*
X88570890Y-332541547D01*
X88142319Y-332112976D02*
X88713747Y-332684404D01*
X301547319Y-272676785D02*
X300547319Y-272676785D01*
X300547319Y-272676785D02*
X300547319Y-272438690D01*
X300547319Y-272438690D02*
X300594938Y-272295833D01*
X300594938Y-272295833D02*
X300690176Y-272200595D01*
X300690176Y-272200595D02*
X300785414Y-272152976D01*
X300785414Y-272152976D02*
X300975890Y-272105357D01*
X300975890Y-272105357D02*
X301118747Y-272105357D01*
X301118747Y-272105357D02*
X301309223Y-272152976D01*
X301309223Y-272152976D02*
X301404461Y-272200595D01*
X301404461Y-272200595D02*
X301499700Y-272295833D01*
X301499700Y-272295833D02*
X301547319Y-272438690D01*
X301547319Y-272438690D02*
X301547319Y-272676785D01*
X300547319Y-271248214D02*
X300547319Y-271438690D01*
X300547319Y-271438690D02*
X300594938Y-271533928D01*
X300594938Y-271533928D02*
X300642557Y-271581547D01*
X300642557Y-271581547D02*
X300785414Y-271676785D01*
X300785414Y-271676785D02*
X300975890Y-271724404D01*
X300975890Y-271724404D02*
X301356842Y-271724404D01*
X301356842Y-271724404D02*
X301452080Y-271676785D01*
X301452080Y-271676785D02*
X301499700Y-271629166D01*
X301499700Y-271629166D02*
X301547319Y-271533928D01*
X301547319Y-271533928D02*
X301547319Y-271343452D01*
X301547319Y-271343452D02*
X301499700Y-271248214D01*
X301499700Y-271248214D02*
X301452080Y-271200595D01*
X301452080Y-271200595D02*
X301356842Y-271152976D01*
X301356842Y-271152976D02*
X301118747Y-271152976D01*
X301118747Y-271152976D02*
X301023509Y-271200595D01*
X301023509Y-271200595D02*
X300975890Y-271248214D01*
X300975890Y-271248214D02*
X300928271Y-271343452D01*
X300928271Y-271343452D02*
X300928271Y-271533928D01*
X300928271Y-271533928D02*
X300975890Y-271629166D01*
X300975890Y-271629166D02*
X301023509Y-271676785D01*
X301023509Y-271676785D02*
X301118747Y-271724404D01*
X300547319Y-270248214D02*
X300547319Y-270724404D01*
X300547319Y-270724404D02*
X301023509Y-270772023D01*
X301023509Y-270772023D02*
X300975890Y-270724404D01*
X300975890Y-270724404D02*
X300928271Y-270629166D01*
X300928271Y-270629166D02*
X300928271Y-270391071D01*
X300928271Y-270391071D02*
X300975890Y-270295833D01*
X300975890Y-270295833D02*
X301023509Y-270248214D01*
X301023509Y-270248214D02*
X301118747Y-270200595D01*
X301118747Y-270200595D02*
X301356842Y-270200595D01*
X301356842Y-270200595D02*
X301452080Y-270248214D01*
X301452080Y-270248214D02*
X301499700Y-270295833D01*
X301499700Y-270295833D02*
X301547319Y-270391071D01*
X301547319Y-270391071D02*
X301547319Y-270629166D01*
X301547319Y-270629166D02*
X301499700Y-270724404D01*
X301499700Y-270724404D02*
X301452080Y-270772023D01*
X301867319Y-275534404D02*
X300867319Y-275534404D01*
X301867319Y-274962976D02*
X301295890Y-275391547D01*
X300867319Y-274962976D02*
X301438747Y-275534404D01*
X363445180Y-243903095D02*
X362635657Y-243903095D01*
X362635657Y-243903095D02*
X362540419Y-243950714D01*
X362540419Y-243950714D02*
X362492800Y-243998333D01*
X362492800Y-243998333D02*
X362445180Y-244093571D01*
X362445180Y-244093571D02*
X362445180Y-244284047D01*
X362445180Y-244284047D02*
X362492800Y-244379285D01*
X362492800Y-244379285D02*
X362540419Y-244426904D01*
X362540419Y-244426904D02*
X362635657Y-244474523D01*
X362635657Y-244474523D02*
X363445180Y-244474523D01*
X362445180Y-245474523D02*
X362445180Y-244903095D01*
X362445180Y-245188809D02*
X363445180Y-245188809D01*
X363445180Y-245188809D02*
X363302323Y-245093571D01*
X363302323Y-245093571D02*
X363207085Y-244998333D01*
X363207085Y-244998333D02*
X363159466Y-244903095D01*
X76916069Y-252833035D02*
X75916069Y-252833035D01*
X75916069Y-252833035D02*
X75916069Y-252594940D01*
X75916069Y-252594940D02*
X75963688Y-252452083D01*
X75963688Y-252452083D02*
X76058926Y-252356845D01*
X76058926Y-252356845D02*
X76154164Y-252309226D01*
X76154164Y-252309226D02*
X76344640Y-252261607D01*
X76344640Y-252261607D02*
X76487497Y-252261607D01*
X76487497Y-252261607D02*
X76677973Y-252309226D01*
X76677973Y-252309226D02*
X76773211Y-252356845D01*
X76773211Y-252356845D02*
X76868450Y-252452083D01*
X76868450Y-252452083D02*
X76916069Y-252594940D01*
X76916069Y-252594940D02*
X76916069Y-252833035D01*
X76916069Y-251309226D02*
X76916069Y-251880654D01*
X76916069Y-251594940D02*
X75916069Y-251594940D01*
X75916069Y-251594940D02*
X76058926Y-251690178D01*
X76058926Y-251690178D02*
X76154164Y-251785416D01*
X76154164Y-251785416D02*
X76201783Y-251880654D01*
X75916069Y-250975892D02*
X75916069Y-250356845D01*
X75916069Y-250356845D02*
X76297021Y-250690178D01*
X76297021Y-250690178D02*
X76297021Y-250547321D01*
X76297021Y-250547321D02*
X76344640Y-250452083D01*
X76344640Y-250452083D02*
X76392259Y-250404464D01*
X76392259Y-250404464D02*
X76487497Y-250356845D01*
X76487497Y-250356845D02*
X76725592Y-250356845D01*
X76725592Y-250356845D02*
X76820830Y-250404464D01*
X76820830Y-250404464D02*
X76868450Y-250452083D01*
X76868450Y-250452083D02*
X76916069Y-250547321D01*
X76916069Y-250547321D02*
X76916069Y-250833035D01*
X76916069Y-250833035D02*
X76868450Y-250928273D01*
X76868450Y-250928273D02*
X76820830Y-250975892D01*
X77236069Y-255690654D02*
X76236069Y-255690654D01*
X77236069Y-255119226D02*
X76664640Y-255547797D01*
X76236069Y-255119226D02*
X76807497Y-255690654D01*
X263447319Y-291568035D02*
X262447319Y-291568035D01*
X262447319Y-291568035D02*
X262447319Y-291329940D01*
X262447319Y-291329940D02*
X262494938Y-291187083D01*
X262494938Y-291187083D02*
X262590176Y-291091845D01*
X262590176Y-291091845D02*
X262685414Y-291044226D01*
X262685414Y-291044226D02*
X262875890Y-290996607D01*
X262875890Y-290996607D02*
X263018747Y-290996607D01*
X263018747Y-290996607D02*
X263209223Y-291044226D01*
X263209223Y-291044226D02*
X263304461Y-291091845D01*
X263304461Y-291091845D02*
X263399700Y-291187083D01*
X263399700Y-291187083D02*
X263447319Y-291329940D01*
X263447319Y-291329940D02*
X263447319Y-291568035D01*
X262447319Y-290139464D02*
X262447319Y-290329940D01*
X262447319Y-290329940D02*
X262494938Y-290425178D01*
X262494938Y-290425178D02*
X262542557Y-290472797D01*
X262542557Y-290472797D02*
X262685414Y-290568035D01*
X262685414Y-290568035D02*
X262875890Y-290615654D01*
X262875890Y-290615654D02*
X263256842Y-290615654D01*
X263256842Y-290615654D02*
X263352080Y-290568035D01*
X263352080Y-290568035D02*
X263399700Y-290520416D01*
X263399700Y-290520416D02*
X263447319Y-290425178D01*
X263447319Y-290425178D02*
X263447319Y-290234702D01*
X263447319Y-290234702D02*
X263399700Y-290139464D01*
X263399700Y-290139464D02*
X263352080Y-290091845D01*
X263352080Y-290091845D02*
X263256842Y-290044226D01*
X263256842Y-290044226D02*
X263018747Y-290044226D01*
X263018747Y-290044226D02*
X262923509Y-290091845D01*
X262923509Y-290091845D02*
X262875890Y-290139464D01*
X262875890Y-290139464D02*
X262828271Y-290234702D01*
X262828271Y-290234702D02*
X262828271Y-290425178D01*
X262828271Y-290425178D02*
X262875890Y-290520416D01*
X262875890Y-290520416D02*
X262923509Y-290568035D01*
X262923509Y-290568035D02*
X263018747Y-290615654D01*
X263447319Y-289568035D02*
X263447319Y-289377559D01*
X263447319Y-289377559D02*
X263399700Y-289282321D01*
X263399700Y-289282321D02*
X263352080Y-289234702D01*
X263352080Y-289234702D02*
X263209223Y-289139464D01*
X263209223Y-289139464D02*
X263018747Y-289091845D01*
X263018747Y-289091845D02*
X262637795Y-289091845D01*
X262637795Y-289091845D02*
X262542557Y-289139464D01*
X262542557Y-289139464D02*
X262494938Y-289187083D01*
X262494938Y-289187083D02*
X262447319Y-289282321D01*
X262447319Y-289282321D02*
X262447319Y-289472797D01*
X262447319Y-289472797D02*
X262494938Y-289568035D01*
X262494938Y-289568035D02*
X262542557Y-289615654D01*
X262542557Y-289615654D02*
X262637795Y-289663273D01*
X262637795Y-289663273D02*
X262875890Y-289663273D01*
X262875890Y-289663273D02*
X262971128Y-289615654D01*
X262971128Y-289615654D02*
X263018747Y-289568035D01*
X263018747Y-289568035D02*
X263066366Y-289472797D01*
X263066366Y-289472797D02*
X263066366Y-289282321D01*
X263066366Y-289282321D02*
X263018747Y-289187083D01*
X263018747Y-289187083D02*
X262971128Y-289139464D01*
X262971128Y-289139464D02*
X262875890Y-289091845D01*
X263767319Y-294425654D02*
X262767319Y-294425654D01*
X263767319Y-293854226D02*
X263195890Y-294282797D01*
X262767319Y-293854226D02*
X263338747Y-294425654D01*
X106104819Y-272518035D02*
X105104819Y-272518035D01*
X105104819Y-272518035D02*
X105104819Y-272279940D01*
X105104819Y-272279940D02*
X105152438Y-272137083D01*
X105152438Y-272137083D02*
X105247676Y-272041845D01*
X105247676Y-272041845D02*
X105342914Y-271994226D01*
X105342914Y-271994226D02*
X105533390Y-271946607D01*
X105533390Y-271946607D02*
X105676247Y-271946607D01*
X105676247Y-271946607D02*
X105866723Y-271994226D01*
X105866723Y-271994226D02*
X105961961Y-272041845D01*
X105961961Y-272041845D02*
X106057200Y-272137083D01*
X106057200Y-272137083D02*
X106104819Y-272279940D01*
X106104819Y-272279940D02*
X106104819Y-272518035D01*
X105200057Y-271565654D02*
X105152438Y-271518035D01*
X105152438Y-271518035D02*
X105104819Y-271422797D01*
X105104819Y-271422797D02*
X105104819Y-271184702D01*
X105104819Y-271184702D02*
X105152438Y-271089464D01*
X105152438Y-271089464D02*
X105200057Y-271041845D01*
X105200057Y-271041845D02*
X105295295Y-270994226D01*
X105295295Y-270994226D02*
X105390533Y-270994226D01*
X105390533Y-270994226D02*
X105533390Y-271041845D01*
X105533390Y-271041845D02*
X106104819Y-271613273D01*
X106104819Y-271613273D02*
X106104819Y-270994226D01*
X105104819Y-270375178D02*
X105104819Y-270279940D01*
X105104819Y-270279940D02*
X105152438Y-270184702D01*
X105152438Y-270184702D02*
X105200057Y-270137083D01*
X105200057Y-270137083D02*
X105295295Y-270089464D01*
X105295295Y-270089464D02*
X105485771Y-270041845D01*
X105485771Y-270041845D02*
X105723866Y-270041845D01*
X105723866Y-270041845D02*
X105914342Y-270089464D01*
X105914342Y-270089464D02*
X106009580Y-270137083D01*
X106009580Y-270137083D02*
X106057200Y-270184702D01*
X106057200Y-270184702D02*
X106104819Y-270279940D01*
X106104819Y-270279940D02*
X106104819Y-270375178D01*
X106104819Y-270375178D02*
X106057200Y-270470416D01*
X106057200Y-270470416D02*
X106009580Y-270518035D01*
X106009580Y-270518035D02*
X105914342Y-270565654D01*
X105914342Y-270565654D02*
X105723866Y-270613273D01*
X105723866Y-270613273D02*
X105485771Y-270613273D01*
X105485771Y-270613273D02*
X105295295Y-270565654D01*
X105295295Y-270565654D02*
X105200057Y-270518035D01*
X105200057Y-270518035D02*
X105152438Y-270470416D01*
X105152438Y-270470416D02*
X105104819Y-270375178D01*
X106424819Y-275375654D02*
X105424819Y-275375654D01*
X106424819Y-274804226D02*
X105853390Y-275232797D01*
X105424819Y-274804226D02*
X105996247Y-275375654D01*
D11*
%TO.C,SW67*%
X407987500Y-279741858D02*
X407747500Y-279411858D01*
X408227500Y-279411858D01*
X407987500Y-279741858D01*
G36*
X407987500Y-279741858D02*
G01*
X407747500Y-279411858D01*
X408227500Y-279411858D01*
X407987500Y-279741858D01*
G37*
X409987500Y-273843750D02*
G75*
G02*
X405987500Y-273843750I-2000000J0D01*
G01*
X405987500Y-273843750D02*
G75*
G02*
X409987500Y-273843750I2000000J0D01*
G01*
X413887500Y-275843750D02*
X413887500Y-279943750D01*
X413887500Y-267743750D02*
X413887500Y-271843750D01*
X411487500Y-267743750D02*
X413887500Y-267743750D01*
X406687500Y-267743750D02*
X409287500Y-267743750D01*
X402087500Y-279943750D02*
X413887500Y-279943750D01*
X402087500Y-275843750D02*
X402087500Y-279943750D01*
X402087500Y-271843750D02*
X402087500Y-267743750D01*
X402087500Y-267743750D02*
X404487500Y-267743750D01*
%TO.C,D6*%
X267961250Y-249498750D02*
X270201250Y-249498750D01*
X270201250Y-253738750D01*
X267961250Y-253738750D01*
X267961250Y-249498750D01*
X269081250Y-254388750D02*
X269081250Y-253738750D01*
X269081250Y-248848750D02*
X269081250Y-249498750D01*
X267961250Y-253138750D02*
X270201250Y-253138750D01*
X267961250Y-253018750D02*
X270201250Y-253018750D01*
X267961250Y-252898750D02*
X270201250Y-252898750D01*
%TO.C,D60*%
X337017500Y-264580000D02*
X339257500Y-264580000D01*
X339257500Y-268820000D01*
X337017500Y-268820000D01*
X337017500Y-264580000D01*
X338137500Y-269470000D02*
X338137500Y-268820000D01*
X338137500Y-263930000D02*
X338137500Y-264580000D01*
X337017500Y-268220000D02*
X339257500Y-268220000D01*
X337017500Y-268100000D02*
X339257500Y-268100000D01*
X337017500Y-267980000D02*
X339257500Y-267980000D01*
%TO.C,D7*%
X58411250Y-249657500D02*
X60651250Y-249657500D01*
X60651250Y-253897500D01*
X58411250Y-253897500D01*
X58411250Y-249657500D01*
X59531250Y-254547500D02*
X59531250Y-253897500D01*
X59531250Y-249007500D02*
X59531250Y-249657500D01*
X58411250Y-253297500D02*
X60651250Y-253297500D01*
X58411250Y-253177500D02*
X60651250Y-253177500D01*
X58411250Y-253057500D02*
X60651250Y-253057500D01*
%TO.C,D56*%
X221130000Y-269183750D02*
X223370000Y-269183750D01*
X223370000Y-273423750D01*
X221130000Y-273423750D01*
X221130000Y-269183750D01*
X222250000Y-274073750D02*
X222250000Y-273423750D01*
X222250000Y-268533750D02*
X222250000Y-269183750D01*
X221130000Y-272823750D02*
X223370000Y-272823750D01*
X221130000Y-272703750D02*
X223370000Y-272703750D01*
X221130000Y-272583750D02*
X223370000Y-272583750D01*
%TO.C,D30*%
X385388750Y-295742500D02*
X389628750Y-295742500D01*
X389628750Y-297982500D01*
X385388750Y-297982500D01*
X385388750Y-295742500D01*
X390278750Y-296862500D02*
X389628750Y-296862500D01*
X386228750Y-295742500D02*
X386228750Y-297982500D01*
X386108750Y-295742500D02*
X386108750Y-297982500D01*
X385988750Y-295742500D02*
X385988750Y-297982500D01*
X384738750Y-296862500D02*
X385388750Y-296862500D01*
%TO.C,D45*%
X187792500Y-288233750D02*
X190032500Y-288233750D01*
X190032500Y-292473750D01*
X187792500Y-292473750D01*
X187792500Y-288233750D01*
X188912500Y-293123750D02*
X188912500Y-292473750D01*
X188912500Y-287583750D02*
X188912500Y-288233750D01*
X187792500Y-291873750D02*
X190032500Y-291873750D01*
X187792500Y-291753750D02*
X190032500Y-291753750D01*
X187792500Y-291633750D02*
X190032500Y-291633750D01*
%TO.C,D66*%
X344748750Y-275898750D02*
X348988750Y-275898750D01*
X348988750Y-278138750D01*
X344748750Y-278138750D01*
X344748750Y-275898750D01*
X349638750Y-277018750D02*
X348988750Y-277018750D01*
X345588750Y-275898750D02*
X345588750Y-278138750D01*
X345468750Y-275898750D02*
X345468750Y-278138750D01*
X345348750Y-275898750D02*
X345348750Y-278138750D01*
X344098750Y-277018750D02*
X344748750Y-277018750D01*
%TO.C,D41*%
X280661250Y-326492500D02*
X282901250Y-326492500D01*
X282901250Y-330732500D01*
X280661250Y-330732500D01*
X280661250Y-326492500D01*
X281781250Y-331382500D02*
X281781250Y-330732500D01*
X281781250Y-325842500D02*
X281781250Y-326492500D01*
X280661250Y-330132500D02*
X282901250Y-330132500D01*
X280661250Y-330012500D02*
X282901250Y-330012500D01*
X280661250Y-329892500D02*
X282901250Y-329892500D01*
%TO.C,D19*%
X96511250Y-250292500D02*
X98751250Y-250292500D01*
X98751250Y-254532500D01*
X96511250Y-254532500D01*
X96511250Y-250292500D01*
X97631250Y-255182500D02*
X97631250Y-254532500D01*
X97631250Y-249642500D02*
X97631250Y-250292500D01*
X96511250Y-253932500D02*
X98751250Y-253932500D01*
X96511250Y-253812500D02*
X98751250Y-253812500D01*
X96511250Y-253692500D02*
X98751250Y-253692500D01*
%TO.C,D4*%
X63967500Y-307283750D02*
X66207500Y-307283750D01*
X66207500Y-311523750D01*
X63967500Y-311523750D01*
X63967500Y-307283750D01*
X65087500Y-312173750D02*
X65087500Y-311523750D01*
X65087500Y-306633750D02*
X65087500Y-307283750D01*
X63967500Y-310923750D02*
X66207500Y-310923750D01*
X63967500Y-310803750D02*
X66207500Y-310803750D01*
X63967500Y-310683750D02*
X66207500Y-310683750D01*
%TO.C,D32*%
X144930000Y-269342500D02*
X147170000Y-269342500D01*
X147170000Y-273582500D01*
X144930000Y-273582500D01*
X144930000Y-269342500D01*
X146050000Y-274232500D02*
X146050000Y-273582500D01*
X146050000Y-268692500D02*
X146050000Y-269342500D01*
X144930000Y-272982500D02*
X147170000Y-272982500D01*
X144930000Y-272862500D02*
X147170000Y-272862500D01*
X144930000Y-272742500D02*
X147170000Y-272742500D01*
%TO.C,D39*%
X168742500Y-288392500D02*
X170982500Y-288392500D01*
X170982500Y-292632500D01*
X168742500Y-292632500D01*
X168742500Y-288392500D01*
X169862500Y-293282500D02*
X169862500Y-292632500D01*
X169862500Y-287742500D02*
X169862500Y-288392500D01*
X168742500Y-292032500D02*
X170982500Y-292032500D01*
X168742500Y-291912500D02*
X170982500Y-291912500D01*
X168742500Y-291792500D02*
X170982500Y-291792500D01*
%TO.C,D62*%
X240180000Y-269183750D02*
X242420000Y-269183750D01*
X242420000Y-273423750D01*
X240180000Y-273423750D01*
X240180000Y-269183750D01*
X241300000Y-274073750D02*
X241300000Y-273423750D01*
X241300000Y-268533750D02*
X241300000Y-269183750D01*
X240180000Y-272823750D02*
X242420000Y-272823750D01*
X240180000Y-272703750D02*
X242420000Y-272703750D01*
X240180000Y-272583750D02*
X242420000Y-272583750D01*
%TO.C,D5*%
X42536250Y-325698750D02*
X44776250Y-325698750D01*
X44776250Y-329938750D01*
X42536250Y-329938750D01*
X42536250Y-325698750D01*
X43656250Y-330588750D02*
X43656250Y-329938750D01*
X43656250Y-325048750D02*
X43656250Y-325698750D01*
X42536250Y-329338750D02*
X44776250Y-329338750D01*
X42536250Y-329218750D02*
X44776250Y-329218750D01*
X42536250Y-329098750D02*
X44776250Y-329098750D01*
%TO.C,D29*%
X233036250Y-326492500D02*
X235276250Y-326492500D01*
X235276250Y-330732500D01*
X233036250Y-330732500D01*
X233036250Y-326492500D01*
X234156250Y-331382500D02*
X234156250Y-330732500D01*
X234156250Y-325842500D02*
X234156250Y-326492500D01*
X233036250Y-330132500D02*
X235276250Y-330132500D01*
X233036250Y-330012500D02*
X235276250Y-330012500D01*
X233036250Y-329892500D02*
X235276250Y-329892500D01*
%TO.C,D18*%
X385388750Y-314792500D02*
X389628750Y-314792500D01*
X389628750Y-317032500D01*
X385388750Y-317032500D01*
X385388750Y-314792500D01*
X390278750Y-315912500D02*
X389628750Y-315912500D01*
X386228750Y-314792500D02*
X386228750Y-317032500D01*
X386108750Y-314792500D02*
X386108750Y-317032500D01*
X385988750Y-314792500D02*
X385988750Y-317032500D01*
X384738750Y-315912500D02*
X385388750Y-315912500D01*
%TO.C,D42*%
X321095000Y-318761250D02*
X325335000Y-318761250D01*
X325335000Y-321001250D01*
X321095000Y-321001250D01*
X321095000Y-318761250D01*
X325985000Y-319881250D02*
X325335000Y-319881250D01*
X321935000Y-318761250D02*
X321935000Y-321001250D01*
X321815000Y-318761250D02*
X321815000Y-321001250D01*
X321695000Y-318761250D02*
X321695000Y-321001250D01*
X320445000Y-319881250D02*
X321095000Y-319881250D01*
%TO.C,D59*%
X306061250Y-289345000D02*
X308301250Y-289345000D01*
X308301250Y-293585000D01*
X306061250Y-293585000D01*
X306061250Y-289345000D01*
X307181250Y-294235000D02*
X307181250Y-293585000D01*
X307181250Y-288695000D02*
X307181250Y-289345000D01*
X306061250Y-292985000D02*
X308301250Y-292985000D01*
X306061250Y-292865000D02*
X308301250Y-292865000D01*
X306061250Y-292745000D02*
X308301250Y-292745000D01*
%TO.C,D57*%
X225892500Y-289186250D02*
X228132500Y-289186250D01*
X228132500Y-293426250D01*
X225892500Y-293426250D01*
X225892500Y-289186250D01*
X227012500Y-294076250D02*
X227012500Y-293426250D01*
X227012500Y-288536250D02*
X227012500Y-289186250D01*
X225892500Y-292826250D02*
X228132500Y-292826250D01*
X225892500Y-292706250D02*
X228132500Y-292706250D01*
X225892500Y-292586250D02*
X228132500Y-292586250D01*
%TO.C,D50*%
X202080000Y-269342500D02*
X204320000Y-269342500D01*
X204320000Y-273582500D01*
X202080000Y-273582500D01*
X202080000Y-269342500D01*
X203200000Y-274232500D02*
X203200000Y-273582500D01*
X203200000Y-268692500D02*
X203200000Y-269342500D01*
X202080000Y-272982500D02*
X204320000Y-272982500D01*
X202080000Y-272862500D02*
X204320000Y-272862500D01*
X202080000Y-272742500D02*
X204320000Y-272742500D01*
%TO.C,D9*%
X73492500Y-288233750D02*
X75732500Y-288233750D01*
X75732500Y-292473750D01*
X73492500Y-292473750D01*
X73492500Y-288233750D01*
X74612500Y-293123750D02*
X74612500Y-292473750D01*
X74612500Y-287583750D02*
X74612500Y-288233750D01*
X73492500Y-291873750D02*
X75732500Y-291873750D01*
X73492500Y-291753750D02*
X75732500Y-291753750D01*
X73492500Y-291633750D02*
X75732500Y-291633750D01*
%TO.C,D15*%
X92542500Y-288392500D02*
X94782500Y-288392500D01*
X94782500Y-292632500D01*
X92542500Y-292632500D01*
X92542500Y-288392500D01*
X93662500Y-293282500D02*
X93662500Y-292632500D01*
X93662500Y-287742500D02*
X93662500Y-288392500D01*
X92542500Y-292032500D02*
X94782500Y-292032500D01*
X92542500Y-291912500D02*
X94782500Y-291912500D01*
X92542500Y-291792500D02*
X94782500Y-291792500D01*
%TO.C,D22*%
X121117500Y-307442500D02*
X123357500Y-307442500D01*
X123357500Y-311682500D01*
X121117500Y-311682500D01*
X121117500Y-307442500D01*
X122237500Y-312332500D02*
X122237500Y-311682500D01*
X122237500Y-306792500D02*
X122237500Y-307442500D01*
X121117500Y-311082500D02*
X123357500Y-311082500D01*
X121117500Y-310962500D02*
X123357500Y-310962500D01*
X121117500Y-310842500D02*
X123357500Y-310842500D01*
%TO.C,D64*%
X254308750Y-307283750D02*
X256548750Y-307283750D01*
X256548750Y-311523750D01*
X254308750Y-311523750D01*
X254308750Y-307283750D01*
X255428750Y-312173750D02*
X255428750Y-311523750D01*
X255428750Y-306633750D02*
X255428750Y-307283750D01*
X254308750Y-310923750D02*
X256548750Y-310923750D01*
X254308750Y-310803750D02*
X256548750Y-310803750D01*
X254308750Y-310683750D02*
X256548750Y-310683750D01*
%TO.C,D12*%
X278280000Y-269501250D02*
X280520000Y-269501250D01*
X280520000Y-273741250D01*
X278280000Y-273741250D01*
X278280000Y-269501250D01*
X280520000Y-270341250D02*
X278280000Y-270341250D01*
X280520000Y-270221250D02*
X278280000Y-270221250D01*
X280520000Y-270101250D02*
X278280000Y-270101250D01*
X279400000Y-274391250D02*
X279400000Y-273741250D01*
X279400000Y-268851250D02*
X279400000Y-269501250D01*
%TO.C,D27*%
X130642500Y-287598750D02*
X132882500Y-287598750D01*
X132882500Y-291838750D01*
X130642500Y-291838750D01*
X130642500Y-287598750D01*
X131762500Y-292488750D02*
X131762500Y-291838750D01*
X131762500Y-286948750D02*
X131762500Y-287598750D01*
X130642500Y-291238750D02*
X132882500Y-291238750D01*
X130642500Y-291118750D02*
X132882500Y-291118750D01*
X130642500Y-290998750D02*
X132882500Y-290998750D01*
%TO.C,D61*%
X229861250Y-250133750D02*
X232101250Y-250133750D01*
X232101250Y-254373750D01*
X229861250Y-254373750D01*
X229861250Y-250133750D01*
X230981250Y-255023750D02*
X230981250Y-254373750D01*
X230981250Y-249483750D02*
X230981250Y-250133750D01*
X229861250Y-253773750D02*
X232101250Y-253773750D01*
X229861250Y-253653750D02*
X232101250Y-253653750D01*
X229861250Y-253533750D02*
X232101250Y-253533750D01*
%TO.C,D54*%
X359830000Y-318761250D02*
X364070000Y-318761250D01*
X364070000Y-321001250D01*
X359830000Y-321001250D01*
X359830000Y-318761250D01*
X364720000Y-319881250D02*
X364070000Y-319881250D01*
X360670000Y-318761250D02*
X360670000Y-321001250D01*
X360550000Y-318761250D02*
X360550000Y-321001250D01*
X360430000Y-318761250D02*
X360430000Y-321001250D01*
X359180000Y-319881250D02*
X359830000Y-319881250D01*
%TO.C,D46*%
X197317500Y-308077500D02*
X199557500Y-308077500D01*
X199557500Y-312317500D01*
X197317500Y-312317500D01*
X197317500Y-308077500D01*
X198437500Y-312967500D02*
X198437500Y-312317500D01*
X198437500Y-307427500D02*
X198437500Y-308077500D01*
X197317500Y-311717500D02*
X199557500Y-311717500D01*
X197317500Y-311597500D02*
X199557500Y-311597500D01*
X197317500Y-311477500D02*
X199557500Y-311477500D01*
%TO.C,D25*%
X115561250Y-250133750D02*
X117801250Y-250133750D01*
X117801250Y-254373750D01*
X115561250Y-254373750D01*
X115561250Y-250133750D01*
X116681250Y-255023750D02*
X116681250Y-254373750D01*
X116681250Y-249483750D02*
X116681250Y-250133750D01*
X115561250Y-253773750D02*
X117801250Y-253773750D01*
X115561250Y-253653750D02*
X117801250Y-253653750D01*
X115561250Y-253533750D02*
X117801250Y-253533750D01*
%TO.C,D48*%
X344113750Y-318761250D02*
X348353750Y-318761250D01*
X348353750Y-321001250D01*
X344113750Y-321001250D01*
X344113750Y-318761250D01*
X349003750Y-319881250D02*
X348353750Y-319881250D01*
X347753750Y-321001250D02*
X347753750Y-318761250D01*
X347633750Y-321001250D02*
X347633750Y-318761250D01*
X347513750Y-321001250D02*
X347513750Y-318761250D01*
X343463750Y-319881250D02*
X344113750Y-319881250D01*
%TO.C,D38*%
X163980000Y-269183750D02*
X166220000Y-269183750D01*
X166220000Y-273423750D01*
X163980000Y-273423750D01*
X163980000Y-269183750D01*
X165100000Y-274073750D02*
X165100000Y-273423750D01*
X165100000Y-268533750D02*
X165100000Y-269183750D01*
X163980000Y-272823750D02*
X166220000Y-272823750D01*
X163980000Y-272703750D02*
X166220000Y-272703750D01*
X163980000Y-272583750D02*
X166220000Y-272583750D01*
%TO.C,D14*%
X86986250Y-269342500D02*
X89226250Y-269342500D01*
X89226250Y-273582500D01*
X86986250Y-273582500D01*
X86986250Y-269342500D01*
X88106250Y-274232500D02*
X88106250Y-273582500D01*
X88106250Y-268692500D02*
X88106250Y-269342500D01*
X86986250Y-272982500D02*
X89226250Y-272982500D01*
X86986250Y-272862500D02*
X89226250Y-272862500D01*
X86986250Y-272742500D02*
X89226250Y-272742500D01*
%TO.C,D44*%
X183030000Y-270136250D02*
X185270000Y-270136250D01*
X185270000Y-274376250D01*
X183030000Y-274376250D01*
X183030000Y-270136250D01*
X184150000Y-275026250D02*
X184150000Y-274376250D01*
X184150000Y-269486250D02*
X184150000Y-270136250D01*
X183030000Y-273776250D02*
X185270000Y-273776250D01*
X183030000Y-273656250D02*
X185270000Y-273656250D01*
X183030000Y-273536250D02*
X185270000Y-273536250D01*
%TO.C,D47*%
X405073750Y-314792500D02*
X409313750Y-314792500D01*
X409313750Y-317032500D01*
X405073750Y-317032500D01*
X405073750Y-314792500D01*
X409963750Y-315912500D02*
X409313750Y-315912500D01*
X405913750Y-314792500D02*
X405913750Y-317032500D01*
X405793750Y-314792500D02*
X405793750Y-317032500D01*
X405673750Y-314792500D02*
X405673750Y-317032500D01*
X404423750Y-315912500D02*
X405073750Y-315912500D01*
%TO.C,D3*%
X47298750Y-287598750D02*
X49538750Y-287598750D01*
X49538750Y-291838750D01*
X47298750Y-291838750D01*
X47298750Y-287598750D01*
X48418750Y-292488750D02*
X48418750Y-291838750D01*
X48418750Y-286948750D02*
X48418750Y-287598750D01*
X47298750Y-291238750D02*
X49538750Y-291238750D01*
X47298750Y-291118750D02*
X49538750Y-291118750D01*
X47298750Y-290998750D02*
X49538750Y-290998750D01*
%TO.C,D68*%
X259230000Y-269342500D02*
X261470000Y-269342500D01*
X261470000Y-273582500D01*
X259230000Y-273582500D01*
X259230000Y-269342500D01*
X260350000Y-274232500D02*
X260350000Y-273582500D01*
X260350000Y-268692500D02*
X260350000Y-269342500D01*
X259230000Y-272982500D02*
X261470000Y-272982500D01*
X259230000Y-272862500D02*
X261470000Y-272862500D01*
X259230000Y-272742500D02*
X261470000Y-272742500D01*
%TO.C,D71*%
X306061250Y-250927500D02*
X308301250Y-250927500D01*
X308301250Y-255167500D01*
X306061250Y-255167500D01*
X306061250Y-250927500D01*
X307181250Y-255817500D02*
X307181250Y-255167500D01*
X307181250Y-250277500D02*
X307181250Y-250927500D01*
X306061250Y-254567500D02*
X308301250Y-254567500D01*
X306061250Y-254447500D02*
X308301250Y-254447500D01*
X306061250Y-254327500D02*
X308301250Y-254327500D01*
%TO.C,D11*%
X66348750Y-325857500D02*
X68588750Y-325857500D01*
X68588750Y-330097500D01*
X66348750Y-330097500D01*
X66348750Y-325857500D01*
X67468750Y-330747500D02*
X67468750Y-330097500D01*
X67468750Y-325207500D02*
X67468750Y-325857500D01*
X66348750Y-329497500D02*
X68588750Y-329497500D01*
X66348750Y-329377500D02*
X68588750Y-329377500D01*
X66348750Y-329257500D02*
X68588750Y-329257500D01*
%TO.C,D72*%
X337017500Y-283471250D02*
X339257500Y-283471250D01*
X339257500Y-287711250D01*
X337017500Y-287711250D01*
X337017500Y-283471250D01*
X338137500Y-288361250D02*
X338137500Y-287711250D01*
X338137500Y-282821250D02*
X338137500Y-283471250D01*
X337017500Y-287111250D02*
X339257500Y-287111250D01*
X337017500Y-286991250D02*
X339257500Y-286991250D01*
X337017500Y-286871250D02*
X339257500Y-286871250D01*
%TO.C,D34*%
X159217500Y-307442500D02*
X161457500Y-307442500D01*
X161457500Y-311682500D01*
X159217500Y-311682500D01*
X159217500Y-307442500D01*
X160337500Y-312332500D02*
X160337500Y-311682500D01*
X160337500Y-306792500D02*
X160337500Y-307442500D01*
X159217500Y-311082500D02*
X161457500Y-311082500D01*
X159217500Y-310962500D02*
X161457500Y-310962500D01*
X159217500Y-310842500D02*
X161457500Y-310842500D01*
%TO.C,D37*%
X153661250Y-250292500D02*
X155901250Y-250292500D01*
X155901250Y-254532500D01*
X153661250Y-254532500D01*
X153661250Y-250292500D01*
X154781250Y-255182500D02*
X154781250Y-254532500D01*
X154781250Y-249642500D02*
X154781250Y-250292500D01*
X153661250Y-253932500D02*
X155901250Y-253932500D01*
X153661250Y-253812500D02*
X155901250Y-253812500D01*
X153661250Y-253692500D02*
X155901250Y-253692500D01*
%TO.C,D35*%
X256680000Y-325930000D02*
X258920000Y-325930000D01*
X258920000Y-330170000D01*
X256680000Y-330170000D01*
X256680000Y-325930000D01*
X257800000Y-330820000D02*
X257800000Y-330170000D01*
X257800000Y-325280000D02*
X257800000Y-325930000D01*
X256680000Y-329570000D02*
X258920000Y-329570000D01*
X256680000Y-329450000D02*
X258920000Y-329450000D01*
X256680000Y-329330000D02*
X258920000Y-329330000D01*
%TO.C,D53*%
X306855000Y-306648750D02*
X309095000Y-306648750D01*
X309095000Y-310888750D01*
X306855000Y-310888750D01*
X306855000Y-306648750D01*
X309095000Y-307488750D02*
X306855000Y-307488750D01*
X309095000Y-307368750D02*
X306855000Y-307368750D01*
X309095000Y-307248750D02*
X306855000Y-307248750D01*
X307975000Y-311538750D02*
X307975000Y-310888750D01*
X307975000Y-305998750D02*
X307975000Y-306648750D01*
%TO.C,D43*%
X172711250Y-250292500D02*
X174951250Y-250292500D01*
X174951250Y-254532500D01*
X172711250Y-254532500D01*
X172711250Y-250292500D01*
X173831250Y-255182500D02*
X173831250Y-254532500D01*
X173831250Y-249642500D02*
X173831250Y-250292500D01*
X172711250Y-253932500D02*
X174951250Y-253932500D01*
X172711250Y-253812500D02*
X174951250Y-253812500D01*
X172711250Y-253692500D02*
X174951250Y-253692500D01*
%TO.C,D21*%
X111592500Y-288392500D02*
X113832500Y-288392500D01*
X113832500Y-292632500D01*
X111592500Y-292632500D01*
X111592500Y-288392500D01*
X112712500Y-293282500D02*
X112712500Y-292632500D01*
X112712500Y-287742500D02*
X112712500Y-288392500D01*
X111592500Y-292032500D02*
X113832500Y-292032500D01*
X111592500Y-291912500D02*
X113832500Y-291912500D01*
X111592500Y-291792500D02*
X113832500Y-291792500D01*
%TO.C,D33*%
X149692500Y-288233750D02*
X151932500Y-288233750D01*
X151932500Y-292473750D01*
X149692500Y-292473750D01*
X149692500Y-288233750D01*
X150812500Y-293123750D02*
X150812500Y-292473750D01*
X150812500Y-287583750D02*
X150812500Y-288233750D01*
X149692500Y-291873750D02*
X151932500Y-291873750D01*
X149692500Y-291753750D02*
X151932500Y-291753750D01*
X149692500Y-291633750D02*
X151932500Y-291633750D01*
%TO.C,D28*%
X140167500Y-307442500D02*
X142407500Y-307442500D01*
X142407500Y-311682500D01*
X140167500Y-311682500D01*
X140167500Y-307442500D01*
X141287500Y-312332500D02*
X141287500Y-311682500D01*
X141287500Y-306792500D02*
X141287500Y-307442500D01*
X140167500Y-311082500D02*
X142407500Y-311082500D01*
X140167500Y-310962500D02*
X142407500Y-310962500D01*
X140167500Y-310842500D02*
X142407500Y-310842500D01*
%TO.C,D70*%
X404438750Y-295742500D02*
X408678750Y-295742500D01*
X408678750Y-297982500D01*
X404438750Y-297982500D01*
X404438750Y-295742500D01*
X409328750Y-296862500D02*
X408678750Y-296862500D01*
X405278750Y-295742500D02*
X405278750Y-297982500D01*
X405158750Y-295742500D02*
X405158750Y-297982500D01*
X405038750Y-295742500D02*
X405038750Y-297982500D01*
X403788750Y-296862500D02*
X404438750Y-296862500D01*
%TO.C,D1*%
X39361250Y-249498750D02*
X41601250Y-249498750D01*
X41601250Y-253738750D01*
X39361250Y-253738750D01*
X39361250Y-249498750D01*
X40481250Y-254388750D02*
X40481250Y-253738750D01*
X40481250Y-248848750D02*
X40481250Y-249498750D01*
X39361250Y-253138750D02*
X41601250Y-253138750D01*
X39361250Y-253018750D02*
X41601250Y-253018750D01*
X39361250Y-252898750D02*
X41601250Y-252898750D01*
%TO.C,D63*%
X244942500Y-288392500D02*
X247182500Y-288392500D01*
X247182500Y-292632500D01*
X244942500Y-292632500D01*
X244942500Y-288392500D01*
X246062500Y-293282500D02*
X246062500Y-292632500D01*
X246062500Y-287742500D02*
X246062500Y-288392500D01*
X244942500Y-292032500D02*
X247182500Y-292032500D01*
X244942500Y-291912500D02*
X247182500Y-291912500D01*
X244942500Y-291792500D02*
X247182500Y-291792500D01*
%TO.C,D55*%
X210811250Y-250133750D02*
X213051250Y-250133750D01*
X213051250Y-254373750D01*
X210811250Y-254373750D01*
X210811250Y-250133750D01*
X211931250Y-255023750D02*
X211931250Y-254373750D01*
X211931250Y-249483750D02*
X211931250Y-250133750D01*
X210811250Y-253773750D02*
X213051250Y-253773750D01*
X210811250Y-253653750D02*
X213051250Y-253653750D01*
X210811250Y-253533750D02*
X213051250Y-253533750D01*
%TO.C,D8*%
X68730000Y-269342500D02*
X70970000Y-269342500D01*
X70970000Y-273582500D01*
X68730000Y-273582500D01*
X68730000Y-269342500D01*
X69850000Y-274232500D02*
X69850000Y-273582500D01*
X69850000Y-268692500D02*
X69850000Y-269342500D01*
X68730000Y-272982500D02*
X70970000Y-272982500D01*
X68730000Y-272862500D02*
X70970000Y-272862500D01*
X68730000Y-272742500D02*
X70970000Y-272742500D01*
%TO.C,D67*%
X248911250Y-250292500D02*
X251151250Y-250292500D01*
X251151250Y-254532500D01*
X248911250Y-254532500D01*
X248911250Y-250292500D01*
X250031250Y-255182500D02*
X250031250Y-254532500D01*
X250031250Y-249642500D02*
X250031250Y-250292500D01*
X248911250Y-253932500D02*
X251151250Y-253932500D01*
X248911250Y-253812500D02*
X251151250Y-253812500D01*
X248911250Y-253692500D02*
X251151250Y-253692500D01*
%TO.C,A1*%
X387006250Y-287350000D02*
G75*
G02*
X386396250Y-287960000I-610000J0D01*
G01*
X386396250Y-236740000D02*
G75*
G02*
X387006250Y-237350000I0J-610000D01*
G01*
X366396250Y-287960000D02*
G75*
G02*
X365786250Y-287350000I-99J609901D01*
G01*
X365786250Y-237350000D02*
G75*
G02*
X366396250Y-236740000I610000J0D01*
G01*
X387006250Y-237350000D02*
X387006250Y-287350000D01*
X386666250Y-287897000D02*
X386666250Y-236803000D01*
X386396250Y-236740000D02*
X383906250Y-236740000D01*
X383906250Y-287046480D02*
X383906250Y-287960000D01*
X383906250Y-240046480D02*
X383906250Y-284653520D01*
X383906250Y-236740000D02*
X383906250Y-237653520D01*
X382558311Y-287960000D02*
X386396250Y-287960000D01*
X382558311Y-236740000D02*
X383906250Y-236740000D01*
X381634189Y-287960000D02*
X379996250Y-287960000D01*
X380631250Y-236740000D02*
X381634189Y-236740000D01*
X380506250Y-236260000D02*
X380296250Y-236260000D01*
X380506250Y-235440000D02*
X380506250Y-236260000D01*
X380296250Y-241260000D02*
X372496250Y-241260000D01*
X380296250Y-240044000D02*
X380296250Y-241260000D01*
X380296250Y-236260000D02*
X380296250Y-237656000D01*
X379996250Y-287960000D02*
X372796250Y-287960000D01*
X372796250Y-287960000D02*
X371158311Y-287960000D01*
X372496250Y-240044000D02*
X372496250Y-241260000D01*
X372496250Y-236260000D02*
X372496250Y-237656000D01*
X372286250Y-236260000D02*
X372496250Y-236260000D01*
X372286250Y-235440000D02*
X380506250Y-235440000D01*
X372286250Y-235440000D02*
X372286250Y-236260000D01*
X372161250Y-236740000D02*
X380631250Y-236740000D01*
X371158311Y-236740000D02*
X372161250Y-236740000D01*
X368886250Y-287046480D02*
X368886250Y-287960000D01*
X368886250Y-240046480D02*
X368886250Y-284653520D01*
X368886250Y-236740000D02*
X370234190Y-236740000D01*
X368886250Y-236740000D02*
X368886250Y-237653520D01*
X366396250Y-287960000D02*
X370234189Y-287960000D01*
X366396250Y-236740000D02*
X368886250Y-236740000D01*
X366126250Y-236803000D02*
X366126250Y-287897000D01*
X365786250Y-237350000D02*
X365786250Y-287350000D01*
X365466250Y-239020000D02*
X365466250Y-237420000D01*
%TO.C,D16*%
X102067500Y-307442500D02*
X104307500Y-307442500D01*
X104307500Y-311682500D01*
X102067500Y-311682500D01*
X102067500Y-307442500D01*
X103187500Y-312332500D02*
X103187500Y-311682500D01*
X103187500Y-306792500D02*
X103187500Y-307442500D01*
X102067500Y-311082500D02*
X104307500Y-311082500D01*
X102067500Y-310962500D02*
X104307500Y-310962500D01*
X102067500Y-310842500D02*
X104307500Y-310842500D01*
%TO.C,D52*%
X216367500Y-307601250D02*
X218607500Y-307601250D01*
X218607500Y-311841250D01*
X216367500Y-311841250D01*
X216367500Y-307601250D01*
X217487500Y-312491250D02*
X217487500Y-311841250D01*
X217487500Y-306951250D02*
X217487500Y-307601250D01*
X216367500Y-311241250D02*
X218607500Y-311241250D01*
X216367500Y-311121250D02*
X218607500Y-311121250D01*
X216367500Y-311001250D02*
X218607500Y-311001250D01*
%TO.C,D51*%
X206842500Y-289186250D02*
X209082500Y-289186250D01*
X209082500Y-293426250D01*
X206842500Y-293426250D01*
X206842500Y-289186250D01*
X207962500Y-294076250D02*
X207962500Y-293426250D01*
X207962500Y-288536250D02*
X207962500Y-289186250D01*
X206842500Y-292826250D02*
X209082500Y-292826250D01*
X206842500Y-292706250D02*
X209082500Y-292706250D01*
X206842500Y-292586250D02*
X209082500Y-292586250D01*
%TO.C,D10*%
X83017500Y-307442500D02*
X85257500Y-307442500D01*
X85257500Y-311682500D01*
X83017500Y-311682500D01*
X83017500Y-307442500D01*
X84137500Y-312332500D02*
X84137500Y-311682500D01*
X84137500Y-306792500D02*
X84137500Y-307442500D01*
X83017500Y-311082500D02*
X85257500Y-311082500D01*
X83017500Y-310962500D02*
X85257500Y-310962500D01*
X83017500Y-310842500D02*
X85257500Y-310842500D01*
%TO.C,D2*%
X44917500Y-269183750D02*
X47157500Y-269183750D01*
X47157500Y-273423750D01*
X44917500Y-273423750D01*
X44917500Y-269183750D01*
X46037500Y-274073750D02*
X46037500Y-273423750D01*
X46037500Y-268533750D02*
X46037500Y-269183750D01*
X44917500Y-272823750D02*
X47157500Y-272823750D01*
X44917500Y-272703750D02*
X47157500Y-272703750D01*
X44917500Y-272583750D02*
X47157500Y-272583750D01*
%TO.C,D58*%
X235417500Y-306648750D02*
X237657500Y-306648750D01*
X237657500Y-310888750D01*
X235417500Y-310888750D01*
X235417500Y-306648750D01*
X236537500Y-311538750D02*
X236537500Y-310888750D01*
X236537500Y-305998750D02*
X236537500Y-306648750D01*
X235417500Y-310288750D02*
X237657500Y-310288750D01*
X235417500Y-310168750D02*
X237657500Y-310168750D01*
X235417500Y-310048750D02*
X237657500Y-310048750D01*
%TO.C,D49*%
X191761250Y-250133750D02*
X194001250Y-250133750D01*
X194001250Y-254373750D01*
X191761250Y-254373750D01*
X191761250Y-250133750D01*
X192881250Y-255023750D02*
X192881250Y-254373750D01*
X192881250Y-249483750D02*
X192881250Y-250133750D01*
X191761250Y-253773750D02*
X194001250Y-253773750D01*
X191761250Y-253653750D02*
X194001250Y-253653750D01*
X191761250Y-253533750D02*
X194001250Y-253533750D01*
%TO.C,D31*%
X134611250Y-249657500D02*
X136851250Y-249657500D01*
X136851250Y-253897500D01*
X134611250Y-253897500D01*
X134611250Y-249657500D01*
X135731250Y-254547500D02*
X135731250Y-253897500D01*
X135731250Y-249007500D02*
X135731250Y-249657500D01*
X134611250Y-253297500D02*
X136851250Y-253297500D01*
X134611250Y-253177500D02*
X136851250Y-253177500D01*
X134611250Y-253057500D02*
X136851250Y-253057500D01*
%TO.C,D26*%
X125880000Y-269342500D02*
X128120000Y-269342500D01*
X128120000Y-273582500D01*
X125880000Y-273582500D01*
X125880000Y-269342500D01*
X127000000Y-274232500D02*
X127000000Y-273582500D01*
X127000000Y-268692500D02*
X127000000Y-269342500D01*
X125880000Y-272982500D02*
X128120000Y-272982500D01*
X125880000Y-272862500D02*
X128120000Y-272862500D01*
X125880000Y-272742500D02*
X128120000Y-272742500D01*
%TO.C,D23*%
X161598750Y-326492500D02*
X163838750Y-326492500D01*
X163838750Y-330732500D01*
X161598750Y-330732500D01*
X161598750Y-326492500D01*
X162718750Y-331382500D02*
X162718750Y-330732500D01*
X162718750Y-325842500D02*
X162718750Y-326492500D01*
X161598750Y-330132500D02*
X163838750Y-330132500D01*
X161598750Y-330012500D02*
X163838750Y-330012500D01*
X161598750Y-329892500D02*
X163838750Y-329892500D01*
%TO.C,D36*%
X352098750Y-306648750D02*
X354338750Y-306648750D01*
X354338750Y-310888750D01*
X352098750Y-310888750D01*
X352098750Y-306648750D01*
X353218750Y-311538750D02*
X353218750Y-310888750D01*
X353218750Y-305998750D02*
X353218750Y-306648750D01*
X352098750Y-310288750D02*
X354338750Y-310288750D01*
X352098750Y-310168750D02*
X354338750Y-310168750D01*
X352098750Y-310048750D02*
X354338750Y-310048750D01*
%TO.C,D40*%
X178267500Y-307442500D02*
X180507500Y-307442500D01*
X180507500Y-311682500D01*
X178267500Y-311682500D01*
X178267500Y-307442500D01*
X179387500Y-312332500D02*
X179387500Y-311682500D01*
X179387500Y-306792500D02*
X179387500Y-307442500D01*
X178267500Y-311082500D02*
X180507500Y-311082500D01*
X178267500Y-310962500D02*
X180507500Y-310962500D01*
X178267500Y-310842500D02*
X180507500Y-310842500D01*
%TO.C,D24*%
X356067500Y-282995000D02*
X358307500Y-282995000D01*
X358307500Y-287235000D01*
X356067500Y-287235000D01*
X356067500Y-282995000D01*
X358307500Y-283835000D02*
X356067500Y-283835000D01*
X358307500Y-283715000D02*
X356067500Y-283715000D01*
X358307500Y-283595000D02*
X356067500Y-283595000D01*
X357187500Y-287885000D02*
X357187500Y-287235000D01*
X357187500Y-282345000D02*
X357187500Y-282995000D01*
%TO.C,SW68*%
X408106250Y-259754358D02*
X407866250Y-259424358D01*
X408346250Y-259424358D01*
X408106250Y-259754358D01*
G36*
X408106250Y-259754358D02*
G01*
X407866250Y-259424358D01*
X408346250Y-259424358D01*
X408106250Y-259754358D01*
G37*
X410106250Y-253856250D02*
G75*
G02*
X406106250Y-253856250I-2000000J0D01*
G01*
X406106250Y-253856250D02*
G75*
G02*
X410106250Y-253856250I2000000J0D01*
G01*
X414006250Y-255856250D02*
X414006250Y-259956250D01*
X414006250Y-247756250D02*
X414006250Y-251856250D01*
X411606250Y-247756250D02*
X414006250Y-247756250D01*
X406806250Y-247756250D02*
X409406250Y-247756250D01*
X402206250Y-259956250D02*
X414006250Y-259956250D01*
X402206250Y-255856250D02*
X402206250Y-259956250D01*
X402206250Y-251856250D02*
X402206250Y-247756250D01*
X402206250Y-247756250D02*
X404606250Y-247756250D01*
%TO.C,D17*%
X89367500Y-326492500D02*
X91607500Y-326492500D01*
X91607500Y-330732500D01*
X89367500Y-330732500D01*
X89367500Y-326492500D01*
X90487500Y-331382500D02*
X90487500Y-330732500D01*
X90487500Y-325842500D02*
X90487500Y-326492500D01*
X89367500Y-330132500D02*
X91607500Y-330132500D01*
X89367500Y-330012500D02*
X91607500Y-330012500D01*
X89367500Y-329892500D02*
X91607500Y-329892500D01*
%TO.C,D65*%
X302092500Y-269342500D02*
X304332500Y-269342500D01*
X304332500Y-273582500D01*
X302092500Y-273582500D01*
X302092500Y-269342500D01*
X303212500Y-274232500D02*
X303212500Y-273582500D01*
X303212500Y-268692500D02*
X303212500Y-269342500D01*
X302092500Y-272982500D02*
X304332500Y-272982500D01*
X302092500Y-272862500D02*
X304332500Y-272862500D01*
X302092500Y-272742500D02*
X304332500Y-272742500D01*
%TO.C,U1*%
X323900000Y-238475000D02*
X361900000Y-238475000D01*
X361900000Y-250475000D01*
X323900000Y-250475000D01*
X323900000Y-238475000D01*
X360400000Y-239285000D02*
X359020000Y-239285000D01*
X359020000Y-240665000D02*
X359020000Y-239285000D01*
%TO.C,D13*%
X77461250Y-249498750D02*
X79701250Y-249498750D01*
X79701250Y-253738750D01*
X77461250Y-253738750D01*
X77461250Y-249498750D01*
X78581250Y-254388750D02*
X78581250Y-253738750D01*
X78581250Y-248848750D02*
X78581250Y-249498750D01*
X77461250Y-253138750D02*
X79701250Y-253138750D01*
X77461250Y-253018750D02*
X79701250Y-253018750D01*
X77461250Y-252898750D02*
X79701250Y-252898750D01*
%TO.C,D69*%
X263992500Y-288233750D02*
X266232500Y-288233750D01*
X266232500Y-292473750D01*
X263992500Y-292473750D01*
X263992500Y-288233750D01*
X265112500Y-293123750D02*
X265112500Y-292473750D01*
X265112500Y-287583750D02*
X265112500Y-288233750D01*
X263992500Y-291873750D02*
X266232500Y-291873750D01*
X263992500Y-291753750D02*
X266232500Y-291753750D01*
X263992500Y-291633750D02*
X266232500Y-291633750D01*
%TO.C,D20*%
X106650000Y-269183750D02*
X108890000Y-269183750D01*
X108890000Y-273423750D01*
X106650000Y-273423750D01*
X106650000Y-269183750D01*
X107770000Y-274073750D02*
X107770000Y-273423750D01*
X107770000Y-268533750D02*
X107770000Y-269183750D01*
X106650000Y-272823750D02*
X108890000Y-272823750D01*
X106650000Y-272703750D02*
X108890000Y-272703750D01*
X106650000Y-272583750D02*
X108890000Y-272583750D01*
%TD*%
M02*
